<svg width="1166" height="630" viewBox="0 0 1166 630" fill="none" xmlns="http://www.w3.org/2000/svg">
<ellipse cx="188.587" cy="588.519" rx="44" ry="40.5" fill="#91C2D2"/>
<ellipse cx="382.64" cy="581.481" rx="44" ry="40.5" fill="#91C2D2"/>
<rect x="156.791" y="3.49091" width="77" height="191" rx="38.5" fill="#0185B7"/>
<rect x="305.75" width="77" height="191" rx="38.5" fill="#0185B7"/>
<rect x="92.1406" y="110.729" width="361" height="346" rx="90" fill="#0185B7"/>
<rect x="145.843" y="246.721" width="255" height="134" rx="20" fill="#91C2D2"/>
<rect x="222.459" y="242.558" width="29" height="25" fill="#0185B7"/>
<rect x="309.435" y="240.519" width="29" height="25" fill="#0185B7"/>
<circle cx="254.05" cy="303.007" r="25" fill="#024275"/>
<circle cx="362.239" cy="302.634" r="25" fill="#024275"/>
<rect x="166.016" y="181.383" width="70" height="25" rx="12.5" fill="#14F0F0"/>
<rect x="311.976" y="177.962" width="70" height="25" rx="12.5" fill="#14F0F0"/>
<rect y="414.941" width="541.686" height="174.809" rx="87.4045" fill="#CEDEE5"/>
<path d="M386.148 521.42L341.598 503.12V490.27L386.148 471.87V487.12L359.898 496.77L386.148 506.27V521.42ZM426.083 461.17H439.833L406.883 539.57H393.133L426.083 461.17ZM446.626 521.42V506.27L472.826 496.77L446.626 487.12V471.87L491.126 490.27V503.12L446.626 521.42Z" fill="#91C2D2"/>
<ellipse rx="46.843" ry="44.0153" transform="matrix(-1 0 0 1 964.913 585.033)" fill="#C09ECC"/>
<ellipse rx="46.843" ry="44.0153" transform="matrix(-1 0 0 1 758.323 577.385)" fill="#C09ECC"/>
<rect width="82.4042" height="92.7127" rx="41.2021" transform="matrix(-0.861993 -0.506919 -0.49146 0.8709 1031.39 44.9371)" fill="#745390"/>
<rect width="82.4042" height="92.7127" rx="41.2021" transform="matrix(0.861993 -0.506919 0.49146 0.8709 711.557 44.7723)" fill="#745390"/>
<rect width="384.325" height="376.032" rx="90" transform="matrix(-1 0 0 1 1067.59 65.7724)" fill="#745390"/>
<rect width="271.476" height="145.631" rx="20" transform="matrix(-1 0 0 1 1010.42 213.568)" fill="#C09ECC"/>
<rect width="30.8738" height="27.17" transform="matrix(-1 0 0 1 928.853 209.043)" fill="#745390"/>
<rect width="30.8738" height="27.17" transform="matrix(-1 0 0 1 836.257 206.828)" fill="#745390"/>
<ellipse rx="26.6153" ry="27.17" transform="matrix(-1 0 0 1 895.221 274.74)" fill="#604899"/>
<ellipse rx="26.6153" ry="27.17" transform="matrix(-1 0 0 1 780.041 274.334)" fill="#604899"/>
<rect width="74.5229" height="27.17" rx="13.585" transform="matrix(-1 0 0 1 988.943 142.559)" fill="#F014C0"/>
<rect width="74.5229" height="27.17" rx="13.585" transform="matrix(-1 0 0 1 833.552 138.841)" fill="#F014C0"/>
<rect width="576.686" height="189.982" rx="90" transform="matrix(-1 0 0 1 1165.69 396.389)" fill="#D4C8EF"/>
<mask id="mask0_100_181" style="mask-type:alpha" maskUnits="userSpaceOnUse" x="1011" y="442" width="92" height="96">
<rect x="1011.7" y="442.067" width="90.4921" height="95.6382" fill="#D9D9D9"/>
</mask>
<g mask="url(#mask0_100_181)">
<path d="M1031.97 526.049C1029.83 526.049 1027.73 525.667 1025.65 524.903C1023.58 524.139 1021.76 522.894 1020.19 521.167C1022.38 520.37 1023.96 519.208 1024.9 517.68C1025.84 516.153 1026.31 514.094 1026.31 511.504C1026.31 508.582 1027.27 506.108 1029.19 504.082C1031.1 502.056 1033.44 501.043 1036.21 501.043C1038.97 501.043 1041.32 502.056 1043.23 504.082C1045.15 506.108 1046.11 508.582 1046.11 511.504C1046.11 515.754 1044.74 519.241 1042.01 521.964C1039.27 524.687 1035.93 526.049 1031.97 526.049ZM1053.65 502.438L1045.16 492.974L1080.61 455.516C1081.49 454.586 1082.46 454.104 1083.53 454.071C1084.6 454.038 1085.6 454.519 1086.55 455.516L1089.28 458.405C1090.22 459.401 1090.68 460.48 1090.65 461.642C1090.61 462.805 1090.16 463.851 1089.28 464.781L1053.65 502.438Z" fill="#C09ECC"/>
</g>
</svg>
