<svg width="1302" height="657" viewBox="0 0 1302 657" fill="none" xmlns="http://www.w3.org/2000/svg">
<rect x="281.385" y="100.75" width="65.5556" height="159.121" rx="32.7778" transform="rotate(-1.55022 281.385 100.75)" fill="#0185B7"/>
<rect x="429.289" y="95.3672" width="65.5556" height="159.121" rx="32.7778" transform="rotate(-1.55022 429.289 95.3672)" fill="#0185B7"/>
<rect x="209.451" y="210.297" width="361" height="346" rx="90" transform="rotate(-2.46034 209.451 210.297)" fill="#0185B7"/>
<rect x="268.941" y="343.859" width="255" height="134" rx="20" transform="rotate(-2.46034 268.941 343.859)" fill="#8EDCF5"/>
<rect x="345.309" y="336.41" width="29" height="25" transform="rotate(-2.46034 345.309 336.41)" fill="#0185B7"/>
<rect x="432.115" y="330.641" width="29" height="25" transform="rotate(-2.46034 432.115 330.641)" fill="#0185B7"/>
<circle cx="342.197" cy="402.376" r="25" transform="rotate(-2.46034 342.197 402.376)" fill="#024275"/>
<path d="M483.174 396.303C483.766 410.098 473.064 421.761 459.27 422.353C445.475 422.946 433.812 412.244 433.22 398.45C432.627 384.655 443.329 372.992 457.123 372.399C470.918 371.807 482.581 382.509 483.174 396.303Z" fill="#024275"/>
<rect x="286.291" y="277.715" width="70" height="25" rx="12.5" transform="rotate(-2.46034 286.291 277.715)" fill="#14F0F0"/>
<rect x="431.969" y="268.031" width="70" height="25" rx="12.5" transform="rotate(-2.46034 431.969 268.031)" fill="#14F0F0"/>
<rect width="65" height="107.185" rx="32.5" transform="matrix(0.0214361 0.99977 0.99977 -0.0214361 219.852 486.629)" fill="#8EDCF5"/>
<rect width="65" height="107.185" rx="32.5" transform="matrix(0.0214361 0.99977 0.99977 -0.0214361 456.852 486.629)" fill="#8EDCF5"/>
<path d="M1083.14 214.005C1090.29 197.376 1082.61 178.096 1065.98 170.944V170.944C1049.35 163.791 1030.07 171.474 1022.92 188.104L985.949 274.056C978.796 290.686 986.479 309.965 1003.11 317.118V317.118C1019.74 324.27 1039.02 316.587 1046.17 299.958L1083.14 214.005Z" fill="#745390"/>
<path d="M874.37 180.239C871.124 162.429 854.055 150.623 836.246 153.869V153.869C818.436 157.115 806.63 174.184 809.876 191.993L826.653 284.042C829.899 301.851 846.968 313.657 864.777 310.411V310.411C882.586 307.166 894.392 290.097 891.146 272.288L874.37 180.239Z" fill="#745390"/>
<rect width="361" height="346" rx="90" transform="matrix(-0.999078 -0.0429278 -0.0429278 0.999078 1112.88 214.297)" fill="#745390"/>
<rect width="255" height="134" rx="20" transform="matrix(-0.999078 -0.0429278 -0.0429278 0.999078 1053.39 347.855)" fill="#C09ECC"/>
<rect width="29" height="25" transform="matrix(-0.999078 -0.0429278 -0.0429278 0.999078 977.023 340.406)" fill="#745390"/>
<rect width="29" height="25" transform="matrix(-0.999078 -0.0429278 -0.0429278 0.999078 890.215 334.637)" fill="#745390"/>
<circle r="25" transform="matrix(-0.999078 -0.0429278 -0.0429278 0.999078 980.135 406.376)" fill="#604899"/>
<path d="M839.158 400.303C838.566 414.098 849.268 425.761 863.062 426.353C876.857 426.946 888.52 416.244 889.112 402.45C889.705 388.655 879.003 376.992 865.209 376.399C851.414 375.807 839.751 386.509 839.158 400.303Z" fill="#604899"/>
<rect width="70" height="25" rx="12.5" transform="matrix(-0.999078 -0.0429278 -0.0429278 0.999078 1036.04 281.711)" fill="#F014C0"/>
<rect width="70" height="25" rx="12.5" transform="matrix(-0.999078 -0.0429278 -0.0429278 0.999078 890.361 272.031)" fill="#F014C0"/>
<rect x="1102.48" y="490.625" width="65" height="107.185" rx="32.5" transform="rotate(91.2283 1102.48 490.625)" fill="#C09ECC"/>
<rect x="865.479" y="490.625" width="65" height="107.185" rx="32.5" transform="rotate(91.2283 865.479 490.625)" fill="#C09ECC"/>
<mask id="mask0_293_676" style="mask-type:alpha" maskUnits="userSpaceOnUse" x="0" y="195" width="154" height="165">
<rect x="3.2793" y="195" width="150.002" height="161.996" transform="rotate(1.16005 3.2793 195)" fill="#D9D9D9"/>
</mask>
<g mask="url(#mask0_293_676)">
<path d="M122.77 252.274L116.395 235.267L100.305 227.177L116.705 219.914L123.747 204.023L130.14 220.186L146.234 228.107L129.83 235.539L122.77 252.274ZM120.738 352.658L114.348 336.325L98.2551 328.404L114.656 321.141L121.718 304.237L128.091 321.413L144.184 329.334L127.783 336.597L120.738 352.658ZM52.6833 325.287L38.9841 291.76L7.89135 275.94L39.599 261.392L54.6408 228.615L68.4997 261.977L99.4362 277.794L67.8848 292.345L52.6833 325.287Z" fill="#C396D2"/>
</g>
<mask id="mask1_293_676" style="mask-type:alpha" maskUnits="userSpaceOnUse" x="1075" y="30" width="154" height="165">
<rect x="1078.28" y="30" width="150.002" height="161.996" transform="rotate(1.16005 1078.28 30)" fill="#D9D9D9"/>
</mask>
<g mask="url(#mask1_293_676)">
<path d="M1197.77 87.2741L1191.39 70.267L1175.3 62.1772L1191.71 54.9142L1198.75 39.0226L1205.14 55.1862L1221.23 63.1073L1204.83 70.539L1197.77 87.2741ZM1195.74 187.658L1189.35 171.325L1173.26 163.404L1189.66 156.141L1196.72 139.237L1203.09 156.413L1219.18 164.334L1202.78 171.597L1195.74 187.658ZM1127.68 160.287L1113.98 126.76L1082.89 110.94L1114.6 96.3919L1129.64 63.6155L1143.5 96.9772L1174.44 112.794L1142.88 127.345L1127.68 160.287Z" fill="#C396D2"/>
</g>
<mask id="mask2_293_676" style="mask-type:alpha" maskUnits="userSpaceOnUse" x="59" y="23" width="154" height="165">
<rect x="62.2793" y="23" width="150.002" height="161.996" transform="rotate(1.16005 62.2793 23)" fill="#D9D9D9"/>
</mask>
<g mask="url(#mask2_293_676)">
<path d="M181.77 80.2741L175.395 63.267L159.305 55.1772L175.705 47.9142L182.747 32.0226L189.14 48.1862L205.234 56.1073L188.83 63.539L181.77 80.2741ZM179.738 180.658L173.348 164.325L157.255 156.404L173.656 149.141L180.718 132.237L187.091 149.413L203.184 157.334L186.783 164.597L179.738 180.658ZM111.683 153.287L97.9841 119.76L66.8914 103.94L98.599 89.3919L113.641 56.6155L127.5 89.9772L158.436 105.794L126.885 120.345L111.683 153.287Z" fill="#14F0F0"/>
</g>
<mask id="mask3_293_676" style="mask-type:alpha" maskUnits="userSpaceOnUse" x="1148" y="191" width="154" height="165">
<rect x="1151.28" y="191" width="150.002" height="161.996" transform="rotate(1.16005 1151.28 191)" fill="#D9D9D9"/>
</mask>
<g mask="url(#mask3_293_676)">
<path d="M1270.77 248.274L1264.39 231.267L1248.3 223.177L1264.71 215.914L1271.75 200.023L1278.14 216.186L1294.23 224.107L1277.83 231.539L1270.77 248.274ZM1268.74 348.658L1262.35 332.325L1246.26 324.404L1262.66 317.141L1269.72 300.237L1276.09 317.413L1292.18 325.334L1275.78 332.597L1268.74 348.658ZM1200.68 321.287L1186.98 287.76L1155.89 271.94L1187.6 257.392L1202.64 224.615L1216.5 257.977L1247.44 273.794L1215.88 288.345L1200.68 321.287Z" fill="#14F0F0"/>
</g>
</svg>
