<svg width="1932" height="813" viewBox="0 0 1932 813" fill="none" xmlns="http://www.w3.org/2000/svg">
<path d="M178.975 491.5C150.975 491.5 126.391 484.667 105.225 471C84.2246 457.333 67.8913 439 56.2246 416C44.5579 392.833 38.7246 367.167 38.7246 339V135H99.7246V339C99.7246 355.667 102.808 371 108.975 385C115.308 398.833 124.308 409.917 135.975 418.25C147.808 426.417 162.141 430.5 178.975 430.5C195.975 430.5 210.308 426.417 221.975 418.25C233.641 409.917 242.475 398.833 248.475 385C254.641 371 257.725 355.667 257.725 339V135H318.725V339C318.725 360.167 315.391 380 308.725 398.5C302.058 416.833 292.558 433 280.225 447C267.891 461 253.141 471.917 235.975 479.75C218.975 487.583 199.975 491.5 178.975 491.5ZM371.006 485L370.756 235H431.756L432.006 257.25C440.506 248.25 450.673 241.167 462.506 236C474.339 230.667 487.089 228 500.756 228C509.923 228 519.089 229.333 528.256 232L504.256 293.5C497.923 291 491.589 289.75 485.256 289.75C475.423 289.75 466.423 292.167 458.256 297C450.256 301.667 443.839 308.083 439.006 316.25C434.339 324.25 432.006 333.167 432.006 343V485H371.006ZM689.303 228C713.636 228 735.803 233.917 755.803 245.75C775.803 257.583 791.719 273.5 803.553 293.5C815.386 313.333 821.303 335.333 821.303 359.5C821.303 377.667 817.886 394.75 811.053 410.75C804.219 426.75 794.719 440.833 782.553 453C770.553 465 756.553 474.417 740.553 481.25C724.719 488.083 707.636 491.5 689.303 491.5C673.636 491.5 659.719 488 647.553 481C635.553 473.833 625.469 464.583 617.303 453.25V485H556.303V110H617.303V266.25C625.469 254.917 635.553 245.75 647.553 238.75C659.719 231.583 673.636 228 689.303 228ZM688.553 432.5C701.553 432.5 713.303 429.25 723.803 422.75C734.469 416.083 742.969 407.25 749.303 396.25C755.636 385.25 758.803 373 758.803 359.5C758.803 346.167 755.636 334 749.303 323C742.969 311.833 734.469 303 723.803 296.5C713.136 290 701.386 286.75 688.553 286.75C675.886 286.75 664.553 290.083 654.553 296.75C644.553 303.25 636.719 312.083 631.053 323.25C625.386 334.25 622.553 346.333 622.553 359.5C622.553 373 625.386 385.333 631.053 396.5C636.719 407.5 644.553 416.25 654.553 422.75C664.553 429.25 675.886 432.5 688.553 432.5ZM1049.98 235H1110.98V485H1049.98L1047.23 454C1040.4 465.167 1031.31 474.25 1019.98 481.25C1008.81 488.083 995.562 491.5 980.229 491.5C961.729 491.5 944.395 488 928.229 481C912.062 474 897.812 464.333 885.479 452C873.312 439.667 863.729 425.417 856.729 409.25C849.895 393.083 846.479 375.75 846.479 357.25C846.479 339.417 849.729 322.667 856.229 307C862.895 291.333 872.145 277.583 883.979 265.75C895.812 253.917 909.479 244.667 924.979 238C940.479 231.333 957.145 228 974.979 228C991.479 228 1006.23 231.667 1019.23 239C1032.4 246.333 1043.56 255.667 1052.73 267L1049.98 235ZM978.729 432.75C991.729 432.75 1003.23 429.5 1013.23 423C1023.23 416.5 1031.06 407.75 1036.73 396.75C1042.4 385.583 1045.23 373.333 1045.23 360C1045.23 346.5 1042.4 334.25 1036.73 323.25C1031.06 312.083 1023.15 303.25 1012.98 296.75C1002.98 290.25 991.562 287 978.729 287C965.895 287 954.145 290.333 943.479 297C932.979 303.5 924.562 312.25 918.229 323.25C912.062 334.25 908.979 346.5 908.979 360C908.979 373.5 912.145 385.75 918.479 396.75C924.812 407.75 933.229 416.5 943.729 423C954.395 429.5 966.062 432.75 978.729 432.75ZM1389.79 327V485H1328.79V343C1328.79 333.167 1326.38 324.25 1321.54 316.25C1316.71 308.083 1310.21 301.667 1302.04 297C1294.04 292.167 1285.13 289.75 1275.29 289.75C1265.46 289.75 1256.46 292.167 1248.29 297C1240.29 301.667 1233.88 308.083 1229.04 316.25C1224.38 324.25 1222.04 333.167 1222.04 343V485H1161.04L1160.79 235H1221.79L1222.04 257.25C1230.54 248.25 1240.71 241.167 1252.54 236C1264.38 230.667 1277.13 228 1290.79 228C1308.96 228 1325.54 232.5 1340.54 241.5C1355.54 250.333 1367.46 262.25 1376.29 277.25C1385.29 292.083 1389.79 308.667 1389.79 327ZM1439.6 235H1500.6V485H1439.6V235ZM1470.6 202.75C1461.6 202.75 1454.02 199.833 1447.85 194C1441.69 188 1438.6 180.5 1438.6 171.5C1438.6 162.667 1441.69 155.25 1447.85 149.25C1454.02 143.25 1461.52 140.25 1470.35 140.25C1479.19 140.25 1486.6 143.25 1492.6 149.25C1498.77 155.25 1501.85 162.667 1501.85 171.5C1501.85 180.5 1498.85 188 1492.85 194C1486.85 199.833 1479.44 202.75 1470.6 202.75ZM1630.54 489.5C1617.54 488.667 1604.96 486.083 1592.79 481.75C1580.79 477.25 1570.12 471.167 1560.79 463.5C1551.46 455.833 1544.29 446.667 1539.29 436L1590.79 414C1592.79 417.333 1596.04 420.917 1600.54 424.75C1605.04 428.417 1610.37 431.5 1616.54 434C1622.87 436.5 1629.79 437.75 1637.29 437.75C1643.62 437.75 1649.62 436.917 1655.29 435.25C1661.12 433.417 1665.79 430.667 1669.29 427C1672.96 423.333 1674.79 418.583 1674.79 412.75C1674.79 406.583 1672.62 401.833 1668.29 398.5C1664.12 395 1658.79 392.417 1652.29 390.75C1645.96 388.917 1639.79 387.25 1633.79 385.75C1617.96 382.583 1603.21 377.667 1589.54 371C1576.04 364.333 1565.12 355.75 1556.79 345.25C1548.62 334.583 1544.54 321.75 1544.54 306.75C1544.54 290.25 1548.87 276 1557.54 264C1566.37 252 1577.79 242.75 1591.79 236.25C1605.96 229.75 1621.21 226.5 1637.54 226.5C1657.37 226.5 1675.54 230.667 1692.04 239C1708.71 247.167 1721.87 258.75 1731.54 273.75L1683.29 302.25C1680.96 298.25 1677.71 294.583 1673.54 291.25C1669.37 287.75 1664.62 284.917 1659.29 282.75C1653.96 280.417 1648.37 279.083 1642.54 278.75C1635.04 278.417 1628.21 279.083 1622.04 280.75C1615.87 282.417 1610.87 285.25 1607.04 289.25C1603.37 293.25 1601.54 298.583 1601.54 305.25C1601.54 311.583 1604.04 316.333 1609.04 319.5C1614.04 322.5 1620.04 324.833 1627.04 326.5C1634.21 328.167 1641.04 330 1647.54 332C1662.21 336.833 1675.96 342.75 1688.79 349.75C1701.79 356.75 1712.21 365.333 1720.04 375.5C1727.87 385.667 1731.62 397.833 1731.29 412C1731.29 428.167 1726.46 442.333 1716.79 454.5C1707.12 466.5 1694.62 475.667 1679.29 482C1664.12 488.333 1647.87 490.833 1630.54 489.5ZM1908.08 296H1859.58V485H1798.58V296H1761.58V235H1798.58V156.5H1859.58V235H1908.08V296Z" fill="#1C2135"/>
<path d="M45.3574 769V664H53.4574V760.9H103.107V769H45.3574ZM119.625 694H127.725V769H119.625V694ZM123.75 679.825C122.35 679.825 121.15 679.375 120.15 678.475C119.2 677.525 118.725 676.35 118.725 674.95C118.725 673.55 119.2 672.4 120.15 671.5C121.15 670.55 122.35 670.075 123.75 670.075C125.1 670.075 126.25 670.55 127.2 671.5C128.2 672.4 128.7 673.55 128.7 674.95C128.7 676.35 128.225 677.525 127.275 678.475C126.325 679.375 125.15 679.825 123.75 679.825ZM206.085 694H214.185V772.15C214.185 776.8 213.16 781.175 211.11 785.275C209.11 789.425 206.385 793.075 202.935 796.225C199.485 799.425 195.56 801.925 191.16 803.725C186.81 805.575 182.31 806.5 177.66 806.5C172.46 806.5 167.435 805.275 162.585 802.825C157.735 800.425 153.535 797.2 149.985 793.15C146.485 789.1 144.06 784.675 142.71 779.875L150.21 776.425C151.11 780.475 152.96 784.15 155.76 787.45C158.56 790.8 161.885 793.45 165.735 795.4C169.635 797.35 173.61 798.325 177.66 798.325C181.26 798.325 184.76 797.625 188.16 796.225C191.56 794.825 194.61 792.9 197.31 790.45C200.01 788.05 202.135 785.275 203.685 782.125C205.285 778.975 206.085 775.65 206.085 772.15V753.775C203.435 758.875 199.76 763.025 195.06 766.225C190.36 769.375 184.885 770.95 178.635 770.95C173.435 770.95 168.535 769.925 163.935 767.875C159.335 765.825 155.31 763 151.86 759.4C148.41 755.75 145.685 751.55 143.685 746.8C141.735 742.05 140.76 736.95 140.76 731.5C140.76 726.05 141.735 720.95 143.685 716.2C145.685 711.4 148.41 707.2 151.86 703.6C155.31 699.95 159.335 697.1 163.935 695.05C168.535 693 173.435 691.975 178.635 691.975C184.885 691.975 190.36 693.55 195.06 696.7C199.76 699.8 203.435 703.95 206.085 709.15V694ZM178.71 763C184.31 763 189.11 761.55 193.11 758.65C197.16 755.75 200.26 751.9 202.41 747.1C204.61 742.3 205.71 737.1 205.71 731.5C205.71 725.75 204.61 720.5 202.41 715.75C200.21 710.95 197.085 707.1 193.035 704.2C188.985 701.3 184.21 699.85 178.71 699.85C173.21 699.85 168.21 701.275 163.71 704.125C159.21 706.975 155.635 710.8 152.985 715.6C150.335 720.4 149.01 725.7 149.01 731.5C149.01 737.35 150.36 742.65 153.06 747.4C155.76 752.15 159.36 755.95 163.86 758.8C168.36 761.6 173.31 763 178.71 763ZM296.475 722.875V769H288.375V724.15C288.375 719.7 287.3 715.65 285.15 712C283 708.35 280.1 705.45 276.45 703.3C272.8 701.15 268.75 700.075 264.3 700.075C259.9 700.075 255.875 701.15 252.225 703.3C248.575 705.45 245.65 708.35 243.45 712C241.3 715.65 240.225 719.7 240.225 724.15V769H232.125V656.5H240.225V705.475C242.925 701.325 246.5 698.025 250.95 695.575C255.4 693.125 260.25 691.9 265.5 691.9C271.25 691.9 276.45 693.3 281.1 696.1C285.8 698.85 289.525 702.575 292.275 707.275C295.075 711.975 296.475 717.175 296.475 722.875ZM349.245 702.1H330.27L330.195 769H322.095L322.17 702.1H307.845V694H322.17L322.095 670.45H330.195L330.27 694H349.245V702.1Z" fill="#1C2135"/>
<path d="M753.77 769V664H789.395C794.995 664 800.045 665.375 804.545 668.125C809.045 670.825 812.62 674.5 815.27 679.15C817.92 683.75 819.245 688.925 819.245 694.675C819.245 699.825 818.195 704.5 816.095 708.7C813.995 712.9 811.12 716.375 807.47 719.125C803.87 721.875 799.795 723.7 795.245 724.6L820.895 769H808.745L783.47 725.425H764.27V769H753.77ZM764.27 714.925H788.495C792.195 714.925 795.57 714.025 798.62 712.225C801.72 710.375 804.17 707.9 805.97 704.8C807.82 701.65 808.745 698.1 808.745 694.15C808.745 690.2 807.82 686.675 805.97 683.575C804.17 680.425 801.72 677.95 798.62 676.15C795.57 674.3 792.195 673.375 788.495 673.375H764.27V714.925ZM867.629 770.95C860.729 770.95 854.429 769.175 848.729 765.625C843.079 762.075 838.554 757.325 835.154 751.375C831.804 745.375 830.129 738.75 830.129 731.5C830.129 726 831.104 720.875 833.054 716.125C835.004 711.325 837.679 707.125 841.079 703.525C844.529 699.875 848.529 697.025 853.079 694.975C857.629 692.925 862.479 691.9 867.629 691.9C873.179 691.9 878.279 693 882.929 695.2C887.629 697.4 891.654 700.475 895.004 704.425C898.404 708.375 900.954 713 902.654 718.3C904.404 723.6 905.129 729.325 904.829 735.475H841.229C841.829 740.225 843.329 744.475 845.729 748.225C848.179 751.975 851.279 754.95 855.029 757.15C858.829 759.3 863.029 760.4 867.629 760.45C872.629 760.45 877.129 759.15 881.129 756.55C885.179 753.95 888.429 750.375 890.879 745.825L901.529 748.3C898.529 754.95 894.004 760.4 887.954 764.65C881.904 768.85 875.129 770.95 867.629 770.95ZM840.929 727H894.254C893.904 722.35 892.479 718.1 889.979 714.25C887.529 710.35 884.354 707.25 880.454 704.95C876.554 702.6 872.279 701.425 867.629 701.425C862.979 701.425 858.729 702.575 854.879 704.875C851.029 707.125 847.879 710.2 845.429 714.1C842.979 717.95 841.479 722.25 840.929 727ZM976.578 694H987.078V771.775C987.078 776.575 986.028 781.075 983.928 785.275C981.878 789.475 979.078 793.15 975.528 796.3C972.028 799.5 968.028 802 963.528 803.8C959.028 805.6 954.353 806.5 949.503 806.5C944.303 806.5 939.278 805.3 934.428 802.9C929.578 800.55 925.353 797.4 921.753 793.45C918.203 789.5 915.678 785.125 914.178 780.325L923.853 775.9C924.803 779.65 926.578 783.025 929.178 786.025C931.828 789.075 934.928 791.475 938.478 793.225C942.078 795.025 945.753 795.925 949.503 795.925C952.953 795.925 956.278 795.275 959.478 793.975C962.728 792.725 965.628 791 968.178 788.8C970.778 786.6 972.828 784.025 974.328 781.075C975.828 778.175 976.578 775.075 976.578 771.775V755.2C973.978 759.9 970.453 763.7 966.003 766.6C961.603 769.5 956.478 770.95 950.628 770.95C945.378 770.95 940.428 769.925 935.778 767.875C931.178 765.825 927.128 763 923.628 759.4C920.128 755.75 917.378 751.55 915.378 746.8C913.428 742.05 912.453 736.95 912.453 731.5C912.453 726.05 913.428 720.95 915.378 716.2C917.378 711.4 920.128 707.2 923.628 703.6C927.128 699.95 931.178 697.1 935.778 695.05C940.428 693 945.378 691.975 950.628 691.975C956.478 691.975 961.603 693.425 966.003 696.325C970.453 699.175 973.978 702.975 976.578 707.725V694ZM950.703 760.75C955.903 760.75 960.378 759.4 964.128 756.7C967.928 754 970.853 750.425 972.903 745.975C974.953 741.525 975.978 736.7 975.978 731.5C975.978 726.15 974.928 721.275 972.828 716.875C970.778 712.425 967.853 708.875 964.053 706.225C960.253 703.525 955.803 702.175 950.703 702.175C945.603 702.175 940.953 703.5 936.753 706.15C932.603 708.75 929.303 712.275 926.853 716.725C924.403 721.175 923.178 726.1 923.178 731.5C923.178 736.9 924.428 741.825 926.928 746.275C929.428 750.675 932.753 754.2 936.903 756.85C941.103 759.45 945.703 760.75 950.703 760.75ZM1001.11 740.275V694H1011.61V738.175C1011.61 742.275 1012.61 746 1014.61 749.35C1016.61 752.7 1019.29 755.375 1022.64 757.375C1026.04 759.375 1029.76 760.375 1033.81 760.375C1037.91 760.375 1041.61 759.375 1044.91 757.375C1048.26 755.375 1050.94 752.7 1052.94 749.35C1054.94 746 1055.94 742.275 1055.94 738.175V694H1066.44L1066.51 769H1056.01L1055.94 758.5C1053.29 762.3 1049.84 765.325 1045.59 767.575C1041.39 769.825 1036.79 770.95 1031.79 770.95C1026.14 770.95 1020.99 769.575 1016.34 766.825C1011.69 764.075 1007.99 760.375 1005.24 755.725C1002.49 751.075 1001.11 745.925 1001.11 740.275ZM1082.48 769V656.5H1092.98V769H1082.48ZM1172.11 694H1182.61V769H1172.11L1171.73 755.05C1169.28 759.8 1165.86 763.65 1161.46 766.6C1157.06 769.5 1151.81 770.95 1145.71 770.95C1140.21 770.95 1135.06 769.925 1130.26 767.875C1125.46 765.775 1121.23 762.9 1117.58 759.25C1113.93 755.6 1111.08 751.375 1109.03 746.575C1106.98 741.775 1105.96 736.625 1105.96 731.125C1105.96 725.725 1106.96 720.65 1108.96 715.9C1111.01 711.15 1113.81 706.975 1117.36 703.375C1120.96 699.775 1125.11 696.975 1129.81 694.975C1134.56 692.925 1139.63 691.9 1145.03 691.9C1151.28 691.9 1156.73 693.4 1161.38 696.4C1166.03 699.35 1169.73 703.225 1172.48 708.025L1172.11 694ZM1145.48 760.75C1150.83 760.75 1155.43 759.45 1159.28 756.85C1163.13 754.2 1166.08 750.65 1168.13 746.2C1170.23 741.75 1171.28 736.85 1171.28 731.5C1171.28 726 1170.23 721.05 1168.13 716.65C1166.03 712.2 1163.06 708.675 1159.21 706.075C1155.36 703.475 1150.78 702.175 1145.48 702.175C1140.18 702.175 1135.33 703.5 1130.93 706.15C1126.58 708.75 1123.11 712.275 1120.51 716.725C1117.96 721.175 1116.68 726.1 1116.68 731.5C1116.68 736.95 1118.01 741.9 1120.66 746.35C1123.31 750.75 1126.81 754.25 1131.16 756.85C1135.56 759.45 1140.33 760.75 1145.48 760.75ZM1197.62 769V694H1208.12V704.35C1210.77 700.55 1214.22 697.525 1218.47 695.275C1222.72 693.025 1227.34 691.9 1232.34 691.9C1235.24 691.9 1238.04 692.275 1240.74 693.025L1236.47 703.45C1234.37 702.8 1232.32 702.475 1230.32 702.475C1226.27 702.475 1222.54 703.475 1219.14 705.475C1215.79 707.475 1213.12 710.15 1211.12 713.5C1209.12 716.85 1208.12 720.575 1208.12 724.675V769H1197.62Z" fill="#1C2135"/>
<path d="M1619.87 769V664H1658.12C1663.67 664 1668.67 665.15 1673.12 667.45C1677.62 669.7 1681.17 672.95 1683.77 677.2C1686.42 681.4 1687.74 686.375 1687.74 692.125C1687.74 694.675 1687.37 697.25 1686.62 699.85C1685.87 702.45 1684.72 704.8 1683.17 706.9C1681.62 708.95 1679.62 710.475 1677.17 711.475C1680.42 712.275 1683.07 713.725 1685.12 715.825C1687.17 717.925 1688.77 720.4 1689.92 723.25C1691.07 726.05 1691.84 728.925 1692.24 731.875C1692.69 734.775 1692.92 737.475 1692.92 739.975C1692.92 745.525 1691.54 750.475 1688.79 754.825C1686.04 759.175 1682.34 762.625 1677.69 765.175C1673.09 767.725 1667.99 769 1662.39 769H1619.87ZM1638.17 753.325H1660.52C1663.52 753.325 1666.22 752.6 1668.62 751.15C1671.02 749.7 1672.94 747.7 1674.39 745.15C1675.84 742.6 1676.57 739.7 1676.57 736.45C1676.57 733.65 1675.84 731 1674.39 728.5C1672.94 726 1671.02 723.975 1668.62 722.425C1666.22 720.875 1663.52 720.1 1660.52 720.1H1638.17V753.325ZM1638.17 704.65H1656.02C1659.72 704.65 1662.87 703.5 1665.47 701.2C1668.12 698.9 1669.44 695.85 1669.44 692.05C1669.44 688 1668.12 684.95 1665.47 682.9C1662.87 680.8 1659.72 679.75 1656.02 679.75H1638.17V704.65ZM1736.95 770.95C1730.05 770.95 1723.75 769.175 1718.05 765.625C1712.4 762.075 1707.88 757.325 1704.48 751.375C1701.13 745.375 1699.45 738.75 1699.45 731.5C1699.45 726 1700.43 720.875 1702.38 716.125C1704.33 711.325 1707 707.125 1710.4 703.525C1713.85 699.875 1717.85 697.025 1722.4 694.975C1726.95 692.925 1731.8 691.9 1736.95 691.9C1743.85 691.9 1750.13 693.675 1755.78 697.225C1761.48 700.775 1766 705.55 1769.35 711.55C1772.75 717.55 1774.45 724.2 1774.45 731.5C1774.45 736.95 1773.48 742.05 1771.53 746.8C1769.58 751.55 1766.88 755.75 1763.43 759.4C1760.03 763 1756.05 765.825 1751.5 767.875C1747 769.925 1742.15 770.95 1736.95 770.95ZM1736.95 752.65C1740.6 752.65 1743.88 751.675 1746.78 749.725C1749.68 747.775 1751.95 745.2 1753.6 742C1755.3 738.8 1756.15 735.3 1756.15 731.5C1756.15 727.6 1755.28 724.05 1753.53 720.85C1751.83 717.6 1749.5 715.025 1746.55 713.125C1743.65 711.175 1740.45 710.2 1736.95 710.2C1733.35 710.2 1730.1 711.175 1727.2 713.125C1724.3 715.075 1722 717.675 1720.3 720.925C1718.6 724.175 1717.75 727.7 1717.75 731.5C1717.75 735.45 1718.63 739.025 1720.38 742.225C1722.13 745.425 1724.45 747.975 1727.35 749.875C1730.3 751.725 1733.5 752.65 1736.95 752.65ZM1784.96 769V656.5H1803.26V769H1784.96ZM1876.81 656.5H1895.11V769H1876.81V759.625C1874.41 762.975 1871.39 765.7 1867.74 767.8C1864.09 769.9 1859.86 770.95 1855.06 770.95C1849.61 770.95 1844.51 769.925 1839.76 767.875C1835.01 765.825 1830.81 763 1827.16 759.4C1823.56 755.75 1820.74 751.55 1818.69 746.8C1816.64 742.05 1815.61 736.95 1815.61 731.5C1815.61 726.05 1816.64 720.95 1818.69 716.2C1820.74 711.45 1823.56 707.275 1827.16 703.675C1830.81 700.025 1835.01 697.175 1839.76 695.125C1844.51 693.075 1849.61 692.05 1855.06 692.05C1859.86 692.05 1864.09 693.1 1867.74 695.2C1871.39 697.25 1874.41 699.975 1876.81 703.375V656.5ZM1855.29 753.325C1859.19 753.325 1862.64 752.35 1865.64 750.4C1868.64 748.45 1870.99 745.825 1872.69 742.525C1874.39 739.175 1875.24 735.5 1875.24 731.5C1875.24 727.45 1874.39 723.775 1872.69 720.475C1870.99 717.125 1868.61 714.475 1865.56 712.525C1862.56 710.575 1859.14 709.6 1855.29 709.6C1851.44 709.6 1847.91 710.6 1844.71 712.6C1841.56 714.55 1839.04 717.175 1837.14 720.475C1835.29 723.775 1834.36 727.45 1834.36 731.5C1834.36 735.55 1835.31 739.225 1837.21 742.525C1839.11 745.825 1841.64 748.45 1844.79 750.4C1847.99 752.35 1851.49 753.325 1855.29 753.325Z" fill="#1C2135"/>
</svg>
