<svg width="9165" height="1073" viewBox="0 0 9165 1073" fill="none" xmlns="http://www.w3.org/2000/svg">
<rect width="1833" height="755" fill="#131B25"/>
<rect x="1833" width="1833" height="755" fill="#001A45"/>
<rect x="3666" width="1833" height="755" fill="#91C2D2"/>
<rect x="5499" width="1833" height="755" fill="#CEDEE5"/>
<rect x="7332" width="1833" height="755" fill="white"/>
<path d="M689.857 948.2H673.257L663.557 983.7H680.457L674.057 1007.3H657.457L649.657 1036H625.257L633.057 1007.3H596.057L588.457 1036H564.057L571.657 1007.3H554.957L561.357 983.7H577.957L587.657 948.2H570.757L577.157 924.7H593.857L601.557 896H625.957L618.257 924.7H655.157L662.757 896H687.157L679.557 924.7H696.257L689.857 948.2ZM639.157 983.7L648.857 948.2H612.057L602.357 983.7H639.157ZM729.784 1036V920.4H712.184L718.784 896H754.184V1036H729.784ZM821.299 1038.6C812.833 1038.6 805.199 1036.6 798.399 1032.6C791.599 1028.6 786.199 1023.23 782.199 1016.5C778.199 1009.7 776.199 1002.17 776.199 993.9H800.599C800.599 997.633 801.466 1001.03 803.199 1004.1C804.999 1007.17 807.466 1009.63 810.599 1011.5C813.733 1013.3 817.299 1014.2 821.299 1014.2C824.966 1014.2 828.366 1013.3 831.499 1011.5C834.699 1009.63 837.266 1007.17 839.199 1004.1C841.133 1001.03 842.099 997.633 842.099 993.9C842.099 989.033 840.799 985 838.199 981.8C835.599 978.533 831.966 976.1 827.299 974.5C822.699 972.9 817.333 972.1 811.199 972.1V953.3C819.466 953.3 825.999 951.733 830.799 948.6C835.666 945.467 838.099 940.867 838.099 934.8C838.099 931.667 837.299 928.8 835.699 926.2C834.099 923.6 831.966 921.533 829.299 920C826.699 918.4 823.833 917.6 820.699 917.6C817.499 917.6 814.399 918.4 811.399 920C808.399 921.533 805.933 923.6 803.999 926.2C802.133 928.8 801.199 931.667 801.199 934.8H776.799C776.799 929.067 777.966 923.7 780.299 918.7C782.633 913.633 785.833 909.2 789.899 905.4C794.033 901.6 798.699 898.633 803.899 896.5C809.166 894.3 814.666 893.2 820.399 893.2C827.933 893.2 834.899 895.067 841.299 898.8C847.699 902.533 852.833 907.533 856.699 913.8C860.566 920.067 862.499 927.067 862.499 934.8C862.499 940.2 861.233 945.5 858.699 950.7C856.166 955.9 852.566 959.567 847.899 961.7C851.966 963.167 855.366 965.633 858.099 969.1C860.833 972.5 862.899 976.4 864.299 980.8C865.766 985.133 866.499 989.5 866.499 993.9C866.499 1002.1 864.433 1009.6 860.299 1016.4C856.166 1023.13 850.666 1028.53 843.799 1032.6C836.999 1036.6 829.499 1038.6 821.299 1038.6ZM898.143 1036V920.4H880.543L887.143 896H922.543V1036H898.143ZM950.559 1036V896H1001.56C1008.96 896 1015.63 897.533 1021.56 900.6C1027.56 903.6 1032.29 907.933 1035.76 913.6C1039.29 919.2 1041.06 925.833 1041.06 933.5C1041.06 936.9 1040.56 940.333 1039.56 943.8C1038.56 947.267 1037.03 950.4 1034.96 953.2C1032.89 955.933 1030.23 957.967 1026.96 959.3C1031.29 960.367 1034.83 962.3 1037.56 965.1C1040.29 967.9 1042.43 971.2 1043.96 975C1045.49 978.733 1046.53 982.567 1047.06 986.5C1047.66 990.367 1047.96 993.967 1047.96 997.3C1047.96 1004.7 1046.13 1011.3 1042.46 1017.1C1038.79 1022.9 1033.86 1027.5 1027.66 1030.9C1021.53 1034.3 1014.73 1036 1007.26 1036H950.559ZM974.959 1015.1H1004.76C1008.76 1015.1 1012.36 1014.13 1015.56 1012.2C1018.76 1010.27 1021.33 1007.6 1023.26 1004.2C1025.19 1000.8 1026.16 996.933 1026.16 992.6C1026.16 988.867 1025.19 985.333 1023.26 982C1021.33 978.667 1018.76 975.967 1015.56 973.9C1012.36 971.833 1008.76 970.8 1004.76 970.8H974.959V1015.1ZM974.959 950.2H998.759C1003.69 950.2 1007.89 948.667 1011.36 945.6C1014.89 942.533 1016.66 938.467 1016.66 933.4C1016.66 928 1014.89 923.933 1011.36 921.2C1007.89 918.4 1003.69 917 998.759 917H974.959V950.2ZM1063.94 1036V1014.2C1068.27 1010.93 1073.41 1006.9 1079.34 1002.1C1085.27 997.233 1091.37 992 1097.64 986.4C1103.91 980.733 1109.71 975.067 1115.04 969.4C1120.37 963.733 1124.71 958.333 1128.04 953.2C1131.44 948.067 1133.14 943.667 1133.14 940C1133.14 935.933 1132.14 932.233 1130.14 928.9C1128.14 925.5 1125.47 922.8 1122.14 920.8C1118.87 918.8 1115.21 917.8 1111.14 917.8C1107.07 917.8 1103.37 918.8 1100.04 920.8C1096.71 922.8 1094.04 925.5 1092.04 928.9C1090.04 932.233 1089.04 935.933 1089.04 940H1064.64C1064.64 931.2 1066.77 923.3 1071.04 916.3C1075.31 909.233 1080.94 903.667 1087.94 899.6C1095.01 895.467 1102.74 893.4 1111.14 893.4C1119.67 893.4 1127.44 895.5 1134.44 899.7C1141.44 903.833 1147.04 909.433 1151.24 916.5C1155.44 923.567 1157.54 931.4 1157.54 940C1157.54 944.533 1156.71 949.1 1155.04 953.7C1153.37 958.3 1151.04 962.933 1148.04 967.6C1145.04 972.267 1141.51 977 1137.44 981.8C1133.37 986.533 1128.87 991.4 1123.94 996.4C1119.07 1001.33 1113.94 1006.4 1108.54 1011.6H1158.24V1036H1063.94ZM1225.2 1038.6C1216.2 1038.6 1208.07 1036.43 1200.8 1032.1C1193.53 1027.7 1187.77 1021.87 1183.5 1014.6C1179.3 1007.33 1177.2 999.367 1177.2 990.7H1201.6C1201.6 995.033 1202.67 999 1204.8 1002.6C1206.93 1006.13 1209.77 1008.97 1213.3 1011.1C1216.9 1013.17 1220.87 1014.2 1225.2 1014.2C1229.53 1014.2 1233.47 1013.17 1237 1011.1C1240.53 1008.97 1243.37 1006.13 1245.5 1002.6C1247.63 999 1248.7 995.033 1248.7 990.7C1248.7 986.367 1247.77 982.4 1245.9 978.8C1244.1 975.133 1241.13 972.233 1237 970.1C1232.93 967.9 1227.53 966.8 1220.8 966.8H1184.8L1199.6 896H1268.4V920.4H1219.4L1214.9 942.4L1224.8 942.5C1234.27 942.833 1242.63 945.133 1249.9 949.4C1257.17 953.667 1262.83 959.4 1266.9 966.6C1271.03 973.733 1273.1 981.767 1273.1 990.7C1273.1 997.233 1271.87 1003.4 1269.4 1009.2C1266.93 1015 1263.5 1020.1 1259.1 1024.5C1254.7 1028.9 1249.6 1032.37 1243.8 1034.9C1238.07 1037.37 1231.87 1038.6 1225.2 1038.6Z" fill="black"/>
<path d="M2473.94 948.2H2457.34L2447.64 983.7H2464.54L2458.14 1007.3H2441.54L2433.74 1036H2409.34L2417.14 1007.3H2380.14L2372.54 1036H2348.14L2355.74 1007.3H2339.04L2345.44 983.7H2362.04L2371.74 948.2H2354.84L2361.24 924.7H2377.94L2385.64 896H2410.04L2402.34 924.7H2439.24L2446.84 896H2471.24L2463.64 924.7H2480.34L2473.94 948.2ZM2423.24 983.7L2432.94 948.2H2396.14L2386.44 983.7H2423.24ZM2548.77 1038.6C2540.64 1038.6 2533.24 1036.73 2526.57 1033C2519.9 1029.2 2514.14 1023.97 2509.27 1017.3C2504.47 1010.63 2500.77 1002.93 2498.17 994.2C2495.57 985.4 2494.27 976 2494.27 966C2494.27 956 2495.57 946.633 2498.17 937.9C2500.77 929.1 2504.47 921.367 2509.27 914.7C2514.14 908.033 2519.9 902.833 2526.57 899.1C2533.24 895.3 2540.64 893.4 2548.77 893.4C2556.9 893.4 2564.3 895.3 2570.97 899.1C2577.64 902.833 2583.34 908.033 2588.07 914.7C2592.87 921.367 2596.57 929.1 2599.17 937.9C2601.84 946.633 2603.17 956 2603.17 966C2603.17 976 2601.84 985.4 2599.17 994.2C2596.57 1002.93 2592.87 1010.63 2588.07 1017.3C2583.34 1023.97 2577.64 1029.2 2570.97 1033C2564.3 1036.73 2556.9 1038.6 2548.77 1038.6ZM2548.77 1014.2C2555.9 1014.2 2561.8 1011.93 2566.47 1007.4C2571.14 1002.87 2574.6 996.933 2576.87 989.6C2579.14 982.267 2580.27 974.4 2580.27 966C2580.27 957.133 2579.07 949.067 2576.67 941.8C2574.27 934.467 2570.74 928.633 2566.07 924.3C2561.4 919.967 2555.64 917.8 2548.77 917.8C2543.37 917.8 2538.67 919.133 2534.67 921.8C2530.74 924.4 2527.47 927.967 2524.87 932.5C2522.27 937.033 2520.34 942.2 2519.07 948C2517.8 953.733 2517.17 959.733 2517.17 966C2517.17 974.333 2518.3 982.2 2520.57 989.6C2522.9 996.933 2526.4 1002.87 2531.07 1007.4C2535.8 1011.93 2541.7 1014.2 2548.77 1014.2ZM2665.18 1038.6C2657.04 1038.6 2649.64 1036.73 2642.98 1033C2636.31 1029.2 2630.54 1023.97 2625.68 1017.3C2620.88 1010.63 2617.18 1002.93 2614.58 994.2C2611.98 985.4 2610.68 976 2610.68 966C2610.68 956 2611.98 946.633 2614.58 937.9C2617.18 929.1 2620.88 921.367 2625.68 914.7C2630.54 908.033 2636.31 902.833 2642.98 899.1C2649.64 895.3 2657.04 893.4 2665.18 893.4C2673.31 893.4 2680.71 895.3 2687.38 899.1C2694.04 902.833 2699.74 908.033 2704.48 914.7C2709.28 921.367 2712.98 929.1 2715.58 937.9C2718.24 946.633 2719.58 956 2719.58 966C2719.58 976 2718.24 985.4 2715.58 994.2C2712.98 1002.93 2709.28 1010.63 2704.48 1017.3C2699.74 1023.97 2694.04 1029.2 2687.38 1033C2680.71 1036.73 2673.31 1038.6 2665.18 1038.6ZM2665.18 1014.2C2672.31 1014.2 2678.21 1011.93 2682.88 1007.4C2687.54 1002.87 2691.01 996.933 2693.28 989.6C2695.54 982.267 2696.68 974.4 2696.68 966C2696.68 957.133 2695.48 949.067 2693.08 941.8C2690.68 934.467 2687.14 928.633 2682.48 924.3C2677.81 919.967 2672.04 917.8 2665.18 917.8C2659.78 917.8 2655.08 919.133 2651.08 921.8C2647.14 924.4 2643.88 927.967 2641.28 932.5C2638.68 937.033 2636.74 942.2 2635.48 948C2634.21 953.733 2633.58 959.733 2633.58 966C2633.58 974.333 2634.71 982.2 2636.98 989.6C2639.31 996.933 2642.81 1002.87 2647.48 1007.4C2652.21 1011.93 2658.11 1014.2 2665.18 1014.2ZM2751.17 1036V920.4H2733.57L2740.17 896H2775.57V1036H2751.17ZM2850.39 896H2878.49L2929.39 1036H2903.49L2894.49 1011.2H2834.49L2825.49 1036H2799.59L2850.39 896ZM2843.39 986.8H2885.49L2864.39 929.1L2843.39 986.8ZM3004.89 1036V1002.1H2945.29V977.6L2999.19 896H3029.29V977.7H3041.09V1002.1H3029.29V1036H3004.89ZM2973.59 977.6L3004.89 977.7L3004.79 929.3L2973.59 977.6ZM3108.11 1038.6C3099.11 1038.6 3090.98 1036.43 3083.71 1032.1C3076.45 1027.7 3070.68 1021.87 3066.41 1014.6C3062.21 1007.33 3060.11 999.367 3060.11 990.7H3084.51C3084.51 995.033 3085.58 999 3087.71 1002.6C3089.85 1006.13 3092.68 1008.97 3096.21 1011.1C3099.81 1013.17 3103.78 1014.2 3108.11 1014.2C3112.45 1014.2 3116.38 1013.17 3119.91 1011.1C3123.45 1008.97 3126.28 1006.13 3128.41 1002.6C3130.55 999 3131.61 995.033 3131.61 990.7C3131.61 986.367 3130.68 982.4 3128.81 978.8C3127.01 975.133 3124.05 972.233 3119.91 970.1C3115.85 967.9 3110.45 966.8 3103.71 966.8H3067.71L3082.51 896H3151.31V920.4H3102.31L3097.81 942.4L3107.71 942.5C3117.18 942.833 3125.55 945.133 3132.81 949.4C3140.08 953.667 3145.75 959.4 3149.81 966.6C3153.95 973.733 3156.01 981.767 3156.01 990.7C3156.01 997.233 3154.78 1003.4 3152.31 1009.2C3149.85 1015 3146.41 1020.1 3142.01 1024.5C3137.61 1028.9 3132.51 1032.37 3126.71 1034.9C3120.98 1037.37 3114.78 1038.6 3108.11 1038.6Z" fill="black"/>
<path d="M4306.55 948.2H4289.95L4280.25 983.7H4297.15L4290.75 1007.3H4274.15L4266.35 1036H4241.95L4249.75 1007.3H4212.75L4205.15 1036H4180.75L4188.35 1007.3H4171.65L4178.05 983.7H4194.65L4204.35 948.2H4187.45L4193.85 924.7H4210.55L4218.25 896H4242.65L4234.95 924.7H4271.85L4279.45 896H4303.85L4296.25 924.7H4312.95L4306.55 948.2ZM4255.85 983.7L4265.55 948.2H4228.75L4219.05 983.7H4255.85ZM4349.88 1036L4376.78 989.5C4370.18 989.9 4363.88 989 4357.88 986.8C4351.95 984.6 4346.65 981.333 4341.98 977C4337.31 972.667 4333.61 967.533 4330.88 961.6C4328.21 955.667 4326.88 949.233 4326.88 942.3C4326.88 935.567 4328.15 929.267 4330.68 923.4C4333.21 917.467 4336.71 912.267 4341.18 907.8C4345.71 903.267 4350.91 899.733 4356.78 897.2C4362.71 894.667 4369.08 893.4 4375.88 893.4C4384.75 893.4 4392.85 895.6 4400.18 900C4407.58 904.4 4413.48 910.3 4417.88 917.7C4422.35 925.1 4424.58 933.3 4424.58 942.3C4424.58 946.767 4424.01 951 4422.88 955C4421.81 958.933 4420.11 962.933 4417.78 967L4378.08 1036H4349.88ZM4375.68 966.8C4380.48 966.8 4384.71 965.633 4388.38 963.3C4392.11 960.967 4395.01 957.933 4397.08 954.2C4399.15 950.467 4400.18 946.467 4400.18 942.2C4400.18 937.533 4399.05 933.367 4396.78 929.7C4394.51 925.967 4391.51 923.067 4387.78 921C4384.05 918.867 4380.08 917.8 4375.88 917.8C4371.08 917.8 4366.81 918.967 4363.08 921.3C4359.41 923.567 4356.51 926.567 4354.38 930.3C4352.25 934.033 4351.18 938 4351.18 942.2C4351.18 946.667 4352.25 950.767 4354.38 954.5C4356.58 958.233 4359.51 961.233 4363.18 963.5C4366.91 965.7 4371.08 966.8 4375.68 966.8ZM4456.24 1036V920.4H4438.64L4445.24 896H4480.64V1036H4456.24ZM4573.46 1038.6C4563.99 1038.6 4555.09 1036.73 4546.76 1033C4538.43 1029.2 4531.09 1023.97 4524.76 1017.3C4518.49 1010.63 4513.56 1002.93 4509.96 994.2C4506.43 985.4 4504.66 976 4504.66 966C4504.66 955.933 4506.43 946.533 4509.96 937.8C4513.56 929 4518.49 921.3 4524.76 914.7C4531.09 908.033 4538.43 902.833 4546.76 899.1C4555.09 895.3 4563.99 893.4 4573.46 893.4C4584.79 893.4 4595.23 896.033 4604.76 901.3C4614.29 906.5 4622.19 913.467 4628.46 922.2L4606.66 933.9C4602.73 929.033 4597.83 925.133 4591.96 922.2C4586.16 919.267 4579.99 917.8 4573.46 917.8C4567.33 917.8 4561.56 919.067 4556.16 921.6C4550.76 924.067 4546.03 927.533 4541.96 932C4537.89 936.4 4534.73 941.533 4532.46 947.4C4530.19 953.2 4529.06 959.4 4529.06 966C4529.06 972.667 4530.19 978.9 4532.46 984.7C4534.79 990.5 4537.99 995.633 4542.06 1000.1C4546.13 1004.5 4550.83 1007.97 4556.16 1010.5C4561.56 1012.97 4567.33 1014.2 4573.46 1014.2C4580.13 1014.2 4586.33 1012.73 4592.06 1009.8C4597.86 1006.8 4602.73 1002.87 4606.66 998L4628.46 1009.8C4622.19 1018.47 4614.29 1025.43 4604.76 1030.7C4595.23 1035.97 4584.79 1038.6 4573.46 1038.6ZM4646.46 1036V1014.2C4650.79 1010.93 4655.92 1006.9 4661.86 1002.1C4667.79 997.233 4673.89 992 4680.16 986.4C4686.42 980.733 4692.22 975.067 4697.56 969.4C4702.89 963.733 4707.22 958.333 4710.56 953.2C4713.96 948.067 4715.66 943.667 4715.66 940C4715.66 935.933 4714.66 932.233 4712.66 928.9C4710.66 925.5 4707.99 922.8 4704.66 920.8C4701.39 918.8 4697.72 917.8 4693.66 917.8C4689.59 917.8 4685.89 918.8 4682.56 920.8C4679.22 922.8 4676.56 925.5 4674.56 928.9C4672.56 932.233 4671.56 935.933 4671.56 940H4647.16C4647.16 931.2 4649.29 923.3 4653.56 916.3C4657.82 909.233 4663.46 903.667 4670.46 899.6C4677.52 895.467 4685.26 893.4 4693.66 893.4C4702.19 893.4 4709.96 895.5 4716.96 899.7C4723.96 903.833 4729.56 909.433 4733.76 916.5C4737.96 923.567 4740.06 931.4 4740.06 940C4740.06 944.533 4739.22 949.1 4737.56 953.7C4735.89 958.3 4733.56 962.933 4730.56 967.6C4727.56 972.267 4724.02 977 4719.96 981.8C4715.89 986.533 4711.39 991.4 4706.46 996.4C4701.59 1001.33 4696.46 1006.4 4691.06 1011.6H4740.76V1036H4646.46ZM4764.71 1036V896H4811.11C4820.78 896 4829.81 897.833 4838.21 901.5C4846.68 905.1 4854.11 910.133 4860.51 916.6C4866.98 923 4872.01 930.433 4875.61 938.9C4879.28 947.3 4881.11 956.333 4881.11 966C4881.11 975.667 4879.28 984.733 4875.61 993.2C4872.01 1001.6 4866.98 1009.03 4860.51 1015.5C4854.11 1021.9 4846.68 1026.93 4838.21 1030.6C4829.81 1034.2 4820.78 1036 4811.11 1036H4764.71ZM4789.11 1011.6H4811.11C4817.31 1011.6 4823.15 1010.43 4828.61 1008.1C4834.15 1005.7 4839.01 1002.43 4843.21 998.3C4847.41 994.1 4850.71 989.267 4853.11 983.8C4855.51 978.267 4856.71 972.333 4856.71 966C4856.71 959.667 4855.51 953.767 4853.11 948.3C4850.71 942.833 4847.41 938 4843.21 933.8C4839.01 929.6 4834.18 926.333 4828.71 924C4823.25 921.6 4817.38 920.4 4811.11 920.4H4789.11V1011.6ZM4895.09 1036V1014.2C4899.42 1010.93 4904.56 1006.9 4910.49 1002.1C4916.42 997.233 4922.52 992 4928.79 986.4C4935.06 980.733 4940.86 975.067 4946.19 969.4C4951.52 963.733 4955.86 958.333 4959.19 953.2C4962.59 948.067 4964.29 943.667 4964.29 940C4964.29 935.933 4963.29 932.233 4961.29 928.9C4959.29 925.5 4956.62 922.8 4953.29 920.8C4950.02 918.8 4946.36 917.8 4942.29 917.8C4938.22 917.8 4934.52 918.8 4931.19 920.8C4927.86 922.8 4925.19 925.5 4923.19 928.9C4921.19 932.233 4920.19 935.933 4920.19 940H4895.79C4895.79 931.2 4897.92 923.3 4902.19 916.3C4906.46 909.233 4912.09 903.667 4919.09 899.6C4926.16 895.467 4933.89 893.4 4942.29 893.4C4950.82 893.4 4958.59 895.5 4965.59 899.7C4972.59 903.833 4978.19 909.433 4982.39 916.5C4986.59 923.567 4988.69 931.4 4988.69 940C4988.69 944.533 4987.86 949.1 4986.19 953.7C4984.52 958.3 4982.19 962.933 4979.19 967.6C4976.19 972.267 4972.66 977 4968.59 981.8C4964.52 986.533 4960.02 991.4 4955.09 996.4C4950.22 1001.33 4945.09 1006.4 4939.69 1011.6H4989.39V1036H4895.09Z" fill="black"/>
<path d="M8021.28 911.2H8004.68L7994.98 946.7H8011.88L8005.48 970.3H7988.88L7981.08 999H7956.68L7964.48 970.3H7927.48L7919.88 999H7895.48L7903.08 970.3H7886.38L7892.78 946.7H7909.38L7919.08 911.2H7902.18L7908.58 887.7H7925.28L7932.98 859H7957.38L7949.68 887.7H7986.58L7994.18 859H8018.58L8010.98 887.7H8027.68L8021.28 911.2ZM7970.58 946.7L7980.28 911.2H7943.48L7933.78 946.7H7970.58ZM8047.61 999V859H8130.31V883.4H8072.01V911.8H8120.71V936.2H8072.01V999H8047.61ZM8144.88 999V859H8227.58V883.4H8169.28V911.8H8217.98V936.2H8169.28V999H8144.88ZM8242.14 999V859H8324.84V883.4H8266.54V911.8H8315.24V936.2H8266.54V999H8242.14ZM8339.41 999V859H8422.11V883.4H8363.81V911.8H8412.51V936.2H8363.81V999H8339.41ZM8436.67 999V859H8519.37V883.4H8461.07V911.8H8509.77V936.2H8461.07V999H8436.67ZM8533.94 999V859H8616.64V883.4H8558.34V911.8H8607.04V936.2H8558.34V999H8533.94Z" fill="black"/>
<path d="M6121.49 948.2H6104.89L6095.19 983.7H6112.09L6105.69 1007.3H6089.09L6081.29 1036H6056.89L6064.69 1007.3H6027.69L6020.09 1036H5995.69L6003.29 1007.3H5986.59L5992.99 983.7H6009.59L6019.29 948.2H6002.39L6008.79 924.7H6025.49L6033.19 896H6057.59L6049.89 924.7H6086.79L6094.39 896H6118.79L6111.19 924.7H6127.89L6121.49 948.2ZM6070.79 983.7L6080.49 948.2H6043.69L6033.99 983.7H6070.79ZM6212.61 1038.6C6203.15 1038.6 6194.25 1036.73 6185.91 1033C6177.58 1029.2 6170.25 1023.97 6163.91 1017.3C6157.65 1010.63 6152.71 1002.93 6149.11 994.2C6145.58 985.4 6143.81 976 6143.81 966C6143.81 955.933 6145.58 946.533 6149.11 937.8C6152.71 929 6157.65 921.3 6163.91 914.7C6170.25 908.033 6177.58 902.833 6185.91 899.1C6194.25 895.3 6203.15 893.4 6212.61 893.4C6223.95 893.4 6234.38 896.033 6243.91 901.3C6253.45 906.5 6261.35 913.467 6267.61 922.2L6245.81 933.9C6241.88 929.033 6236.98 925.133 6231.11 922.2C6225.31 919.267 6219.15 917.8 6212.61 917.8C6206.48 917.8 6200.71 919.067 6195.31 921.6C6189.91 924.067 6185.18 927.533 6181.11 932C6177.05 936.4 6173.88 941.533 6171.61 947.4C6169.35 953.2 6168.21 959.4 6168.21 966C6168.21 972.667 6169.35 978.9 6171.61 984.7C6173.95 990.5 6177.15 995.633 6181.21 1000.1C6185.28 1004.5 6189.98 1007.97 6195.31 1010.5C6200.71 1012.97 6206.48 1014.2 6212.61 1014.2C6219.28 1014.2 6225.48 1012.73 6231.21 1009.8C6237.01 1006.8 6241.88 1002.87 6245.81 998L6267.61 1009.8C6261.35 1018.47 6253.45 1025.43 6243.91 1030.7C6234.38 1035.97 6223.95 1038.6 6212.61 1038.6ZM6286.48 1036V896H6374.28V920.4H6310.88V948.8H6361.18V973.2H6310.88V1011.6H6374.28V1036H6286.48ZM6396.84 1036V896H6443.24C6452.9 896 6461.94 897.833 6470.34 901.5C6478.8 905.1 6486.24 910.133 6492.64 916.6C6499.1 923 6504.14 930.433 6507.74 938.9C6511.4 947.3 6513.24 956.333 6513.24 966C6513.24 975.667 6511.4 984.733 6507.74 993.2C6504.14 1001.6 6499.1 1009.03 6492.64 1015.5C6486.24 1021.9 6478.8 1026.93 6470.34 1030.6C6461.94 1034.2 6452.9 1036 6443.24 1036H6396.84ZM6421.24 1011.6H6443.24C6449.44 1011.6 6455.27 1010.43 6460.74 1008.1C6466.27 1005.7 6471.14 1002.43 6475.34 998.3C6479.54 994.1 6482.84 989.267 6485.24 983.8C6487.64 978.267 6488.84 972.333 6488.84 966C6488.84 959.667 6487.64 953.767 6485.24 948.3C6482.84 942.833 6479.54 938 6475.34 933.8C6471.14 929.6 6466.3 926.333 6460.84 924C6455.37 921.6 6449.5 920.4 6443.24 920.4H6421.24V1011.6ZM6529.45 1036V896H6617.25V920.4H6553.85V948.8H6604.15V973.2H6553.85V1011.6H6617.25V1036H6529.45ZM6639.8 1036V896H6727.6V920.4H6664.2V948.8H6714.5V973.2H6664.2V1011.6H6727.6V1036H6639.8ZM6792.57 1038.6C6783.57 1038.6 6775.44 1036.43 6768.17 1032.1C6760.9 1027.7 6755.14 1021.87 6750.87 1014.6C6746.67 1007.33 6744.57 999.367 6744.57 990.7H6768.97C6768.97 995.033 6770.04 999 6772.17 1002.6C6774.3 1006.13 6777.14 1008.97 6780.67 1011.1C6784.27 1013.17 6788.24 1014.2 6792.57 1014.2C6796.9 1014.2 6800.84 1013.17 6804.37 1011.1C6807.9 1008.97 6810.74 1006.13 6812.87 1002.6C6815 999 6816.07 995.033 6816.07 990.7C6816.07 986.367 6815.14 982.4 6813.27 978.8C6811.47 975.133 6808.5 972.233 6804.37 970.1C6800.3 967.9 6794.9 966.8 6788.17 966.8H6752.17L6766.97 896H6835.77V920.4H6786.77L6782.27 942.4L6792.17 942.5C6801.64 942.833 6810 945.133 6817.27 949.4C6824.54 953.667 6830.2 959.4 6834.27 966.6C6838.4 973.733 6840.47 981.767 6840.47 990.7C6840.47 997.233 6839.24 1003.4 6836.77 1009.2C6834.3 1015 6830.87 1020.1 6826.47 1024.5C6822.07 1028.9 6816.97 1032.37 6811.17 1034.9C6805.44 1037.37 6799.24 1038.6 6792.57 1038.6Z" fill="black"/>
</svg>
