<svg width="1281" height="763" viewBox="0 0 1281 763" fill="none" xmlns="http://www.w3.org/2000/svg">
<mask id="mask0_13_181" style="mask-type:alpha" maskUnits="userSpaceOnUse" x="611" y="125" width="113" height="117">
<rect x="613.308" y="125" width="110" height="114" transform="rotate(1.16005 613.308 125)" fill="#D9D9D9"/>
</mask>
<g mask="url(#mask0_13_181)">
<path d="M700.966 165.377L696.28 153.405L684.477 147.702L696.499 142.601L701.654 131.422L706.351 142.8L718.157 148.384L706.133 153.604L700.966 165.377ZM699.536 236.019L694.84 224.522L683.034 218.938L695.057 213.836L700.226 201.945L704.909 214.036L716.715 219.62L704.693 224.721L699.536 236.019ZM649.614 216.717L639.548 193.114L616.738 181.963L639.981 171.744L650.992 148.687L661.175 172.173L683.87 183.322L660.742 193.544L649.614 216.717Z" fill="#C396D2"/>
</g>
<rect width="80.4945" height="112.942" rx="40.2473" transform="matrix(0.705274 0.708935 0.708935 -0.705274 483.25 439.045)" fill="#91C2D2"/>
<rect width="65" height="77" rx="32.5" transform="matrix(-0.521241 0.85341 0.85341 0.521241 168.88 389)" fill="#91C2D2"/>
<rect width="65" height="77" rx="32.5" transform="matrix(-0.919074 -0.394086 -0.394086 0.919074 340.97 564.552)" fill="#91C2D2"/>
<rect width="65" height="77" rx="32.5" transform="matrix(-0.922897 0.385046 0.385046 0.922897 457.988 538)" fill="#91C2D2"/>
<rect x="253.127" y="131.21" width="65.5556" height="159.121" rx="32.7778" transform="rotate(-1.01908 253.127 131.21)" fill="#0185B7"/>
<rect x="401.074" y="127.201" width="65.5556" height="159.121" rx="32.7778" transform="rotate(-1.01908 401.074 127.201)" fill="#0185B7"/>
<rect x="180.181" y="240.088" width="361" height="346" rx="90" transform="rotate(-1.9292 180.181 240.088)" fill="#0185B7"/>
<rect x="238.431" y="374.195" width="255" height="134" rx="20" transform="rotate(-1.9292 238.431 374.195)" fill="#91C2D2"/>
<rect x="314.862" y="367.455" width="29" height="25" transform="rotate(-1.9292 314.862 367.455)" fill="#0185B7"/>
<rect x="401.721" y="362.489" width="29" height="25" transform="rotate(-1.9292 401.721 362.489)" fill="#0185B7"/>
<circle cx="326.828" cy="430.827" r="25" transform="rotate(-1.9292 326.828 430.827)" fill="#024275"/>
<circle cx="431.828" cy="426.827" r="25" transform="rotate(-1.9292 431.828 426.827)" fill="#024275"/>
<rect x="256.392" y="308.214" width="70" height="25" rx="12.5" transform="rotate(-1.9292 256.392 308.214)" fill="#14F0F0"/>
<rect x="402.154" y="299.882" width="70" height="25" rx="12.5" transform="rotate(-1.9292 402.154 299.882)" fill="#14F0F0"/>
<mask id="mask1_13_181" style="mask-type:alpha" maskUnits="userSpaceOnUse" x="57" y="180" width="113" height="117">
<rect x="59.3076" y="180" width="110" height="114" transform="rotate(1.16005 59.3076 180)" fill="#D9D9D9"/>
</mask>
<g mask="url(#mask1_13_181)">
<path d="M146.966 220.377L142.28 208.405L130.477 202.702L142.499 197.601L147.654 186.422L152.351 197.8L164.157 203.384L152.133 208.604L146.966 220.377ZM145.536 291.019L140.84 279.522L129.034 273.938L141.057 268.836L146.226 256.945L150.909 269.036L162.715 274.62L150.693 279.721L145.536 291.019ZM95.6141 271.717L85.5482 248.114L62.7381 236.963L85.981 226.744L96.9917 203.687L107.175 227.173L129.87 238.322L106.742 248.544L95.6141 271.717Z" fill="#14F0F0"/>
</g>
<mask id="mask2_13_181" style="mask-type:alpha" maskUnits="userSpaceOnUse" x="545" y="555" width="113" height="117">
<rect x="547.308" y="555" width="110" height="114" transform="rotate(1.16005 547.308 555)" fill="#D9D9D9"/>
</mask>
<g mask="url(#mask2_13_181)">
<path d="M634.966 595.377L630.28 583.405L618.477 577.702L630.499 572.601L635.654 561.422L640.351 572.8L652.157 578.384L640.133 583.604L634.966 595.377ZM633.536 666.019L628.84 654.521L617.034 648.938L629.057 643.836L634.226 631.945L638.909 644.036L650.715 649.62L638.693 654.721L633.536 666.019ZM583.614 646.717L573.548 623.114L550.738 611.963L573.981 601.744L584.992 578.687L595.175 602.173L617.87 613.322L594.742 623.544L583.614 646.717Z" fill="#14F0F0"/>
</g>
<path d="M761.936 363.876C780.522 376.069 785.704 401.02 773.511 419.605C761.318 438.191 736.367 443.373 717.782 431.18L690.651 413.381C672.066 401.188 666.884 376.237 679.077 357.652C691.27 339.066 716.22 333.884 734.806 346.077L761.936 363.876Z" fill="#C09ECC"/>
<path d="M1089.22 455.944C1071.35 469.16 1046.15 465.386 1032.93 447.514C1019.71 429.642 1023.49 404.44 1041.36 391.223L1067.45 371.93C1085.32 358.714 1110.52 362.488 1123.74 380.36C1136.96 398.232 1133.18 423.434 1115.31 436.651L1089.22 455.944Z" fill="#C09ECC"/>
<path d="M804.877 516.436C814.318 496.313 838.285 487.654 858.408 497.095C878.531 506.536 887.191 530.503 877.75 550.626L863.968 580.001C854.527 600.125 830.56 608.784 810.437 599.343C790.313 589.902 781.654 565.935 791.095 545.812L804.877 516.436Z" fill="#C09ECC"/>
<path d="M941.37 554.845C929.568 536.009 935.269 511.172 954.105 499.37C972.941 487.568 997.778 493.269 1009.58 512.105L1026.81 539.601C1038.61 558.437 1032.91 583.274 1014.07 595.076C995.238 606.879 970.401 601.177 958.599 582.341L941.37 554.845Z" fill="#C09ECC"/>
<rect width="77" height="85.7408" rx="38.5" transform="matrix(-0.866504 -0.49917 -0.49917 0.866504 1048.49 182.588)" fill="#745390"/>
<rect x="748.071" y="182.436" width="77" height="85.7408" rx="38.5" transform="rotate(-29.9451 748.071 182.436)" fill="#745390"/>
<rect width="361" height="346" rx="90" transform="matrix(-1 0 0 1 1082.5 201.759)" fill="#745390"/>
<rect width="255" height="134" rx="20" transform="matrix(-1 0 0 1 1028.79 337.751)" fill="#C09ECC"/>
<rect width="29" height="25" transform="matrix(-1 0 0 1 952.18 333.587)" fill="#745390"/>
<rect width="29" height="25" transform="matrix(-1 0 0 1 865.204 331.549)" fill="#745390"/>
<circle r="25" transform="matrix(-1 0 0 1 956.189 405.373)" fill="#604899"/>
<circle r="25" transform="matrix(-1 0 0 1 848 405)" fill="#604899"/>
<rect width="70" height="25" rx="12.5" transform="matrix(-1 0 0 1 1008.62 272.413)" fill="#F014C0"/>
<rect width="70" height="25" rx="12.5" transform="matrix(-1 0 0 1 862.663 268.992)" fill="#F014C0"/>
<mask id="mask3_13_181" style="mask-type:alpha" maskUnits="userSpaceOnUse" x="1168" y="448" width="113" height="117">
<rect x="1170.31" y="448" width="110" height="114" transform="rotate(1.16005 1170.31 448)" fill="#D9D9D9"/>
</mask>
<g mask="url(#mask3_13_181)">
<path d="M1257.97 488.377L1253.28 476.405L1241.48 470.702L1253.5 465.601L1258.65 454.422L1263.35 465.8L1275.16 471.384L1263.13 476.604L1257.97 488.377ZM1256.54 559.019L1251.84 547.521L1240.03 541.938L1252.06 536.836L1257.23 524.945L1261.91 537.036L1273.71 542.62L1261.69 547.721L1256.54 559.019ZM1206.61 539.717L1196.55 516.114L1173.74 504.963L1196.98 494.744L1207.99 471.687L1218.17 495.173L1240.87 506.322L1217.74 516.544L1206.61 539.717Z" fill="#C396D2"/>
</g>
</svg>
