<svg width="360" height="527" viewBox="0 0 360 527" fill="none" xmlns="http://www.w3.org/2000/svg">
<path d="M281.915 253.964C300.541 241.834 325.474 247.099 337.605 265.725C349.736 284.352 344.47 309.285 325.844 321.415L298.654 339.123C280.028 351.254 255.095 345.988 242.964 327.362C230.834 308.736 236.099 283.803 254.725 271.672L281.915 253.964Z" fill="#C09ECC"/>
<path d="M65.4517 442.281C80.5735 458.572 79.6251 484.038 63.3335 499.159C47.042 514.281 21.5765 513.333 6.45474 497.041L-15.6196 473.259C-30.7413 456.968 -29.793 431.502 -13.5014 416.38C2.79017 401.259 28.2557 402.207 43.3774 418.498L65.4517 442.281Z" fill="#C09ECC"/>
<rect x="-75.1084" y="91.8813" width="77" height="85.7408" rx="38.5" transform="rotate(-39.4184 -75.1084 91.8813)" fill="#745390"/>
<rect width="77" height="85.7408" rx="38.5" transform="matrix(-0.936845 -0.349745 -0.349745 0.936845 221.192 42.2856)" fill="#745390"/>
<rect x="-105.494" y="116.388" width="361" height="346" rx="90" transform="rotate(-9.47335 -105.494 116.388)" fill="#745390"/>
<rect x="-30.1406" y="241.686" width="255" height="134" rx="20" transform="rotate(-9.47335 -30.1406 241.686)" fill="#C09ECC"/>
<rect x="44.7451" y="224.969" width="29" height="25" transform="rotate(-9.47335 44.7451 224.969)" fill="#745390"/>
<rect x="130.199" y="208.644" width="29" height="25" transform="rotate(-9.47335 130.199 208.644)" fill="#745390"/>
<circle cx="85.8548" cy="279.395" r="25" transform="rotate(-9.47335 85.8548 279.395)" fill="#604899"/>
<circle cx="192.507" cy="261.22" r="25" transform="rotate(-9.47335 192.507 261.22)" fill="#604899"/>
<rect x="-20.9971" y="173.919" width="70" height="25" rx="12.5" transform="rotate(-9.47335 -20.9971 173.919)" fill="#F014C0"/>
<rect x="122.409" y="146.522" width="70" height="25" rx="12.5" transform="rotate(-9.47335 122.409 146.522)" fill="#F014C0"/>
</svg>
