<svg width="4958" height="3948" viewBox="0 0 4958 3948" fill="none" xmlns="http://www.w3.org/2000/svg">
<rect width="4958" height="3948" fill="#DBDBDB"/>
<path d="M2444 3386C3111.8 3386 3653 2839.7 3653 2166C3653 1492.3 3111.8 946 2444 946C1776.2 946 1235 1492.3 1235 2166C1235 2839.7 1776.2 3386 2444 3386Z" stroke="#131B25" stroke-width="20"/>
<rect x="3349" y="1500" width="418" height="416" fill="#DBDBDB"/>
<rect x="3222" y="2721" width="418" height="416" fill="#DBDBDB"/>
<rect x="3477" y="1649" width="163" height="118" fill="#DBDBDB"/>
<rect x="1330" y="2739" width="418" height="416" fill="#DBDBDB"/>
<rect x="1121" y="1492" width="418" height="416" fill="#DBDBDB"/>
<rect x="2277" y="709" width="418" height="416" fill="#DBDBDB"/>
<path d="M2158.59 451H2207.91V435.88H2175.03V415.6H2201.79V400.72H2175.03V380.92H2206.83V365.8H2158.59V451ZM2257.96 451H2274.04V415.48C2274.04 406.6 2279.08 401.8 2286.16 401.8C2293.12 401.8 2297.68 406.6 2297.68 415.48V451H2313.88V414.76C2313.88 395.68 2304.28 387.4 2291.08 387.4C2280.88 387.4 2274.04 392.08 2270.44 397.84C2266.6 390.64 2259.88 387.4 2252.2 387.4C2243.44 387.4 2237.68 391.36 2234.32 396.64V388.6H2218.24V451H2234.32V415.48C2234.32 406.6 2239.36 401.8 2246.44 401.8C2253.28 401.8 2257.96 406.6 2257.96 415.48V451ZM2326.05 473.8H2342.13V442.6H2342.49C2344.05 446.08 2351.25 452.2 2362.41 452.2C2376.93 452.2 2392.41 441.4 2392.41 419.8C2392.41 398.2 2376.93 387.4 2362.41 387.4C2351.25 387.4 2344.05 393.52 2342.49 397H2342.13V388.6H2326.05V473.8ZM2341.77 419.8C2341.77 408.04 2350.17 401.8 2359.17 401.8C2368.17 401.8 2376.57 408.16 2376.57 419.8C2376.57 431.44 2368.17 437.8 2359.17 437.8C2350.17 437.8 2341.77 431.56 2341.77 419.8ZM2401.64 451H2417.72V416.92C2417.72 407.8 2422.76 401.8 2431.04 401.8C2439.44 401.8 2444.36 407.8 2444.36 416.92V451H2460.44V414.28C2460.44 395.32 2449.64 387.4 2436.8 387.4C2427.44 387.4 2421.2 391.6 2417.72 397.12V365.8H2401.64V451ZM2499.65 452.2C2510.81 452.2 2518.01 446.08 2519.57 442.6H2519.93V451H2536.01V388.6H2519.93V397H2519.57C2518.01 393.52 2510.81 387.4 2499.65 387.4C2485.13 387.4 2469.65 398.2 2469.65 419.8C2469.65 441.4 2485.13 452.2 2499.65 452.2ZM2485.49 419.8C2485.49 408.16 2493.89 401.8 2502.89 401.8C2511.89 401.8 2520.29 408.04 2520.29 419.8C2520.29 431.56 2511.89 437.8 2502.89 437.8C2493.89 437.8 2485.49 431.44 2485.49 419.8ZM2572.36 451.72C2576.32 451.72 2580.88 451 2583.28 448.84V436.48C2581 437.2 2578.84 437.44 2577.4 437.44C2572.12 437.44 2570.32 434.32 2570.32 431.08V401.44H2583.16V388.6H2570.32V372.64H2554.12V388.6H2545.24V401.44H2554.12V433.72C2554.12 446.56 2561.8 451.72 2572.36 451.72ZM2593 451H2609.08V388.6H2593V451ZM2593 379.96H2609.08V365.8H2593V379.96ZM2641.16 452.2C2654.24 452.2 2664.92 445.48 2664.92 433C2664.92 421.96 2656.52 417.4 2648.84 414.64L2641.88 412C2636.96 410.32 2635.4 408.04 2635.4 405.4C2635.4 402.4 2637.92 400 2642.12 400C2645.48 400 2648.72 401.56 2650.4 406.6L2663 403.36C2660.96 393.76 2652.68 387.4 2641.4 387.4C2629.64 387.4 2619.8 394.12 2619.8 405.28C2619.8 412.84 2624.12 419.44 2634.44 423.16L2642.12 426.04C2647.04 427.84 2648.96 430 2648.96 433C2648.96 437.44 2645 439.48 2640.92 439.48C2634.8 439.48 2631.8 435.28 2630.6 431.2L2617.76 434.68C2619.68 446.2 2628.8 452.2 2641.16 452.2ZM2703.62 452.2C2714.66 452.2 2723.66 447.64 2728.82 441.16L2721.5 433.36C2716.94 437.32 2711.54 439 2705.42 439C2696.06 439 2688.62 434.56 2686.34 426.04H2733.02C2736.5 398.56 2718.5 387.4 2702.66 387.4C2686.7 387.4 2671.1 398.8 2671.1 419.8C2671.1 440.56 2686.46 452.2 2703.62 452.2ZM2686.1 414.28C2688.14 405.28 2695.34 400.96 2702.78 400.96C2710.34 400.96 2717.78 405.4 2718.74 414.28H2686.1Z" fill="black"/>
<path d="M2035.12 630.8C2035.12 628.4 2035.49 626.48 2036.24 625.04C2037.04 623.547 2038.11 622.48 2039.44 621.84C2040.83 621.2 2042.35 620.88 2044 620.88C2045.65 620.88 2047.15 621.2 2048.48 621.84C2049.81 622.48 2050.88 623.547 2051.68 625.04C2052.48 626.48 2052.88 628.4 2052.88 630.8C2052.88 633.147 2052.48 635.067 2051.68 636.56C2050.88 638 2049.81 639.067 2048.48 639.76C2047.15 640.4 2045.65 640.72 2044 640.72C2042.35 640.72 2040.83 640.4 2039.44 639.76C2038.11 639.067 2037.04 638 2036.24 636.56C2035.49 635.067 2035.12 633.147 2035.12 630.8ZM2137.04 660.8C2143.68 660.8 2152.48 658.72 2158.8 650.24L2155.12 647.44C2149.92 654.32 2142.64 656 2137.2 656C2124 656 2113.28 646.24 2113.28 631.6C2113.28 616.96 2124 607.2 2137.12 607.2C2142.64 607.2 2149.92 608.88 2155.12 615.76L2158.8 612.96C2152.48 604.48 2143.6 602.4 2136.96 602.4C2121.12 602.4 2108.24 614.32 2108.24 631.6C2108.24 648.88 2121.2 660.8 2137.04 660.8ZM2185.12 660.8C2195.84 660.8 2206.56 653.04 2206.56 639.2C2206.56 625.36 2195.84 617.6 2185.12 617.6C2174.4 617.6 2163.68 625.36 2163.68 639.2C2163.68 653.04 2174.4 660.8 2185.12 660.8ZM2168.56 639.2C2168.56 628.16 2176.72 622.08 2185.12 622.08C2193.52 622.08 2201.68 628.16 2201.68 639.2C2201.68 650.24 2193.52 656.32 2185.12 656.32C2176.72 656.32 2168.56 650.24 2168.56 639.2ZM2214.67 660H2219.55V636.08C2219.55 626.56 2225.55 622.08 2232.67 622.08C2239.87 622.08 2245.55 626.56 2245.55 636.08V660H2250.43V635.52C2250.43 623.12 2242.83 617.6 2233.95 617.6C2226.27 617.6 2221.63 621.6 2219.55 625.68V618.4H2214.67V660ZM2270.71 660.48C2272.31 660.48 2274.07 660.24 2275.51 659.28V655.28C2273.99 655.92 2272.71 656.08 2271.75 656.08C2268.95 656.08 2267.59 654.64 2267.59 651.92V622.48H2275.67V618.4H2267.59V607.76H2262.71V618.4H2257.35V622.48H2262.71V652.96C2262.71 658.16 2265.91 660.48 2270.71 660.48ZM2302.85 660.8C2309.33 660.8 2315.41 658.16 2319.17 653.52L2316.61 650.88C2313.57 654.48 2308.69 656.48 2303.41 656.48C2294.69 656.48 2287.17 651.04 2286.37 640.96H2322.13C2323.49 625.28 2312.85 617.6 2302.29 617.6C2291.89 617.6 2281.73 625.2 2281.73 639.12C2281.73 653.12 2291.81 660.8 2302.85 660.8ZM2286.37 637.04C2287.25 627.12 2294.61 621.92 2302.29 621.92C2310.21 621.92 2317.49 627.28 2317.73 637.04H2286.37ZM2323.81 660H2329.65L2342.77 642.4L2355.89 660H2361.73L2345.57 638.8L2360.93 618.4H2355.25L2342.77 635.12L2330.29 618.4H2324.61L2339.97 638.8L2323.81 660ZM2379.07 660.48C2380.67 660.48 2382.43 660.24 2383.87 659.28V655.28C2382.35 655.92 2381.07 656.08 2380.11 656.08C2377.31 656.08 2375.95 654.64 2375.95 651.92V622.48H2384.03V618.4H2375.95V607.76H2371.07V618.4H2365.71V622.48H2371.07V652.96C2371.07 658.16 2374.27 660.48 2379.07 660.48ZM2428.24 618.4H2423.36V642.32C2423.36 651.84 2417.36 656.32 2410.24 656.32C2403.04 656.32 2397.36 651.84 2397.36 642.32V618.4H2392.48V642.88C2392.48 655.28 2400.08 660.8 2408.96 660.8C2416.64 660.8 2421.28 656.8 2423.36 652.72V660H2428.24V618.4ZM2456.98 660.8C2464.82 660.8 2471.22 656.48 2473.62 651.12H2473.86V660H2478.74V618.4H2473.86V627.28H2473.62C2471.22 621.92 2464.82 617.6 2456.98 617.6C2446.58 617.6 2436.34 625.04 2436.34 639.2C2436.34 653.36 2446.58 660.8 2456.98 660.8ZM2441.22 639.2C2441.22 627.68 2449.46 622.08 2457.62 622.08C2465.78 622.08 2474.02 627.76 2474.02 639.2C2474.02 650.64 2465.78 656.32 2457.62 656.32C2449.46 656.32 2441.22 650.72 2441.22 639.2ZM2488.81 660H2493.69V603.2H2488.81V660ZM2521.15 660H2526.11V603.2H2521.15V660ZM2536.23 660H2541.11V636.08C2541.11 626.56 2547.11 622.08 2554.23 622.08C2561.43 622.08 2567.11 626.56 2567.11 636.08V660H2571.99V635.52C2571.99 623.12 2564.39 617.6 2555.51 617.6C2547.83 617.6 2543.19 621.6 2541.11 625.68V618.4H2536.23V660ZM2622.49 675.2V618.4H2617.61V627.28H2617.37C2614.97 621.92 2608.57 617.6 2600.73 617.6C2590.33 617.6 2580.09 625.04 2580.09 639.2C2580.09 653.36 2590.33 660.8 2600.73 660.8C2608.57 660.8 2614.97 656.48 2617.37 651.12H2617.61V675.2H2622.49ZM2584.97 639.2C2584.97 627.68 2593.21 622.08 2601.37 622.08C2609.53 622.08 2617.77 627.76 2617.77 639.2C2617.77 650.64 2609.53 656.32 2601.37 656.32C2593.21 656.32 2584.97 650.72 2584.97 639.2ZM2668.32 618.4H2663.44V642.32C2663.44 651.84 2657.44 656.32 2650.32 656.32C2643.12 656.32 2637.44 651.84 2637.44 642.32V618.4H2632.56V642.88C2632.56 655.28 2640.16 660.8 2649.04 660.8C2656.72 660.8 2661.36 656.8 2663.44 652.72V660H2668.32V618.4ZM2678.42 660H2683.3V618.4H2678.42V660ZM2678.42 607.92H2683.3V603.2H2678.42V607.92ZM2693.34 660H2698.22V637.92C2698.22 628.16 2704.22 622.16 2711.82 622.16C2712.7 622.16 2713.26 622.24 2713.9 622.4V617.84C2713.34 617.68 2712.7 617.6 2711.74 617.6C2704.06 617.6 2699.9 622.48 2698.22 628.08V618.4H2693.34V660ZM2722.01 660H2726.89V618.4H2722.01V660ZM2722.01 607.92H2726.89V603.2H2722.01V607.92ZM2756.05 660.8C2762.53 660.8 2768.61 658.16 2772.37 653.52L2769.81 650.88C2766.77 654.48 2761.89 656.48 2756.61 656.48C2747.89 656.48 2740.37 651.04 2739.57 640.96H2775.33C2776.69 625.28 2766.05 617.6 2755.49 617.6C2745.09 617.6 2734.93 625.2 2734.93 639.12C2734.93 653.12 2745.01 660.8 2756.05 660.8ZM2739.57 637.04C2740.45 627.12 2747.81 621.92 2755.49 621.92C2763.41 621.92 2770.69 627.28 2770.93 637.04H2739.57ZM2794.16 660.8C2801.04 660.8 2808 657.2 2808 649.12C2808 642.4 2803.52 639.6 2796.32 636.64L2793.52 635.52C2788.64 633.52 2786.72 631.12 2786.72 628C2786.72 623.84 2790.16 621.76 2794.16 621.76C2798.56 621.76 2801.12 624.08 2802.48 627.6L2806.4 626.32C2804.96 621.04 2800.24 617.6 2794 617.6C2787.12 617.6 2781.92 621.84 2781.92 628C2781.92 632.56 2784.72 636.56 2791.6 639.36L2794.8 640.64C2800.24 642.96 2803.12 644.88 2803.12 649.12C2803.12 654.32 2798.64 656.56 2794.16 656.56C2789.28 656.56 2785.44 653.76 2784.16 648.56L2779.92 649.76C2781.2 656.56 2786.56 660.8 2794.16 660.8Z" fill="black"/>
<path d="M637.738 1502H654.178V1431.92H674.698V1416.8H617.218V1431.92H637.738V1502ZM701.417 1503.2C712.457 1503.2 721.457 1498.64 726.617 1492.16L719.297 1484.36C714.737 1488.32 709.337 1490 703.217 1490C693.857 1490 686.417 1485.56 684.137 1477.04H730.817C734.297 1449.56 716.297 1438.4 700.457 1438.4C684.497 1438.4 668.897 1449.8 668.897 1470.8C668.897 1491.56 684.257 1503.2 701.417 1503.2ZM683.897 1465.28C685.937 1456.28 693.137 1451.96 700.577 1451.96C708.137 1451.96 715.577 1456.4 716.537 1465.28H683.897ZM758.494 1503.2C771.574 1503.2 782.254 1496.48 782.254 1484C782.254 1472.96 773.854 1468.4 766.174 1465.64L759.214 1463C754.294 1461.32 752.734 1459.04 752.734 1456.4C752.734 1453.4 755.254 1451 759.454 1451C762.814 1451 766.054 1452.56 767.734 1457.6L780.334 1454.36C778.294 1444.76 770.014 1438.4 758.734 1438.4C746.974 1438.4 737.134 1445.12 737.134 1456.28C737.134 1463.84 741.454 1470.44 751.774 1474.16L759.454 1477.04C764.374 1478.84 766.294 1481 766.294 1484C766.294 1488.44 762.334 1490.48 758.254 1490.48C752.134 1490.48 749.134 1486.28 747.934 1482.2L735.094 1485.68C737.014 1497.2 746.134 1503.2 758.494 1503.2ZM814.377 1502.72C818.337 1502.72 822.897 1502 825.297 1499.84V1487.48C823.017 1488.2 820.857 1488.44 819.417 1488.44C814.137 1488.44 812.337 1485.32 812.337 1482.08V1452.44H825.177V1439.6H812.337V1423.64H796.137V1439.6H787.257V1452.44H796.137V1484.72C796.137 1497.56 803.817 1502.72 814.377 1502.72Z" fill="black"/>
<path d="M265.121 1689.8C265.121 1687.4 265.494 1685.48 266.241 1684.04C267.041 1682.55 268.108 1681.48 269.441 1680.84C270.828 1680.2 272.348 1679.88 274.001 1679.88C275.654 1679.88 277.148 1680.2 278.481 1680.84C279.814 1681.48 280.881 1682.55 281.681 1684.04C282.481 1685.48 282.881 1687.4 282.881 1689.8C282.881 1692.15 282.481 1694.07 281.681 1695.56C280.881 1697 279.814 1698.07 278.481 1698.76C277.148 1699.4 275.654 1699.72 274.001 1699.72C272.348 1699.72 270.828 1699.4 269.441 1698.76C268.108 1698.07 267.041 1697 266.241 1695.56C265.494 1694.07 265.121 1692.15 265.121 1689.8ZM374.4 1719H379.36V1662.2H374.4V1688.84H344V1662.2H339.04V1719H344V1693.48H374.4V1719ZM408.551 1719.8C415.031 1719.8 421.111 1717.16 424.871 1712.52L422.311 1709.88C419.271 1713.48 414.391 1715.48 409.111 1715.48C400.391 1715.48 392.871 1710.04 392.071 1699.96H427.831C429.191 1684.28 418.551 1676.6 407.991 1676.6C397.591 1676.6 387.431 1684.2 387.431 1698.12C387.431 1712.12 397.511 1719.8 408.551 1719.8ZM392.071 1696.04C392.951 1686.12 400.311 1680.92 407.991 1680.92C415.911 1680.92 423.191 1686.28 423.431 1696.04H392.071ZM471.753 1677.4H466.873V1701.32C466.873 1710.84 460.873 1715.32 453.753 1715.32C446.553 1715.32 440.873 1710.84 440.873 1701.32V1677.4H435.993V1701.88C435.993 1714.28 443.593 1719.8 452.473 1719.8C460.153 1719.8 464.793 1715.8 466.873 1711.72V1719H471.753V1677.4ZM481.853 1719H486.733V1696.92C486.733 1687.16 492.733 1681.16 500.332 1681.16C501.213 1681.16 501.773 1681.24 502.413 1681.4V1676.84C501.853 1676.68 501.213 1676.6 500.253 1676.6C492.573 1676.6 488.413 1681.48 486.733 1687.08V1677.4H481.853V1719ZM510.524 1719H515.404V1677.4H510.524V1719ZM510.524 1666.92H515.404V1662.2H510.524V1666.92ZM537.286 1719.8C544.166 1719.8 551.126 1716.2 551.126 1708.12C551.126 1701.4 546.646 1698.6 539.446 1695.64L536.646 1694.52C531.766 1692.52 529.846 1690.12 529.846 1687C529.846 1682.84 533.286 1680.76 537.286 1680.76C541.686 1680.76 544.246 1683.08 545.606 1686.6L549.526 1685.32C548.086 1680.04 543.366 1676.6 537.126 1676.6C530.246 1676.6 525.046 1680.84 525.046 1687C525.046 1691.56 527.846 1695.56 534.726 1698.36L537.926 1699.64C543.366 1701.96 546.246 1703.88 546.246 1708.12C546.246 1713.32 541.766 1715.56 537.286 1715.56C532.406 1715.56 528.566 1712.76 527.286 1707.56L523.046 1708.76C524.326 1715.56 529.686 1719.8 537.286 1719.8ZM569.775 1719.48C571.375 1719.48 573.135 1719.24 574.575 1718.28V1714.28C573.055 1714.92 571.775 1715.08 570.815 1715.08C568.015 1715.08 566.655 1713.64 566.655 1710.92V1681.48H574.735V1677.4H566.655V1666.76H561.775V1677.4H556.415V1681.48H561.775V1711.96C561.775 1717.16 564.975 1719.48 569.775 1719.48ZM583.181 1719H588.061V1677.4H583.181V1719ZM583.181 1666.92H588.061V1662.2H583.181V1666.92ZM617.463 1719.8C624.663 1719.8 631.623 1716.28 635.223 1709.56L631.383 1707.4C628.583 1712.52 623.223 1715.32 617.623 1715.32C609.383 1715.32 600.983 1709.24 600.983 1698.28C600.983 1687.16 609.383 1681.08 617.623 1681.08C623.223 1681.08 628.583 1683.88 631.383 1689L635.223 1686.84C631.623 1680.12 624.663 1676.6 617.463 1676.6C606.823 1676.6 596.103 1684.36 596.103 1698.28C596.103 1712.04 606.823 1719.8 617.463 1719.8ZM660.759 1719H691.159V1714.28H665.719V1692.76H686.839V1688.2H665.719V1666.92H690.439V1662.2H660.759V1719ZM712.984 1719H717.464L735.224 1677.4H730.104L715.224 1712.76L700.344 1677.4H695.224L712.984 1719ZM758.696 1719.8C766.536 1719.8 772.936 1715.48 775.336 1710.12H775.576V1719H780.456V1677.4H775.576V1686.28H775.336C772.936 1680.92 766.536 1676.6 758.696 1676.6C748.296 1676.6 738.056 1684.04 738.056 1698.2C738.056 1712.36 748.296 1719.8 758.696 1719.8ZM742.936 1698.2C742.936 1686.68 751.176 1681.08 759.336 1681.08C767.496 1681.08 775.736 1686.76 775.736 1698.2C775.736 1709.64 767.496 1715.32 759.336 1715.32C751.176 1715.32 742.936 1709.72 742.936 1698.2ZM790.524 1719H795.404V1662.2H790.524V1719ZM841.206 1677.4H836.326V1701.32C836.326 1710.84 830.326 1715.32 823.206 1715.32C816.006 1715.32 810.326 1710.84 810.326 1701.32V1677.4H805.446V1701.88C805.446 1714.28 813.046 1719.8 821.926 1719.8C829.606 1719.8 834.246 1715.8 836.326 1711.72V1719H841.206V1677.4ZM869.946 1719.8C877.786 1719.8 884.186 1715.48 886.586 1710.12H886.826V1719H891.706V1677.4H886.826V1686.28H886.586C884.186 1680.92 877.786 1676.6 869.946 1676.6C859.546 1676.6 849.306 1684.04 849.306 1698.2C849.306 1712.36 859.546 1719.8 869.946 1719.8ZM854.186 1698.2C854.186 1686.68 862.426 1681.08 870.586 1681.08C878.746 1681.08 886.986 1686.76 886.986 1698.2C886.986 1709.64 878.746 1715.32 870.586 1715.32C862.426 1715.32 854.186 1709.72 854.186 1698.2ZM913.134 1719.48C914.734 1719.48 916.494 1719.24 917.934 1718.28V1714.28C916.414 1714.92 915.134 1715.08 914.174 1715.08C911.374 1715.08 910.014 1713.64 910.014 1710.92V1681.48H918.094V1677.4H910.014V1666.76H905.134V1677.4H899.774V1681.48H905.134V1711.96C905.134 1717.16 908.334 1719.48 913.134 1719.48ZM926.54 1719H931.42V1677.4H926.54V1719ZM926.54 1666.92H931.42V1662.2H926.54V1666.92ZM960.902 1719.8C971.622 1719.8 982.342 1712.04 982.342 1698.2C982.342 1684.36 971.622 1676.6 960.902 1676.6C950.182 1676.6 939.462 1684.36 939.462 1698.2C939.462 1712.04 950.182 1719.8 960.902 1719.8ZM944.342 1698.2C944.342 1687.16 952.502 1681.08 960.902 1681.08C969.302 1681.08 977.462 1687.16 977.462 1698.2C977.462 1709.24 969.302 1715.32 960.902 1715.32C952.502 1715.32 944.342 1709.24 944.342 1698.2ZM990.446 1719H995.326V1695.08C995.326 1685.56 1001.33 1681.08 1008.45 1681.08C1015.65 1681.08 1021.33 1685.56 1021.33 1695.08V1719H1026.21V1694.52C1026.21 1682.12 1018.61 1676.6 1009.73 1676.6C1002.05 1676.6 997.406 1680.6 995.326 1684.68V1677.4H990.446V1719Z" fill="black"/>
<path d="M642.429 3081H658.869V3053.64H672.549C691.029 3053.64 703.029 3042.12 703.029 3024.72C703.029 3007.32 691.029 2995.8 672.549 2995.8H642.429V3081ZM658.869 3038.52V3010.92H671.109C679.989 3010.92 686.349 3014.88 686.349 3024.72C686.349 3034.68 679.989 3038.52 671.109 3038.52H658.869ZM712.858 3081H728.938V3053.76C728.938 3041.28 736.498 3032.88 748.618 3032.88C750.058 3032.88 751.258 3033 752.698 3033.24V3017.88C751.258 3017.52 749.938 3017.4 748.498 3017.4C737.218 3017.4 731.098 3025.2 728.938 3034.8V3018.6H712.858V3081ZM789.965 3082.2C806.165 3082.2 822.845 3070.92 822.845 3049.8C822.845 3028.68 806.165 3017.4 789.965 3017.4C773.645 3017.4 757.085 3028.68 757.085 3049.8C757.085 3070.92 773.645 3082.2 789.965 3082.2ZM772.925 3049.8C772.925 3038.64 780.965 3031.92 789.965 3031.92C798.965 3031.92 806.885 3038.64 806.885 3049.8C806.885 3060.96 798.965 3067.68 789.965 3067.68C780.965 3067.68 772.925 3060.96 772.925 3049.8ZM854.4 3081.72C858.36 3081.72 862.92 3081 865.32 3078.84V3066.48C863.04 3067.2 860.88 3067.44 859.44 3067.44C854.16 3067.44 852.36 3064.32 852.36 3061.08V3031.44H865.2V3018.6H852.36V3002.64H836.16V3018.6H827.28V3031.44H836.16V3063.72C836.16 3076.56 843.84 3081.72 854.4 3081.72ZM904.34 3082.2C920.54 3082.2 937.22 3070.92 937.22 3049.8C937.22 3028.68 920.54 3017.4 904.34 3017.4C888.02 3017.4 871.46 3028.68 871.46 3049.8C871.46 3070.92 888.02 3082.2 904.34 3082.2ZM887.3 3049.8C887.3 3038.64 895.34 3031.92 904.34 3031.92C913.34 3031.92 921.26 3038.64 921.26 3049.8C921.26 3060.96 913.34 3067.68 904.34 3067.68C895.34 3067.68 887.3 3060.96 887.3 3049.8ZM968.775 3081.72C972.735 3081.72 977.295 3081 979.695 3078.84V3066.48C977.415 3067.2 975.255 3067.44 973.815 3067.44C968.535 3067.44 966.735 3064.32 966.735 3061.08V3031.44H979.575V3018.6H966.735V3002.64H950.535V3018.6H941.655V3031.44H950.535V3063.72C950.535 3076.56 958.215 3081.72 968.775 3081.72ZM1000.94 3103.8H1016.66L1026.38 3081L1052.66 3018.6H1036.1L1018.94 3061.92L1001.66 3018.6H985.221L1011.14 3080.4L1000.94 3103.8ZM1060.67 3103.8H1076.75V3072.6H1077.11C1078.67 3076.08 1085.87 3082.2 1097.03 3082.2C1111.55 3082.2 1127.03 3071.4 1127.03 3049.8C1127.03 3028.2 1111.55 3017.4 1097.03 3017.4C1085.87 3017.4 1078.67 3023.52 1077.11 3027H1076.75V3018.6H1060.67V3103.8ZM1076.39 3049.8C1076.39 3038.04 1084.79 3031.8 1093.79 3031.8C1102.79 3031.8 1111.19 3038.16 1111.19 3049.8C1111.19 3061.44 1102.79 3067.8 1093.79 3067.8C1084.79 3067.8 1076.39 3061.56 1076.39 3049.8ZM1165.78 3082.2C1176.82 3082.2 1185.82 3077.64 1190.98 3071.16L1183.66 3063.36C1179.1 3067.32 1173.7 3069 1167.58 3069C1158.22 3069 1150.78 3064.56 1148.5 3056.04H1195.18C1198.66 3028.56 1180.66 3017.4 1164.82 3017.4C1148.86 3017.4 1133.26 3028.8 1133.26 3049.8C1133.26 3070.56 1148.62 3082.2 1165.78 3082.2ZM1148.26 3044.28C1150.3 3035.28 1157.5 3030.96 1164.94 3030.96C1172.5 3030.96 1179.94 3035.4 1180.9 3044.28H1148.26Z" fill="black"/>
<path d="M461.121 3268.8C461.121 3266.4 461.494 3264.48 462.241 3263.04C463.041 3261.55 464.108 3260.48 465.441 3259.84C466.828 3259.2 468.348 3258.88 470.001 3258.88C471.654 3258.88 473.148 3259.2 474.481 3259.84C475.814 3260.48 476.881 3261.55 477.681 3263.04C478.481 3264.48 478.881 3266.4 478.881 3268.8C478.881 3271.15 478.481 3273.07 477.681 3274.56C476.881 3276 475.814 3277.07 474.481 3277.76C473.148 3278.4 471.654 3278.72 470.001 3278.72C468.348 3278.72 466.828 3278.4 465.441 3277.76C464.108 3277.07 463.041 3276 462.241 3274.56C461.494 3273.07 461.121 3271.15 461.121 3268.8ZM549.68 3298H553.76L569.44 3250L585.04 3298H589.12L606.24 3241.2H600.96L586.8 3288.96L571.44 3241.2H567.36L552.08 3288.96L537.92 3241.2H532.64L549.68 3298ZM613.946 3298H618.826V3256.4H613.946V3298ZM613.946 3245.92H618.826V3241.2H613.946V3245.92ZM628.868 3298H633.748V3275.92C633.748 3266.16 639.748 3260.16 647.348 3260.16C648.228 3260.16 648.788 3260.24 649.428 3260.4V3255.84C648.868 3255.68 648.228 3255.6 647.268 3255.6C639.588 3255.6 635.428 3260.48 633.748 3266.08V3256.4H628.868V3298ZM675.488 3298.8C681.968 3298.8 688.048 3296.16 691.808 3291.52L689.248 3288.88C686.208 3292.48 681.328 3294.48 676.048 3294.48C667.328 3294.48 659.808 3289.04 659.008 3278.96H694.768C696.128 3263.28 685.488 3255.6 674.928 3255.6C664.528 3255.6 654.368 3263.2 654.368 3277.12C654.368 3291.12 664.448 3298.8 675.488 3298.8ZM659.008 3275.04C659.888 3265.12 667.248 3259.92 674.928 3259.92C682.848 3259.92 690.128 3265.28 690.368 3275.04H659.008ZM704.691 3250.96V3256.4H700.131V3260.48H704.691V3298H709.571V3260.48H721.411V3256.4H709.571V3251.6C709.571 3245.68 712.451 3243.92 716.131 3243.92C718.051 3243.92 719.971 3244.4 721.411 3245.2V3241.28C719.971 3240.4 717.971 3239.68 715.331 3239.68C710.691 3239.68 704.691 3241.84 704.691 3250.96ZM727.853 3298H732.733V3275.92C732.733 3266.16 738.733 3260.16 746.332 3260.16C747.213 3260.16 747.773 3260.24 748.413 3260.4V3255.84C747.853 3255.68 747.213 3255.6 746.253 3255.6C738.573 3255.6 734.413 3260.48 732.733 3266.08V3256.4H727.853V3298ZM773.993 3298.8C781.833 3298.8 788.233 3294.48 790.633 3289.12H790.873V3298H795.753V3256.4H790.873V3265.28H790.633C788.233 3259.92 781.833 3255.6 773.993 3255.6C763.593 3255.6 753.353 3263.04 753.353 3277.2C753.353 3291.36 763.593 3298.8 773.993 3298.8ZM758.233 3277.2C758.233 3265.68 766.473 3260.08 774.633 3260.08C782.793 3260.08 791.033 3265.76 791.033 3277.2C791.033 3288.64 782.793 3294.32 774.633 3294.32C766.473 3294.32 758.233 3288.72 758.233 3277.2ZM833.821 3298H838.701V3273.84C838.701 3265.52 843.021 3260.08 850.541 3260.08C858.141 3260.08 861.821 3265.52 861.821 3273.84V3298H866.701V3273.36C866.701 3261.04 860.301 3255.6 851.661 3255.6C843.581 3255.6 839.101 3260.32 837.341 3264.72C835.021 3258.48 829.901 3255.6 823.741 3255.6C816.701 3255.6 812.621 3259.28 810.701 3263.2V3256.4H805.821V3298H810.701V3273.84C810.701 3265.52 814.941 3260.08 822.541 3260.08C830.141 3260.08 833.821 3265.52 833.821 3273.84V3298ZM876.759 3298H881.639V3256.4H876.759V3298ZM876.759 3245.92H881.639V3241.2H876.759V3245.92ZM891.681 3298H896.561V3274.08C896.561 3264.56 902.561 3260.08 909.681 3260.08C916.881 3260.08 922.561 3264.56 922.561 3274.08V3298H927.441V3273.52C927.441 3261.12 919.841 3255.6 910.961 3255.6C903.281 3255.6 898.641 3259.6 896.561 3263.68V3256.4H891.681V3298ZM957.3 3314.64C967.06 3314.64 977.94 3310.16 977.94 3296.08V3256.4H973.06V3265.28H972.74C970.34 3259.92 963.94 3255.6 956.1 3255.6C945.86 3255.6 935.54 3263.04 935.54 3277.2C935.54 3291.36 945.86 3298.8 956.1 3298.8C963.94 3298.8 970.34 3294.48 972.74 3289.12H973.06V3295.84C973.06 3306.72 965.06 3310.4 956.74 3310.4C950.98 3310.4 946.98 3308.64 945.06 3307.36V3311.68C946.9 3312.96 951.38 3314.64 957.3 3314.64ZM940.42 3277.2C940.42 3265.68 948.66 3260.08 956.74 3260.08C964.9 3260.08 973.22 3265.76 973.22 3277.2C973.22 3288.64 964.9 3294.32 956.74 3294.32C948.66 3294.32 940.42 3288.72 940.42 3277.2ZM461.121 3393.8C461.121 3391.4 461.494 3389.48 462.241 3388.04C463.041 3386.55 464.108 3385.48 465.441 3384.84C466.828 3384.2 468.348 3383.88 470.001 3383.88C471.654 3383.88 473.148 3384.2 474.481 3384.84C475.814 3385.48 476.881 3386.55 477.681 3388.04C478.481 3389.48 478.881 3391.4 478.881 3393.8C478.881 3396.15 478.481 3398.07 477.681 3399.56C476.881 3401 475.814 3402.07 474.481 3402.76C473.148 3403.4 471.654 3403.72 470.001 3403.72C468.348 3403.72 466.828 3403.4 465.441 3402.76C464.108 3402.07 463.041 3401 462.241 3399.56C461.494 3398.07 461.121 3396.15 461.121 3393.8ZM570.4 3423H575.36V3366.2H570.4V3392.84H540V3366.2H535.04V3423H540V3397.48H570.4V3423ZM585.431 3423H590.311V3381.4H585.431V3423ZM585.431 3370.92H590.311V3366.2H585.431V3370.92ZM631.873 3390.6V3396.76H599.953V3390.6H631.873ZM646.175 3375.96V3381.4H641.615V3385.48H646.175V3423H651.055V3385.48H662.895V3381.4H651.055V3376.6C651.055 3370.68 653.935 3368.92 657.615 3368.92C659.535 3368.92 661.455 3369.4 662.895 3370.2V3366.28C661.455 3365.4 659.455 3364.68 656.815 3364.68C652.175 3364.68 646.175 3366.84 646.175 3375.96ZM670.587 3423H675.467V3381.4H670.587V3423ZM670.587 3370.92H675.467V3366.2H670.587V3370.92ZM725.909 3423V3366.2H721.029V3390.28H720.789C718.389 3384.92 711.989 3380.6 704.149 3380.6C693.749 3380.6 683.509 3388.04 683.509 3402.2C683.509 3416.36 693.749 3423.8 704.149 3423.8C711.989 3423.8 718.389 3419.48 720.789 3414.12H721.029V3423H725.909ZM688.389 3402.2C688.389 3390.68 696.629 3385.08 704.789 3385.08C712.949 3385.08 721.189 3390.76 721.189 3402.2C721.189 3413.64 712.949 3419.32 704.789 3419.32C696.629 3419.32 688.389 3413.72 688.389 3402.2ZM755.098 3423.8C761.578 3423.8 767.658 3421.16 771.418 3416.52L768.858 3413.88C765.818 3417.48 760.938 3419.48 755.658 3419.48C746.938 3419.48 739.418 3414.04 738.618 3403.96H774.378C775.738 3388.28 765.098 3380.6 754.538 3380.6C744.138 3380.6 733.978 3388.2 733.978 3402.12C733.978 3416.12 744.058 3423.8 755.098 3423.8ZM738.618 3400.04C739.498 3390.12 746.858 3384.92 754.538 3384.92C762.458 3384.92 769.738 3390.28 769.978 3400.04H738.618ZM782.54 3423H787.42V3366.2H782.54V3423ZM797.462 3423H802.342V3381.4H797.462V3423ZM797.462 3370.92H802.342V3366.2H797.462V3370.92ZM823.744 3423.48C825.344 3423.48 827.104 3423.24 828.544 3422.28V3418.28C827.024 3418.92 825.744 3419.08 824.784 3419.08C821.984 3419.08 820.624 3417.64 820.624 3414.92V3385.48H828.704V3381.4H820.624V3370.76H815.744V3381.4H810.384V3385.48H815.744V3415.96C815.744 3421.16 818.944 3423.48 823.744 3423.48ZM845.069 3438.2H849.869L856.589 3423L874.349 3381.4H869.229L854.349 3416.76L839.469 3381.4H834.349L851.949 3422.68L845.069 3438.2ZM899.024 3423H903.984V3366.2H899.024V3423ZM914.103 3423H918.983V3399.08C918.983 3389.56 924.983 3385.08 932.103 3385.08C939.303 3385.08 944.983 3389.56 944.983 3399.08V3423H949.863V3398.52C949.863 3386.12 942.263 3380.6 933.383 3380.6C925.703 3380.6 921.063 3384.6 918.983 3388.68V3381.4H914.103V3423ZM970.15 3423.48C971.75 3423.48 973.51 3423.24 974.95 3422.28V3418.28C973.43 3418.92 972.15 3419.08 971.19 3419.08C968.39 3419.08 967.03 3417.64 967.03 3414.92V3385.48H975.11V3381.4H967.03V3370.76H962.15V3381.4H956.79V3385.48H962.15V3415.96C962.15 3421.16 965.35 3423.48 970.15 3423.48ZM1002.29 3423.8C1008.77 3423.8 1014.85 3421.16 1018.61 3416.52L1016.05 3413.88C1013.01 3417.48 1008.13 3419.48 1002.85 3419.48C994.125 3419.48 986.605 3414.04 985.805 3403.96H1021.57C1022.93 3388.28 1012.29 3380.6 1001.73 3380.6C991.325 3380.6 981.165 3388.2 981.165 3402.12C981.165 3416.12 991.245 3423.8 1002.29 3423.8ZM985.805 3400.04C986.685 3390.12 994.045 3384.92 1001.73 3384.92C1009.65 3384.92 1016.93 3390.28 1017.17 3400.04H985.805ZM1029.73 3423H1034.61V3400.92C1034.61 3391.16 1040.61 3385.16 1048.21 3385.16C1049.09 3385.16 1049.65 3385.24 1050.29 3385.4V3380.84C1049.73 3380.68 1049.09 3380.6 1048.13 3380.6C1040.45 3380.6 1036.29 3385.48 1034.61 3391.08V3381.4H1029.73V3423ZM1075.87 3423.8C1083.71 3423.8 1090.11 3419.48 1092.51 3414.12H1092.75V3423H1097.63V3381.4H1092.75V3390.28H1092.51C1090.11 3384.92 1083.71 3380.6 1075.87 3380.6C1065.47 3380.6 1055.23 3388.04 1055.23 3402.2C1055.23 3416.36 1065.47 3423.8 1075.87 3423.8ZM1060.11 3402.2C1060.11 3390.68 1068.35 3385.08 1076.51 3385.08C1084.67 3385.08 1092.91 3390.76 1092.91 3402.2C1092.91 3413.64 1084.67 3419.32 1076.51 3419.32C1068.35 3419.32 1060.11 3413.72 1060.11 3402.2ZM1127.06 3423.8C1134.26 3423.8 1141.22 3420.28 1144.82 3413.56L1140.98 3411.4C1138.18 3416.52 1132.82 3419.32 1127.22 3419.32C1118.98 3419.32 1110.58 3413.24 1110.58 3402.28C1110.58 3391.16 1118.98 3385.08 1127.22 3385.08C1132.82 3385.08 1138.18 3387.88 1140.98 3393L1144.82 3390.84C1141.22 3384.12 1134.26 3380.6 1127.06 3380.6C1116.42 3380.6 1105.7 3388.36 1105.7 3402.28C1105.7 3416.04 1116.42 3423.8 1127.06 3423.8ZM1164.29 3423.48C1165.89 3423.48 1167.65 3423.24 1169.09 3422.28V3418.28C1167.57 3418.92 1166.29 3419.08 1165.33 3419.08C1162.53 3419.08 1161.17 3417.64 1161.17 3414.92V3385.48H1169.25V3381.4H1161.17V3370.76H1156.29V3381.4H1150.93V3385.48H1156.29V3415.96C1156.29 3421.16 1159.49 3423.48 1164.29 3423.48ZM1177.7 3423H1182.58V3381.4H1177.7V3423ZM1177.7 3370.92H1182.58V3366.2H1177.7V3370.92ZM1207.58 3423H1212.06L1229.82 3381.4H1224.7L1209.82 3416.76L1194.94 3381.4H1189.82L1207.58 3423ZM1253.77 3423.8C1260.25 3423.8 1266.33 3421.16 1270.09 3416.52L1267.53 3413.88C1264.49 3417.48 1259.61 3419.48 1254.33 3419.48C1245.61 3419.48 1238.09 3414.04 1237.29 3403.96H1273.05C1274.41 3388.28 1263.77 3380.6 1253.21 3380.6C1242.81 3380.6 1232.65 3388.2 1232.65 3402.12C1232.65 3416.12 1242.73 3423.8 1253.77 3423.8ZM1237.29 3400.04C1238.17 3390.12 1245.53 3384.92 1253.21 3384.92C1261.13 3384.92 1268.41 3390.28 1268.65 3400.04H1237.29ZM1298.63 3423H1303.59V3402.52H1316.39C1328.55 3402.52 1335.59 3394.84 1335.59 3384.28C1335.59 3373.96 1328.55 3366.2 1316.39 3366.2H1298.63V3423ZM1303.59 3397.8V3370.92H1315.99C1324.95 3370.92 1330.47 3375.64 1330.47 3384.28C1330.47 3392.92 1324.95 3397.8 1315.99 3397.8H1303.59ZM1344.1 3423H1348.98V3400.92C1348.98 3391.16 1354.98 3385.16 1362.58 3385.16C1363.46 3385.16 1364.02 3385.24 1364.66 3385.4V3380.84C1364.1 3380.68 1363.46 3380.6 1362.5 3380.6C1354.82 3380.6 1350.66 3385.48 1348.98 3391.08V3381.4H1344.1V3423ZM1391.04 3423.8C1401.76 3423.8 1412.48 3416.04 1412.48 3402.2C1412.48 3388.36 1401.76 3380.6 1391.04 3380.6C1380.32 3380.6 1369.6 3388.36 1369.6 3402.2C1369.6 3416.04 1380.32 3423.8 1391.04 3423.8ZM1374.48 3402.2C1374.48 3391.16 1382.64 3385.08 1391.04 3385.08C1399.44 3385.08 1407.6 3391.16 1407.6 3402.2C1407.6 3413.24 1399.44 3419.32 1391.04 3419.32C1382.64 3419.32 1374.48 3413.24 1374.48 3402.2ZM1430.78 3423.48C1432.38 3423.48 1434.14 3423.24 1435.58 3422.28V3418.28C1434.06 3418.92 1432.78 3419.08 1431.82 3419.08C1429.02 3419.08 1427.66 3417.64 1427.66 3414.92V3385.48H1435.74V3381.4H1427.66V3370.76H1422.78V3381.4H1417.42V3385.48H1422.78V3415.96C1422.78 3421.16 1425.98 3423.48 1430.78 3423.48ZM1463.23 3423.8C1473.95 3423.8 1484.67 3416.04 1484.67 3402.2C1484.67 3388.36 1473.95 3380.6 1463.23 3380.6C1452.51 3380.6 1441.79 3388.36 1441.79 3402.2C1441.79 3416.04 1452.51 3423.8 1463.23 3423.8ZM1446.67 3402.2C1446.67 3391.16 1454.83 3385.08 1463.23 3385.08C1471.63 3385.08 1479.79 3391.16 1479.79 3402.2C1479.79 3413.24 1471.63 3419.32 1463.23 3419.32C1454.83 3419.32 1446.67 3413.24 1446.67 3402.2ZM1502.96 3423.48C1504.56 3423.48 1506.32 3423.24 1507.76 3422.28V3418.28C1506.24 3418.92 1504.96 3419.08 1504 3419.08C1501.2 3419.08 1499.84 3417.64 1499.84 3414.92V3385.48H1507.92V3381.4H1499.84V3370.76H1494.96V3381.4H1489.6V3385.48H1494.96V3415.96C1494.96 3421.16 1498.16 3423.48 1502.96 3423.48ZM1524.29 3438.2H1529.09L1535.81 3423L1553.57 3381.4H1548.45L1533.57 3416.76L1518.69 3381.4H1513.57L1531.17 3422.68L1524.29 3438.2ZM1560.82 3438.2H1565.7V3414.12H1565.94C1568.34 3419.48 1574.74 3423.8 1582.58 3423.8C1592.98 3423.8 1603.22 3416.36 1603.22 3402.2C1603.22 3388.04 1592.98 3380.6 1582.58 3380.6C1574.74 3380.6 1568.34 3384.92 1565.94 3390.28H1565.7V3381.4H1560.82V3438.2ZM1565.54 3402.2C1565.54 3390.76 1573.78 3385.08 1581.94 3385.08C1590.1 3385.08 1598.34 3390.68 1598.34 3402.2C1598.34 3413.72 1590.1 3419.32 1581.94 3419.32C1573.78 3419.32 1565.54 3413.64 1565.54 3402.2ZM1630.41 3423.8C1636.89 3423.8 1642.97 3421.16 1646.73 3416.52L1644.17 3413.88C1641.13 3417.48 1636.25 3419.48 1630.97 3419.48C1622.25 3419.48 1614.73 3414.04 1613.93 3403.96H1649.69C1651.05 3388.28 1640.41 3380.6 1629.85 3380.6C1619.45 3380.6 1609.29 3388.2 1609.29 3402.12C1609.29 3416.12 1619.37 3423.8 1630.41 3423.8ZM1613.93 3400.04C1614.81 3390.12 1622.17 3384.92 1629.85 3384.92C1637.77 3384.92 1645.05 3390.28 1645.29 3400.04H1613.93Z" fill="black"/>
<path d="M3850.09 3081H3866.53V2995.8H3850.09V3081ZM3942.05 3081V2995.8H3925.97V3027H3925.61C3924.05 3023.52 3916.85 3017.4 3905.69 3017.4C3891.17 3017.4 3875.69 3028.2 3875.69 3049.8C3875.69 3071.4 3891.17 3082.2 3905.69 3082.2C3916.85 3082.2 3924.05 3076.08 3925.61 3072.6H3925.97V3081H3942.05ZM3891.53 3049.8C3891.53 3038.16 3899.93 3031.8 3908.93 3031.8C3917.93 3031.8 3926.33 3038.04 3926.33 3049.8C3926.33 3061.56 3917.93 3067.8 3908.93 3067.8C3899.93 3067.8 3891.53 3061.44 3891.53 3049.8ZM3983.79 3082.2C3994.83 3082.2 4003.83 3077.64 4008.99 3071.16L4001.67 3063.36C3997.11 3067.32 3991.71 3069 3985.59 3069C3976.23 3069 3968.79 3064.56 3966.51 3056.04H4013.19C4016.67 3028.56 3998.67 3017.4 3982.83 3017.4C3966.87 3017.4 3951.27 3028.8 3951.27 3049.8C3951.27 3070.56 3966.63 3082.2 3983.79 3082.2ZM3966.27 3044.28C3968.31 3035.28 3975.51 3030.96 3982.95 3030.96C3990.51 3030.96 3997.95 3035.4 3998.91 3044.28H3966.27ZM4049.83 3082.2C4060.99 3082.2 4068.19 3076.08 4069.75 3072.6H4070.11V3081H4086.19V3018.6H4070.11V3027H4069.75C4068.19 3023.52 4060.99 3017.4 4049.83 3017.4C4035.31 3017.4 4019.83 3028.2 4019.83 3049.8C4019.83 3071.4 4035.31 3082.2 4049.83 3082.2ZM4035.67 3049.8C4035.67 3038.16 4044.07 3031.8 4053.07 3031.8C4062.07 3031.8 4070.47 3038.04 4070.47 3049.8C4070.47 3061.56 4062.07 3067.8 4053.07 3067.8C4044.07 3067.8 4035.67 3061.44 4035.67 3049.8ZM4122.53 3081.72C4126.49 3081.72 4131.05 3081 4133.45 3078.84V3066.48C4131.17 3067.2 4129.01 3067.44 4127.57 3067.44C4122.29 3067.44 4120.49 3064.32 4120.49 3061.08V3031.44H4133.33V3018.6H4120.49V3002.64H4104.29V3018.6H4095.41V3031.44H4104.29V3063.72C4104.29 3076.56 4111.97 3081.72 4122.53 3081.72ZM4172.11 3082.2C4183.15 3082.2 4192.15 3077.64 4197.31 3071.16L4189.99 3063.36C4185.43 3067.32 4180.03 3069 4173.91 3069C4164.55 3069 4157.11 3064.56 4154.83 3056.04H4201.51C4204.99 3028.56 4186.99 3017.4 4171.15 3017.4C4155.19 3017.4 4139.59 3028.8 4139.59 3049.8C4139.59 3070.56 4154.95 3082.2 4172.11 3082.2ZM4154.59 3044.28C4156.63 3035.28 4163.83 3030.96 4171.27 3030.96C4178.83 3030.96 4186.27 3035.4 4187.23 3044.28H4154.59Z" fill="black"/>
<path d="M3568.12 3268.8C3568.12 3266.4 3568.49 3264.48 3569.24 3263.04C3570.04 3261.55 3571.11 3260.48 3572.44 3259.84C3573.83 3259.2 3575.35 3258.88 3577 3258.88C3578.65 3258.88 3580.15 3259.2 3581.48 3259.84C3582.81 3260.48 3583.88 3261.55 3584.68 3263.04C3585.48 3264.48 3585.88 3266.4 3585.88 3268.8C3585.88 3271.15 3585.48 3273.07 3584.68 3274.56C3583.88 3276 3582.81 3277.07 3581.48 3277.76C3580.15 3278.4 3578.65 3278.72 3577 3278.72C3575.35 3278.72 3573.83 3278.4 3572.44 3277.76C3571.11 3277.07 3570.04 3276 3569.24 3274.56C3568.49 3273.07 3568.12 3271.15 3568.12 3268.8ZM3642.04 3298H3660.04C3673.08 3298 3679.16 3291.2 3679.16 3282C3679.16 3274 3674.68 3268.24 3667.16 3266.56C3673.24 3264.56 3675.96 3259.76 3675.96 3254.48C3675.96 3247.44 3671.24 3241.2 3660.76 3241.2H3642.04V3298ZM3647 3293.52V3269.04H3659.72C3669.4 3269.04 3674.28 3274.08 3674.28 3281.68C3674.28 3289.12 3669.4 3293.52 3659.72 3293.52H3647ZM3647 3265.04V3245.68H3659.96C3667.56 3245.68 3671.16 3249.44 3671.16 3255.04C3671.16 3260.88 3667.16 3265.04 3659.72 3265.04H3647ZM3687.67 3298H3692.55V3275.92C3692.55 3266.16 3698.55 3260.16 3706.14 3260.16C3707.03 3260.16 3707.59 3260.24 3708.23 3260.4V3255.84C3707.67 3255.68 3707.03 3255.6 3706.07 3255.6C3698.39 3255.6 3694.23 3260.48 3692.55 3266.08V3256.4H3687.67V3298ZM3733.81 3298.8C3741.65 3298.8 3748.05 3294.48 3750.45 3289.12H3750.69V3298H3755.57V3256.4H3750.69V3265.28H3750.45C3748.05 3259.92 3741.65 3255.6 3733.81 3255.6C3723.41 3255.6 3713.17 3263.04 3713.17 3277.2C3713.17 3291.36 3723.41 3298.8 3733.81 3298.8ZM3718.05 3277.2C3718.05 3265.68 3726.29 3260.08 3734.45 3260.08C3742.61 3260.08 3750.85 3265.76 3750.85 3277.2C3750.85 3288.64 3742.61 3294.32 3734.45 3294.32C3726.29 3294.32 3718.05 3288.72 3718.05 3277.2ZM3765.63 3298H3770.51V3256.4H3765.63V3298ZM3765.63 3245.92H3770.51V3241.2H3765.63V3245.92ZM3780.56 3298H3785.44V3274.08C3785.44 3264.56 3791.44 3260.08 3798.56 3260.08C3805.76 3260.08 3811.44 3264.56 3811.44 3274.08V3298H3816.32V3273.52C3816.32 3261.12 3808.72 3255.6 3799.84 3255.6C3792.16 3255.6 3787.52 3259.6 3785.44 3263.68V3256.4H3780.56V3298ZM3838.26 3298.8C3845.14 3298.8 3852.1 3295.2 3852.1 3287.12C3852.1 3280.4 3847.62 3277.6 3840.42 3274.64L3837.62 3273.52C3832.74 3271.52 3830.82 3269.12 3830.82 3266C3830.82 3261.84 3834.26 3259.76 3838.26 3259.76C3842.66 3259.76 3845.22 3262.08 3846.58 3265.6L3850.5 3264.32C3849.06 3259.04 3844.34 3255.6 3838.1 3255.6C3831.22 3255.6 3826.02 3259.84 3826.02 3266C3826.02 3270.56 3828.82 3274.56 3835.7 3277.36L3838.9 3278.64C3844.34 3280.96 3847.22 3282.88 3847.22 3287.12C3847.22 3292.32 3842.74 3294.56 3838.26 3294.56C3833.38 3294.56 3829.54 3291.76 3828.26 3286.56L3824.01 3287.76C3825.3 3294.56 3830.66 3298.8 3838.26 3298.8ZM3870.74 3298.48C3872.34 3298.48 3874.1 3298.24 3875.54 3297.28V3293.28C3874.02 3293.92 3872.74 3294.08 3871.78 3294.08C3868.98 3294.08 3867.62 3292.64 3867.62 3289.92V3260.48H3875.7V3256.4H3867.62V3245.76H3862.74V3256.4H3857.38V3260.48H3862.74V3290.96C3862.74 3296.16 3865.94 3298.48 3870.74 3298.48ZM3903.2 3298.8C3913.92 3298.8 3924.64 3291.04 3924.64 3277.2C3924.64 3263.36 3913.92 3255.6 3903.2 3255.6C3892.48 3255.6 3881.76 3263.36 3881.76 3277.2C3881.76 3291.04 3892.48 3298.8 3903.2 3298.8ZM3886.64 3277.2C3886.64 3266.16 3894.8 3260.08 3903.2 3260.08C3911.6 3260.08 3919.76 3266.16 3919.76 3277.2C3919.76 3288.24 3911.6 3294.32 3903.2 3294.32C3894.8 3294.32 3886.64 3288.24 3886.64 3277.2ZM3932.74 3298H3937.62V3275.92C3937.62 3266.16 3943.62 3260.16 3951.22 3260.16C3952.1 3260.16 3952.66 3260.24 3953.3 3260.4V3255.84C3952.74 3255.68 3952.1 3255.6 3951.14 3255.6C3943.46 3255.6 3939.3 3260.48 3937.62 3266.08V3256.4H3932.74V3298ZM3989.42 3298H3994.3V3273.84C3994.3 3265.52 3998.61 3260.08 4006.14 3260.08C4013.74 3260.08 4017.42 3265.52 4017.42 3273.84V3298H4022.3V3273.36C4022.3 3261.04 4015.9 3255.6 4007.26 3255.6C3999.18 3255.6 3994.7 3260.32 3992.94 3264.72C3990.62 3258.48 3985.5 3255.6 3979.34 3255.6C3972.3 3255.6 3968.22 3259.28 3966.3 3263.2V3256.4H3961.42V3298H3966.3V3273.84C3966.3 3265.52 3970.54 3260.08 3978.14 3260.08C3985.74 3260.08 3989.42 3265.52 3989.42 3273.84V3298ZM4032.35 3298H4037.23V3256.4H4032.35V3298ZM4032.35 3245.92H4037.23V3241.2H4032.35V3245.92ZM4047.27 3298H4052.15V3274.08C4052.15 3264.56 4058.15 3260.08 4065.27 3260.08C4072.47 3260.08 4078.15 3264.56 4078.15 3274.08V3298H4083.03V3273.52C4083.03 3261.12 4075.43 3255.6 4066.55 3255.6C4058.87 3255.6 4054.23 3259.6 4052.15 3263.68V3256.4H4047.27V3298ZM4112.89 3314.64C4122.65 3314.64 4133.53 3310.16 4133.53 3296.08V3256.4H4128.65V3265.28H4128.33C4125.93 3259.92 4119.53 3255.6 4111.69 3255.6C4101.45 3255.6 4091.13 3263.04 4091.13 3277.2C4091.13 3291.36 4101.45 3298.8 4111.69 3298.8C4119.53 3298.8 4125.93 3294.48 4128.33 3289.12H4128.65V3295.84C4128.65 3306.72 4120.65 3310.4 4112.33 3310.4C4106.57 3310.4 4102.57 3308.64 4100.65 3307.36V3311.68C4102.49 3312.96 4106.97 3314.64 4112.89 3314.64ZM4096.01 3277.2C4096.01 3265.68 4104.25 3260.08 4112.33 3260.08C4120.49 3260.08 4128.81 3265.76 4128.81 3277.2C4128.81 3288.64 4120.49 3294.32 4112.33 3294.32C4104.25 3294.32 4096.01 3288.72 4096.01 3277.2Z" fill="black"/>
<path d="M4063.27 1502H4094.11C4117.63 1502 4135.27 1484.48 4135.27 1459.4C4135.27 1434.32 4117.63 1416.8 4094.11 1416.8H4063.27V1502ZM4079.71 1486.52V1432.28H4093.51C4109.71 1432.28 4118.11 1443.32 4118.11 1459.4C4118.11 1475.48 4109.71 1486.52 4093.51 1486.52H4079.71ZM4174.47 1503.2C4185.51 1503.2 4194.51 1498.64 4199.67 1492.16L4192.35 1484.36C4187.79 1488.32 4182.39 1490 4176.27 1490C4166.91 1490 4159.47 1485.56 4157.19 1477.04H4203.87C4207.35 1449.56 4189.35 1438.4 4173.51 1438.4C4157.55 1438.4 4141.95 1449.8 4141.95 1470.8C4141.95 1491.56 4157.31 1503.2 4174.47 1503.2ZM4156.95 1465.28C4158.99 1456.28 4166.19 1451.96 4173.63 1451.96C4181.19 1451.96 4188.63 1456.4 4189.59 1465.28H4156.95ZM4217.23 1435.52V1439.6H4209.31V1452.44H4217.23V1502H4233.31V1452.44H4249.39V1439.6H4233.31V1437.32C4233.31 1431.2 4236.31 1427.84 4242.43 1427.84C4243.51 1427.84 4246.39 1427.72 4249.39 1429.16V1416.56C4245.91 1414.52 4241.47 1414.16 4238.23 1414.16C4229.95 1414.16 4217.23 1417.16 4217.23 1435.52ZM4258.04 1502H4274.12V1439.6H4258.04V1502ZM4258.04 1430.96H4274.12V1416.8H4258.04V1430.96ZM4286.4 1502H4302.48V1467.92C4302.48 1458.8 4307.52 1452.8 4315.8 1452.8C4324.2 1452.8 4329.12 1458.8 4329.12 1467.92V1502H4345.2V1465.28C4345.2 1446.32 4334.4 1438.4 4321.56 1438.4C4312.2 1438.4 4305.96 1442.6 4302.48 1448.12V1439.6H4286.4V1502ZM4386.93 1503.2C4397.97 1503.2 4406.97 1498.64 4412.13 1492.16L4404.81 1484.36C4400.25 1488.32 4394.85 1490 4388.73 1490C4379.37 1490 4371.93 1485.56 4369.65 1477.04H4416.33C4419.81 1449.56 4401.81 1438.4 4385.97 1438.4C4370.01 1438.4 4354.41 1449.8 4354.41 1470.8C4354.41 1491.56 4369.77 1503.2 4386.93 1503.2ZM4369.41 1465.28C4371.45 1456.28 4378.65 1451.96 4386.09 1451.96C4393.65 1451.96 4401.09 1456.4 4402.05 1465.28H4369.41Z" fill="black"/>
<path d="M3822.12 1689.8C3822.12 1687.4 3822.49 1685.48 3823.24 1684.04C3824.04 1682.55 3825.11 1681.48 3826.44 1680.84C3827.83 1680.2 3829.35 1679.88 3831 1679.88C3832.65 1679.88 3834.15 1680.2 3835.48 1680.84C3836.81 1681.48 3837.88 1682.55 3838.68 1684.04C3839.48 1685.48 3839.88 1687.4 3839.88 1689.8C3839.88 1692.15 3839.48 1694.07 3838.68 1695.56C3837.88 1697 3836.81 1698.07 3835.48 1698.76C3834.15 1699.4 3832.65 1699.72 3831 1699.72C3829.35 1699.72 3827.83 1699.4 3826.44 1698.76C3825.11 1698.07 3824.04 1697 3823.24 1695.56C3822.49 1694.07 3822.12 1692.15 3822.12 1689.8ZM3896.04 1719H3901V1698.52H3913.8C3925.96 1698.52 3933 1690.84 3933 1680.28C3933 1669.96 3925.96 1662.2 3913.8 1662.2H3896.04V1719ZM3901 1693.8V1666.92H3913.4C3922.36 1666.92 3927.88 1671.64 3927.88 1680.28C3927.88 1688.92 3922.36 1693.8 3913.4 1693.8H3901ZM3959.07 1719.8C3965.55 1719.8 3971.63 1717.16 3975.39 1712.52L3972.83 1709.88C3969.79 1713.48 3964.91 1715.48 3959.63 1715.48C3950.91 1715.48 3943.39 1710.04 3942.59 1699.96H3978.35C3979.71 1684.28 3969.07 1676.6 3958.51 1676.6C3948.11 1676.6 3937.95 1684.2 3937.95 1698.12C3937.95 1712.12 3948.03 1719.8 3959.07 1719.8ZM3942.59 1696.04C3943.47 1686.12 3950.83 1680.92 3958.51 1680.92C3966.43 1680.92 3973.71 1686.28 3973.95 1696.04H3942.59ZM3986.51 1719H3991.39V1696.92C3991.39 1687.16 3997.39 1681.16 4004.99 1681.16C4005.87 1681.16 4006.43 1681.24 4007.07 1681.4V1676.84C4006.51 1676.68 4005.87 1676.6 4004.91 1676.6C3997.23 1676.6 3993.07 1681.48 3991.39 1687.08V1677.4H3986.51V1719ZM4026.24 1719.8C4033.12 1719.8 4040.08 1716.2 4040.08 1708.12C4040.08 1701.4 4035.6 1698.6 4028.4 1695.64L4025.6 1694.52C4020.72 1692.52 4018.8 1690.12 4018.8 1687C4018.8 1682.84 4022.24 1680.76 4026.24 1680.76C4030.64 1680.76 4033.2 1683.08 4034.56 1686.6L4038.48 1685.32C4037.04 1680.04 4032.32 1676.6 4026.08 1676.6C4019.2 1676.6 4014 1680.84 4014 1687C4014 1691.56 4016.8 1695.56 4023.68 1698.36L4026.88 1699.64C4032.32 1701.96 4035.2 1703.88 4035.2 1708.12C4035.2 1713.32 4030.72 1715.56 4026.24 1715.56C4021.36 1715.56 4017.52 1712.76 4016.24 1707.56L4012 1708.76C4013.28 1715.56 4018.64 1719.8 4026.24 1719.8ZM4067.59 1719.8C4078.31 1719.8 4089.03 1712.04 4089.03 1698.2C4089.03 1684.36 4078.31 1676.6 4067.59 1676.6C4056.87 1676.6 4046.15 1684.36 4046.15 1698.2C4046.15 1712.04 4056.87 1719.8 4067.59 1719.8ZM4051.03 1698.2C4051.03 1687.16 4059.19 1681.08 4067.59 1681.08C4075.99 1681.08 4084.15 1687.16 4084.15 1698.2C4084.15 1709.24 4075.99 1715.32 4067.59 1715.32C4059.19 1715.32 4051.03 1709.24 4051.03 1698.2ZM4097.13 1719H4102.01V1695.08C4102.01 1685.56 4108.01 1681.08 4115.13 1681.08C4122.33 1681.08 4128.01 1685.56 4128.01 1695.08V1719H4132.89V1694.52C4132.89 1682.12 4125.29 1676.6 4116.41 1676.6C4108.73 1676.6 4104.09 1680.6 4102.01 1684.68V1677.4H4097.13V1719ZM4161.63 1719.8C4169.47 1719.8 4175.87 1715.48 4178.27 1710.12H4178.51V1719H4183.39V1677.4H4178.51V1686.28H4178.27C4175.87 1680.92 4169.47 1676.6 4161.63 1676.6C4151.23 1676.6 4140.99 1684.04 4140.99 1698.2C4140.99 1712.36 4151.23 1719.8 4161.63 1719.8ZM4145.87 1698.2C4145.87 1686.68 4154.11 1681.08 4162.27 1681.08C4170.43 1681.08 4178.67 1686.76 4178.67 1698.2C4178.67 1709.64 4170.43 1715.32 4162.27 1715.32C4154.11 1715.32 4145.87 1709.72 4145.87 1698.2ZM4205.3 1719.8C4212.18 1719.8 4219.14 1716.2 4219.14 1708.12C4219.14 1701.4 4214.66 1698.6 4207.46 1695.64L4204.66 1694.52C4199.78 1692.52 4197.86 1690.12 4197.86 1687C4197.86 1682.84 4201.3 1680.76 4205.3 1680.76C4209.7 1680.76 4212.26 1683.08 4213.62 1686.6L4217.54 1685.32C4216.1 1680.04 4211.38 1676.6 4205.14 1676.6C4198.26 1676.6 4193.06 1680.84 4193.06 1687C4193.06 1691.56 4195.86 1695.56 4202.74 1698.36L4205.94 1699.64C4211.38 1701.96 4214.26 1703.88 4214.26 1708.12C4214.26 1713.32 4209.78 1715.56 4205.3 1715.56C4200.42 1715.56 4196.58 1712.76 4195.3 1707.56L4191.06 1708.76C4192.34 1715.56 4197.7 1719.8 4205.3 1719.8ZM3822.12 1814.8C3822.12 1812.4 3822.49 1810.48 3823.24 1809.04C3824.04 1807.55 3825.11 1806.48 3826.44 1805.84C3827.83 1805.2 3829.35 1804.88 3831 1804.88C3832.65 1804.88 3834.15 1805.2 3835.48 1805.84C3836.81 1806.48 3837.88 1807.55 3838.68 1809.04C3839.48 1810.48 3839.88 1812.4 3839.88 1814.8C3839.88 1817.15 3839.48 1819.07 3838.68 1820.56C3837.88 1822 3836.81 1823.07 3835.48 1823.76C3834.15 1824.4 3832.65 1824.72 3831 1824.72C3829.35 1824.72 3827.83 1824.4 3826.44 1823.76C3825.11 1823.07 3824.04 1822 3823.24 1820.56C3822.49 1819.07 3822.12 1817.15 3822.12 1814.8ZM3912.68 1844.8C3922.12 1844.8 3930.28 1839.28 3930.28 1829.2C3930.28 1820.24 3923.96 1816.24 3915 1812.64L3911.16 1811.12C3904.12 1808.4 3901.4 1804.88 3901.4 1800.32C3901.4 1794.56 3906.12 1791.04 3912.28 1791.04C3918.68 1791.04 3922.68 1794.64 3924.84 1800.08L3928.76 1798.16C3926.68 1792 3921.32 1786.4 3912.12 1786.4C3903.24 1786.4 3896.44 1791.92 3896.44 1800.32C3896.44 1807.12 3900.84 1811.92 3909.4 1815.28L3913.24 1816.8C3920.28 1819.6 3925.16 1822.48 3925.16 1829.2C3925.16 1836.32 3919.48 1840.08 3912.68 1840.08C3905.4 1840.08 3899.8 1835.76 3898.2 1829.2L3894.04 1831.04C3895.88 1839.2 3903.16 1844.8 3912.68 1844.8ZM3957.74 1844.8C3964.94 1844.8 3971.9 1841.28 3975.5 1834.56L3971.66 1832.4C3968.86 1837.52 3963.5 1840.32 3957.9 1840.32C3949.66 1840.32 3941.26 1834.24 3941.26 1823.28C3941.26 1812.16 3949.66 1806.08 3957.9 1806.08C3963.5 1806.08 3968.86 1808.88 3971.66 1814L3975.5 1811.84C3971.9 1805.12 3964.94 1801.6 3957.74 1801.6C3947.1 1801.6 3936.38 1809.36 3936.38 1823.28C3936.38 1837.04 3947.1 1844.8 3957.74 1844.8ZM4001.8 1844.8C4008.28 1844.8 4014.36 1842.16 4018.12 1837.52L4015.56 1834.88C4012.52 1838.48 4007.64 1840.48 4002.36 1840.48C3993.64 1840.48 3986.12 1835.04 3985.32 1824.96H4021.08C4022.44 1809.28 4011.8 1801.6 4001.24 1801.6C3990.84 1801.6 3980.68 1809.2 3980.68 1823.12C3980.68 1837.12 3990.76 1844.8 4001.8 1844.8ZM3985.32 1821.04C3986.2 1811.12 3993.56 1805.92 4001.24 1805.92C4009.16 1805.92 4016.44 1811.28 4016.68 1821.04H3985.32ZM4029.24 1844H4034.12V1820.08C4034.12 1810.56 4040.12 1806.08 4047.24 1806.08C4054.44 1806.08 4060.12 1810.56 4060.12 1820.08V1844H4065V1819.52C4065 1807.12 4057.4 1801.6 4048.52 1801.6C4040.84 1801.6 4036.2 1805.6 4034.12 1809.68V1802.4H4029.24V1844ZM4093.74 1844.8C4101.58 1844.8 4107.98 1840.48 4110.38 1835.12H4110.62V1844H4115.5V1802.4H4110.62V1811.28H4110.38C4107.98 1805.92 4101.58 1801.6 4093.74 1801.6C4083.34 1801.6 4073.1 1809.04 4073.1 1823.2C4073.1 1837.36 4083.34 1844.8 4093.74 1844.8ZM4077.98 1823.2C4077.98 1811.68 4086.22 1806.08 4094.38 1806.08C4102.54 1806.08 4110.78 1811.76 4110.78 1823.2C4110.78 1834.64 4102.54 1840.32 4094.38 1840.32C4086.22 1840.32 4077.98 1834.72 4077.98 1823.2ZM4125.57 1844H4130.45V1821.92C4130.45 1812.16 4136.45 1806.16 4144.05 1806.16C4144.93 1806.16 4145.49 1806.24 4146.13 1806.4V1801.84C4145.57 1801.68 4144.93 1801.6 4143.97 1801.6C4136.29 1801.6 4132.13 1806.48 4130.45 1812.08V1802.4H4125.57V1844ZM4154.24 1844H4159.12V1802.4H4154.24V1844ZM4154.24 1791.92H4159.12V1787.2H4154.24V1791.92ZM4188.61 1844.8C4199.33 1844.8 4210.05 1837.04 4210.05 1823.2C4210.05 1809.36 4199.33 1801.6 4188.61 1801.6C4177.89 1801.6 4167.17 1809.36 4167.17 1823.2C4167.17 1837.04 4177.89 1844.8 4188.61 1844.8ZM4172.05 1823.2C4172.05 1812.16 4180.21 1806.08 4188.61 1806.08C4197.01 1806.08 4205.17 1812.16 4205.17 1823.2C4205.17 1834.24 4197.01 1840.32 4188.61 1840.32C4180.21 1840.32 4172.05 1834.24 4172.05 1823.2ZM4228.82 1844.8C4235.7 1844.8 4242.66 1841.2 4242.66 1833.12C4242.66 1826.4 4238.18 1823.6 4230.98 1820.64L4228.18 1819.52C4223.3 1817.52 4221.38 1815.12 4221.38 1812C4221.38 1807.84 4224.82 1805.76 4228.82 1805.76C4233.22 1805.76 4235.78 1808.08 4237.14 1811.6L4241.06 1810.32C4239.62 1805.04 4234.9 1801.6 4228.66 1801.6C4221.78 1801.6 4216.58 1805.84 4216.58 1812C4216.58 1816.56 4219.38 1820.56 4226.26 1823.36L4229.46 1824.64C4234.9 1826.96 4237.78 1828.88 4237.78 1833.12C4237.78 1838.32 4233.3 1840.56 4228.82 1840.56C4223.94 1840.56 4220.1 1837.76 4218.82 1832.56L4214.58 1833.76C4215.86 1840.56 4221.22 1844.8 4228.82 1844.8ZM3822.12 1939.8C3822.12 1937.4 3822.49 1935.48 3823.24 1934.04C3824.04 1932.55 3825.11 1931.48 3826.44 1930.84C3827.83 1930.2 3829.35 1929.88 3831 1929.88C3832.65 1929.88 3834.15 1930.2 3835.48 1930.84C3836.81 1931.48 3837.88 1932.55 3838.68 1934.04C3839.48 1935.48 3839.88 1937.4 3839.88 1939.8C3839.88 1942.15 3839.48 1944.07 3838.68 1945.56C3837.88 1947 3836.81 1948.07 3835.48 1948.76C3834.15 1949.4 3832.65 1949.72 3831 1949.72C3829.35 1949.72 3827.83 1949.4 3826.44 1948.76C3825.11 1948.07 3824.04 1947 3823.24 1945.56C3822.49 1944.07 3822.12 1942.15 3822.12 1939.8ZM3915.88 1969.8C3927.16 1969.8 3935.72 1962.36 3935.72 1949.08V1912.2H3930.76V1949C3930.76 1959.56 3924.28 1965 3915.88 1965C3907.48 1965 3901 1959.56 3901 1949V1912.2H3896.04V1949.08C3896.04 1962.36 3904.68 1969.8 3915.88 1969.8ZM3957.65 1969.8C3964.53 1969.8 3971.49 1966.2 3971.49 1958.12C3971.49 1951.4 3967.01 1948.6 3959.81 1945.64L3957.01 1944.52C3952.13 1942.52 3950.21 1940.12 3950.21 1937C3950.21 1932.84 3953.65 1930.76 3957.65 1930.76C3962.05 1930.76 3964.61 1933.08 3965.97 1936.6L3969.89 1935.32C3968.45 1930.04 3963.73 1926.6 3957.49 1926.6C3950.61 1926.6 3945.41 1930.84 3945.41 1937C3945.41 1941.56 3948.21 1945.56 3955.09 1948.36L3958.29 1949.64C3963.73 1951.96 3966.61 1953.88 3966.61 1958.12C3966.61 1963.32 3962.13 1965.56 3957.65 1965.56C3952.77 1965.56 3948.93 1962.76 3947.65 1957.56L3943.41 1958.76C3944.69 1965.56 3950.05 1969.8 3957.65 1969.8ZM3998.68 1969.8C4005.16 1969.8 4011.24 1967.16 4015 1962.52L4012.44 1959.88C4009.4 1963.48 4004.52 1965.48 3999.24 1965.48C3990.52 1965.48 3983 1960.04 3982.2 1949.96H4017.96C4019.32 1934.28 4008.68 1926.6 3998.12 1926.6C3987.72 1926.6 3977.56 1934.2 3977.56 1948.12C3977.56 1962.12 3987.64 1969.8 3998.68 1969.8ZM3982.2 1946.04C3983.08 1936.12 3990.44 1930.92 3998.12 1930.92C4006.04 1930.92 4013.32 1936.28 4013.56 1946.04H3982.2ZM4026.12 1969H4031V1946.92C4031 1937.16 4037 1931.16 4044.6 1931.16C4045.48 1931.16 4046.04 1931.24 4046.68 1931.4V1926.84C4046.12 1926.68 4045.48 1926.6 4044.52 1926.6C4036.84 1926.6 4032.68 1931.48 4031 1937.08V1927.4H4026.12V1969ZM4081.15 1969.8C4089.63 1969.8 4097.23 1964.68 4097.23 1952.6V1912.2H4092.27V1952.12C4092.27 1961 4087.47 1965 4080.99 1965C4076.19 1965 4072.99 1962.76 4070.75 1959.4L4067.47 1962.6C4070.03 1967.08 4074.91 1969.8 4081.15 1969.8ZM4126.73 1969.8C4137.45 1969.8 4148.17 1962.04 4148.17 1948.2C4148.17 1934.36 4137.45 1926.6 4126.73 1926.6C4116.01 1926.6 4105.29 1934.36 4105.29 1948.2C4105.29 1962.04 4116.01 1969.8 4126.73 1969.8ZM4110.17 1948.2C4110.17 1937.16 4118.33 1931.08 4126.73 1931.08C4135.13 1931.08 4143.29 1937.16 4143.29 1948.2C4143.29 1959.24 4135.13 1965.32 4126.73 1965.32C4118.33 1965.32 4110.17 1959.24 4110.17 1948.2ZM4192.03 1927.4H4187.15V1951.32C4187.15 1960.84 4181.15 1965.32 4174.03 1965.32C4166.83 1965.32 4161.15 1960.84 4161.15 1951.32V1927.4H4156.27V1951.88C4156.27 1964.28 4163.87 1969.8 4172.75 1969.8C4180.43 1969.8 4185.07 1965.8 4187.15 1961.72V1969H4192.03V1927.4ZM4202.13 1969H4207.01V1946.92C4207.01 1937.16 4213.01 1931.16 4220.61 1931.16C4221.49 1931.16 4222.05 1931.24 4222.69 1931.4V1926.84C4222.13 1926.68 4221.49 1926.6 4220.53 1926.6C4212.85 1926.6 4208.69 1931.48 4207.01 1937.08V1927.4H4202.13V1969ZM4230.81 1969H4235.69V1945.08C4235.69 1935.56 4241.69 1931.08 4248.81 1931.08C4256.01 1931.08 4261.69 1935.56 4261.69 1945.08V1969H4266.57V1944.52C4266.57 1932.12 4258.97 1926.6 4250.09 1926.6C4242.41 1926.6 4237.77 1930.6 4235.69 1934.68V1927.4H4230.81V1969ZM4295.79 1969.8C4302.27 1969.8 4308.35 1967.16 4312.11 1962.52L4309.55 1959.88C4306.51 1963.48 4301.63 1965.48 4296.35 1965.48C4287.63 1965.48 4280.11 1960.04 4279.31 1949.96H4315.07C4316.43 1934.28 4305.79 1926.6 4295.23 1926.6C4284.83 1926.6 4274.67 1934.2 4274.67 1948.12C4274.67 1962.12 4284.75 1969.8 4295.79 1969.8ZM4279.31 1946.04C4280.19 1936.12 4287.55 1930.92 4295.23 1930.92C4303.15 1930.92 4310.43 1936.28 4310.67 1946.04H4279.31ZM4328.73 1984.2H4333.53L4340.25 1969L4358.01 1927.4H4352.89L4338.01 1962.76L4323.13 1927.4H4318.01L4335.61 1968.68L4328.73 1984.2ZM4382.68 1969H4387.64V1922.36H4388.04L4410.04 1969H4413.88L4435.88 1922.36H4436.28V1969H4441.24V1912.2H4435.64L4411.96 1962.52L4388.28 1912.2H4382.68V1969ZM4469.99 1969.8C4477.83 1969.8 4484.23 1965.48 4486.63 1960.12H4486.87V1969H4491.75V1927.4H4486.87V1936.28H4486.63C4484.23 1930.92 4477.83 1926.6 4469.99 1926.6C4459.59 1926.6 4449.35 1934.04 4449.35 1948.2C4449.35 1962.36 4459.59 1969.8 4469.99 1969.8ZM4454.23 1948.2C4454.23 1936.68 4462.47 1931.08 4470.63 1931.08C4478.79 1931.08 4487.03 1936.76 4487.03 1948.2C4487.03 1959.64 4478.79 1965.32 4470.63 1965.32C4462.47 1965.32 4454.23 1959.72 4454.23 1948.2ZM4501.82 1984.2H4506.7V1960.12H4506.94C4509.34 1965.48 4515.74 1969.8 4523.58 1969.8C4533.98 1969.8 4544.22 1962.36 4544.22 1948.2C4544.22 1934.04 4533.98 1926.6 4523.58 1926.6C4515.74 1926.6 4509.34 1930.92 4506.94 1936.28H4506.7V1927.4H4501.82V1984.2ZM4506.54 1948.2C4506.54 1936.76 4514.78 1931.08 4522.94 1931.08C4531.1 1931.08 4539.34 1936.68 4539.34 1948.2C4539.34 1959.72 4531.1 1965.32 4522.94 1965.32C4514.78 1965.32 4506.54 1959.64 4506.54 1948.2ZM4562.96 1969.8C4569.84 1969.8 4576.8 1966.2 4576.8 1958.12C4576.8 1951.4 4572.32 1948.6 4565.12 1945.64L4562.32 1944.52C4557.44 1942.52 4555.52 1940.12 4555.52 1937C4555.52 1932.84 4558.96 1930.76 4562.96 1930.76C4567.36 1930.76 4569.92 1933.08 4571.28 1936.6L4575.2 1935.32C4573.76 1930.04 4569.04 1926.6 4562.8 1926.6C4555.92 1926.6 4550.72 1930.84 4550.72 1937C4550.72 1941.56 4553.52 1945.56 4560.4 1948.36L4563.6 1949.64C4569.04 1951.96 4571.92 1953.88 4571.92 1958.12C4571.92 1963.32 4567.44 1965.56 4562.96 1965.56C4558.08 1965.56 4554.24 1962.76 4552.96 1957.56L4548.72 1958.76C4550 1965.56 4555.36 1969.8 4562.96 1969.8Z" fill="black"/>
<mask id="mask0_232_416" style="mask-type:alpha" maskUnits="userSpaceOnUse" x="3358" y="1508" width="400" height="400">
<rect x="3358" y="1508" width="400" height="400" fill="#D9D9D9"/>
</mask>
<g mask="url(#mask0_232_416)">
<path d="M3504.25 1858C3477.31 1858 3454.53 1848.69 3435.92 1830.08C3417.31 1811.47 3408 1788.69 3408 1761.75V1654.25C3408 1627.31 3417.31 1604.53 3435.92 1585.92C3454.53 1567.31 3477.31 1558 3504.25 1558H3611.75C3638.69 1558 3661.47 1567.31 3680.08 1585.92C3698.69 1604.53 3708 1627.31 3708 1654.25V1761.75C3708 1788.69 3698.69 1811.47 3680.08 1830.08C3661.47 1848.69 3638.69 1858 3611.75 1858H3504.25ZM3540.92 1772.58L3640.92 1672.58L3623 1654.67L3540.92 1736.75L3500.5 1696.33L3482.58 1714.25L3540.92 1772.58Z" fill="#131B25"/>
</g>
<mask id="mask1_232_416" style="mask-type:alpha" maskUnits="userSpaceOnUse" x="2286" y="771" width="400" height="402">
<rect x="2286" y="771" width="400" height="401.31" fill="#D9D9D9"/>
</mask>
<g mask="url(#mask1_232_416)">
<path d="M2486 1121.73L2468.92 1106.26C2439.47 1079.23 2415.17 1055.89 2396 1036.24C2376.83 1016.59 2361.56 999.037 2350.17 983.57C2338.78 968.103 2330.79 954.099 2326.21 941.558C2321.62 929.017 2319.33 916.337 2319.33 903.517C2319.33 878.435 2327.74 857.464 2344.54 840.603C2361.35 823.743 2382.11 815.312 2406.83 815.312C2422.67 815.312 2437.32 819.075 2450.79 826.599C2464.26 834.124 2476 844.993 2486 859.206C2497.67 844.157 2510.03 833.079 2523.08 825.972C2536.14 818.866 2550.17 815.312 2565.17 815.312C2589.89 815.312 2610.65 823.743 2627.46 840.603C2644.26 857.464 2652.67 878.435 2652.67 903.517C2652.67 916.337 2650.37 929.017 2645.79 941.558C2641.21 954.099 2633.22 968.103 2621.83 983.57C2610.44 999.037 2595.17 1016.59 2576 1036.24C2556.83 1055.89 2532.53 1079.23 2503.08 1106.26L2486 1121.73Z" fill="#131B25"/>
</g>
<mask id="mask2_232_416" style="mask-type:alpha" maskUnits="userSpaceOnUse" x="3224" y="2739" width="400" height="400">
<rect x="3224" y="2739" width="400" height="400" fill="#D9D9D9"/>
</mask>
<g mask="url(#mask2_232_416)">
<path d="M3424 3105.65C3414.56 3105.65 3406.57 3102.39 3400.04 3095.86C3393.51 3089.34 3390.25 3081.35 3390.25 3071.9H3457.75C3457.75 3081.35 3454.49 3089.34 3447.96 3095.86C3441.43 3102.39 3433.44 3105.65 3424 3105.65ZM3356.5 3046.07V3021.07H3491.5V3046.07H3356.5ZM3358.58 2995.65C3340.25 2983.71 3325.74 2968.78 3315.04 2950.86C3304.35 2932.95 3299 2912.74 3299 2890.24C3299 2856.35 3311.36 2827.04 3336.08 2802.32C3360.81 2777.6 3390.11 2765.24 3424 2765.24C3457.89 2765.24 3487.19 2777.6 3511.92 2802.32C3536.64 2827.04 3549 2856.35 3549 2890.24C3549 2912.74 3543.72 2932.95 3533.17 2950.86C3522.61 2968.78 3508.03 2983.71 3489.42 2995.65H3358.58Z" fill="#131B25"/>
</g>
<mask id="mask3_232_416" style="mask-type:alpha" maskUnits="userSpaceOnUse" x="1130" y="1455" width="400" height="400">
<rect x="1130" y="1455" width="400" height="400" fill="#D9D9D9"/>
</mask>
<g mask="url(#mask3_232_416)">
<path d="M1227.08 1821.67L1254.17 1704.58L1163.33 1625.83L1283.33 1615.42L1330 1505L1376.67 1615.42L1496.67 1625.83L1405.83 1704.58L1432.92 1821.67L1330 1759.58L1227.08 1821.67Z" fill="#131B25"/>
</g>
<mask id="mask4_232_416" style="mask-type:alpha" maskUnits="userSpaceOnUse" x="1357" y="2722" width="400" height="400">
<rect x="1357" y="2722" width="400" height="400" fill="#D9D9D9"/>
</mask>
<g mask="url(#mask4_232_416)">
<path d="M1423.67 2972C1409.78 2972 1397.97 2967.14 1388.25 2957.42C1378.53 2947.69 1373.67 2935.89 1373.67 2922C1373.67 2908.11 1378.53 2896.3 1388.25 2886.58C1397.97 2876.86 1409.78 2872 1423.67 2872V2838.67C1423.67 2829.5 1426.93 2821.65 1433.47 2815.13C1439.99 2808.6 1447.83 2805.33 1457 2805.33H1507C1507 2791.44 1511.86 2779.64 1521.58 2769.92C1531.31 2760.19 1543.11 2755.33 1557 2755.33C1570.89 2755.33 1582.69 2760.19 1592.42 2769.92C1602.14 2779.64 1607 2791.44 1607 2805.33H1657C1666.17 2805.33 1674.02 2808.6 1680.55 2815.13C1687.07 2821.65 1690.33 2829.5 1690.33 2838.67V2872C1704.22 2872 1716.03 2876.86 1725.75 2886.58C1735.47 2896.3 1740.33 2908.11 1740.33 2922C1740.33 2935.89 1735.47 2947.69 1725.75 2957.42C1716.03 2967.14 1704.22 2972 1690.33 2972V3038.67C1690.33 3047.83 1687.07 3055.68 1680.55 3062.22C1674.02 3068.74 1666.17 3072 1657 3072H1457C1447.83 3072 1439.99 3068.74 1433.47 3062.22C1426.93 3055.68 1423.67 3047.83 1423.67 3038.67V2972ZM1507 2938.67C1513.94 2938.67 1519.84 2936.23 1524.7 2931.37C1529.57 2926.51 1532 2920.61 1532 2913.67C1532 2906.72 1529.57 2900.82 1524.7 2895.97C1519.84 2891.1 1513.94 2888.67 1507 2888.67C1500.06 2888.67 1494.16 2891.1 1489.3 2895.97C1484.43 2900.82 1482 2906.72 1482 2913.67C1482 2920.61 1484.43 2926.51 1489.3 2931.37C1494.16 2936.23 1500.06 2938.67 1507 2938.67ZM1607 2938.67C1613.94 2938.67 1619.84 2936.23 1624.7 2931.37C1629.57 2926.51 1632 2920.61 1632 2913.67C1632 2906.72 1629.57 2900.82 1624.7 2895.97C1619.84 2891.1 1613.94 2888.67 1607 2888.67C1600.06 2888.67 1594.16 2891.1 1589.3 2895.97C1584.43 2900.82 1582 2906.72 1582 2913.67C1582 2920.61 1584.43 2926.51 1589.3 2931.37C1594.16 2936.23 1600.06 2938.67 1607 2938.67ZM1490.33 3005.33H1623.67V2972H1490.33V3005.33Z" fill="#1C1B1F"/>
</g>
</svg>
