<svg width="258" height="109" viewBox="0 0 258 109" fill="none" xmlns="http://www.w3.org/2000/svg">
<mask id="mask0_317_361" style="mask-type:alpha" maskUnits="userSpaceOnUse" x="120" y="39" width="48" height="47">
<rect x="120.401" y="43.2402" width="43.2088" height="42.1339" transform="rotate(-5.51708 120.401 43.2402)" fill="#D9D9D9"/>
</mask>
<g mask="url(#mask0_317_361)">
<path d="M156.359 54.0962L154.01 49.9136L149.157 48.3541L153.626 45.9382L155.152 41.602L157.479 45.5661L162.328 47.0819L157.863 49.5415L156.359 54.0962ZM158.869 80.0894L156.538 76.0816L151.689 74.5658L156.158 72.1499L157.658 67.5515L160.011 71.7777L164.86 73.2936L160.391 75.7095L158.869 80.0894ZM138.552 75.2614L133.599 67.0534L124.214 63.9914L132.839 59.1899L136.134 50.2293L141.128 58.3893L150.467 61.4556L141.887 66.2528L138.552 75.2614Z" fill="#C396D2"/>
</g>
<mask id="mask1_317_361" style="mask-type:alpha" maskUnits="userSpaceOnUse" x="162" y="31" width="48" height="47">
<rect x="162.761" y="35.2617" width="43.2088" height="42.1339" transform="rotate(-5.51708 162.761 35.2617)" fill="#D9D9D9"/>
</mask>
<g mask="url(#mask1_317_361)">
<path d="M198.718 46.1177L196.37 41.9351L191.517 40.3756L195.986 37.9597L197.512 33.6234L199.839 37.5875L204.688 39.1034L200.223 41.563L198.718 46.1177ZM201.229 72.1109L198.898 68.1031L194.048 66.5873L198.518 64.1714L200.018 59.573L202.371 63.7992L207.22 65.3151L202.75 67.731L201.229 72.1109ZM180.912 67.2829L175.959 59.0749L166.574 56.0129L175.199 51.2114L178.494 42.2508L183.487 50.4108L192.827 53.4771L184.247 58.2743L180.912 67.2829Z" fill="#C396D2"/>
</g>
<mask id="mask2_317_361" style="mask-type:alpha" maskUnits="userSpaceOnUse" x="202" y="23" width="48" height="47">
<rect x="202.14" y="27.6309" width="43.2088" height="42.1339" transform="rotate(-5.51708 202.14 27.6309)" fill="#D9D9D9"/>
</mask>
<g mask="url(#mask2_317_361)">
<path d="M238.098 38.4868L235.749 34.3043L230.896 32.7447L235.365 30.3288L236.891 25.9926L239.218 29.9567L244.067 31.4725L239.602 33.9321L238.098 38.4868ZM240.609 64.4801L238.277 60.4723L233.428 58.9564L237.897 56.5405L239.397 51.9421L241.75 56.1684L246.599 57.6842L242.13 60.1001L240.609 64.4801ZM220.291 59.6521L215.338 51.444L205.954 48.3821L214.579 43.5805L217.873 34.6199L222.867 42.78L232.207 45.8463L223.626 50.6435L220.291 59.6521Z" fill="#C396D2"/>
</g>
<mask id="mask3_317_361" style="mask-type:alpha" maskUnits="userSpaceOnUse" x="241" y="15" width="48" height="47">
<rect x="241.52" y="20" width="43.2088" height="42.1339" transform="rotate(-5.51708 241.52 20)" fill="#D9D9D9"/>
</mask>
<g mask="url(#mask3_317_361)">
<path d="M277.477 30.8559L275.129 26.6734L270.275 25.1139L274.745 22.698L276.27 18.3617L278.598 22.3258L283.447 23.8417L278.982 26.3013L277.477 30.8559ZM279.988 56.8492L277.656 52.8414L272.807 51.3256L277.277 48.9096L278.777 44.3113L281.129 48.5375L285.979 50.0533L281.509 52.4692L279.988 56.8492ZM259.671 52.0212L254.718 43.8132L245.333 40.7512L253.958 35.9497L257.253 26.9891L262.246 35.1491L271.586 38.2154L263.006 43.0126L259.671 52.0212Z" fill="#C396D2"/>
</g>
<ellipse rx="8.69139" ry="8.29959" transform="matrix(-0.987842 0.155462 0.155462 0.987842 74.4341 94.5909)" fill="#C09ECC"/>
<ellipse rx="8.69139" ry="8.29959" transform="matrix(-0.987842 0.155462 0.155462 0.987842 36.3447 99.126)" fill="#C09ECC"/>
<rect width="17.2086" height="19.5363" rx="8.60432" transform="matrix(-0.966164 -0.257928 -0.226611 0.973985 71.3411 4.43945)" fill="#745390"/>
<rect width="17.2147" height="19.5298" rx="8.60735" transform="matrix(0.76787 -0.640605 0.615078 0.788466 16.6655 15.5156)" fill="#745390"/>
<rect width="63.0589" height="54.4502" rx="10" transform="matrix(-0.987817 0.155618 0.155307 0.987866 76.2903 10.0352)" fill="#745390"/>
<rect width="50.114" height="28.3827" rx="5" transform="matrix(-0.987817 0.155618 0.155307 0.987866 72.8936 25.8027)" fill="#C09ECC"/>
<rect width="6.42016" height="6.4141" transform="matrix(-0.987817 0.155618 0.155307 0.987866 59.9915 25.8027)" fill="#745390"/>
<rect width="6.42016" height="6.19847" transform="matrix(-0.987817 0.155618 0.155307 0.987866 42.0598 29.168)" fill="#745390"/>
<ellipse rx="4.81471" ry="4.75897" transform="matrix(-0.989761 0.142736 0.169262 0.985571 36.8062 46.5494)" fill="#604899"/>
<ellipse rx="4.81471" ry="4.75897" transform="matrix(-0.989761 0.142736 0.169262 0.985571 55.8587 43.5221)" fill="#604899"/>
<rect width="14.0977" height="5.12921" rx="2.56461" transform="matrix(-0.98829 0.152586 0.15839 0.987377 40.6851 21.3164)" fill="#F014C0"/>
<rect width="14.0977" height="5.12921" rx="2.56461" transform="matrix(-0.98829 0.152586 0.15839 0.987377 66.4619 16.8281)" fill="#F014C0"/>
<rect width="107" height="35.8233" rx="17.9117" transform="matrix(-0.987842 0.155462 0.155462 0.987842 105.703 53.6602)" fill="#D4C8EF"/>
<mask id="mask4_317_361" style="mask-type:alpha" maskUnits="userSpaceOnUse" x="78" y="64" width="21" height="21">
<rect x="78.821" y="66.627" width="16.7902" height="18.0337" transform="rotate(-8.9436 78.821 66.627)" fill="#D9D9D9"/>
</mask>
<g mask="url(#mask4_317_361)">
<path d="M84.9977 81.6868C84.6061 81.7484 84.209 81.738 83.8065 81.6556C83.404 81.5731 83.0335 81.3937 82.6949 81.1174C83.0747 80.9055 83.3286 80.6437 83.4566 80.3319C83.5846 80.0202 83.6106 79.6231 83.5347 79.1406C83.449 78.5963 83.5521 78.1078 83.8441 77.6752C84.136 77.2426 84.5353 76.9865 85.0421 76.9067C85.5489 76.8269 86.0077 76.9481 86.4184 77.2701C86.829 77.5921 87.0772 78.0253 87.1629 78.5697C87.2875 79.3614 87.1392 80.0503 86.718 80.6364C86.2967 81.2225 85.7233 81.5726 84.9977 81.6868ZM88.2793 76.6635L86.4469 75.1453L91.8451 67.1456C91.9791 66.9471 92.1435 66.8293 92.3383 66.7923C92.5331 66.7553 92.7315 66.816 92.9335 66.9743L93.5192 67.4336C93.7212 67.592 93.8364 67.7799 93.8647 67.9973C93.893 68.2147 93.8401 68.4227 93.7061 68.6213L88.2793 76.6635Z" fill="#C09ECC"/>
</g>
</svg>
