<svg width="258" height="107" viewBox="0 0 258 107" fill="none" xmlns="http://www.w3.org/2000/svg">
<mask id="mask0_315_325" style="mask-type:alpha" maskUnits="userSpaceOnUse" x="120" y="37" width="48" height="47">
<rect x="120.401" y="41.2402" width="43.2088" height="42.1339" transform="rotate(-5.51708 120.401 41.2402)" fill="#D9D9D9"/>
</mask>
<g mask="url(#mask0_315_325)">
<path d="M156.359 52.0962L154.01 47.9136L149.157 46.3541L153.626 43.9382L155.152 39.602L157.479 43.5661L162.328 45.0819L157.863 47.5415L156.359 52.0962ZM158.869 78.0894L156.538 74.0816L151.689 72.5658L156.158 70.1499L157.658 65.5515L160.011 69.7777L164.86 71.2936L160.391 73.7095L158.869 78.0894ZM138.552 73.2614L133.599 65.0534L124.214 61.9914L132.839 57.1899L136.134 48.2293L141.128 56.3893L150.467 59.4556L141.887 64.2528L138.552 73.2614Z" fill="#C396D2"/>
</g>
<mask id="mask1_315_325" style="mask-type:alpha" maskUnits="userSpaceOnUse" x="162" y="29" width="48" height="47">
<rect x="162.761" y="33.2617" width="43.2088" height="42.1339" transform="rotate(-5.51708 162.761 33.2617)" fill="#D9D9D9"/>
</mask>
<g mask="url(#mask1_315_325)">
<path d="M198.718 44.1177L196.37 39.9351L191.517 38.3756L195.986 35.9597L197.512 31.6234L199.839 35.5875L204.688 37.1034L200.223 39.563L198.718 44.1177ZM201.229 70.1109L198.898 66.1031L194.048 64.5873L198.518 62.1714L200.018 57.573L202.371 61.7992L207.22 63.3151L202.75 65.731L201.229 70.1109ZM180.912 65.2829L175.959 57.0749L166.574 54.0129L175.199 49.2114L178.494 40.2508L183.487 48.4108L192.827 51.4771L184.247 56.2743L180.912 65.2829Z" fill="#C396D2"/>
</g>
<mask id="mask2_315_325" style="mask-type:alpha" maskUnits="userSpaceOnUse" x="202" y="21" width="48" height="47">
<rect x="202.14" y="25.6309" width="43.2088" height="42.1339" transform="rotate(-5.51708 202.14 25.6309)" fill="#D9D9D9"/>
</mask>
<g mask="url(#mask2_315_325)">
<path d="M238.098 36.4868L235.749 32.3043L230.896 30.7447L235.365 28.3288L236.891 23.9926L239.218 27.9567L244.067 29.4725L239.602 31.9321L238.098 36.4868ZM240.609 62.4801L238.277 58.4723L233.428 56.9564L237.897 54.5405L239.397 49.9421L241.75 54.1684L246.599 55.6842L242.13 58.1001L240.609 62.4801ZM220.291 57.6521L215.338 49.444L205.954 46.3821L214.579 41.5805L217.873 32.6199L222.867 40.78L232.207 43.8463L223.626 48.6435L220.291 57.6521Z" fill="#C396D2"/>
</g>
<mask id="mask3_315_325" style="mask-type:alpha" maskUnits="userSpaceOnUse" x="241" y="13" width="48" height="47">
<rect x="241.52" y="18" width="43.2088" height="42.1339" transform="rotate(-5.51708 241.52 18)" fill="#D9D9D9"/>
</mask>
<g mask="url(#mask3_315_325)">
<path d="M277.477 28.8559L275.129 24.6734L270.275 23.1139L274.745 20.698L276.27 16.3617L278.598 20.3258L283.447 21.8417L278.982 24.3013L277.477 28.8559ZM279.988 54.8492L277.656 50.8414L272.807 49.3256L277.277 46.9096L278.777 42.3113L281.129 46.5375L285.979 48.0533L281.509 50.4693L279.988 54.8492ZM259.671 50.0212L254.718 41.8132L245.333 38.7512L253.958 33.9497L257.253 24.9891L262.246 33.1491L271.586 36.2154L263.006 41.0126L259.671 50.0212Z" fill="#C396D2"/>
</g>
<ellipse rx="8.69139" ry="8.29959" transform="matrix(-0.987842 0.155462 0.155462 0.987842 74.4341 92.5909)" fill="#C09ECC"/>
<ellipse rx="8.69139" ry="8.29959" transform="matrix(-0.987842 0.155462 0.155462 0.987842 36.3445 97.126)" fill="#C09ECC"/>
<rect width="15.3538" height="17.4149" rx="7.67691" transform="matrix(-0.927701 -0.373325 -0.343642 0.939101 71.228 5.73242)" fill="#745390"/>
<rect width="15.3538" height="17.4149" rx="7.67691" transform="matrix(0.768194 -0.640217 0.615471 0.78816 17.9998 14.8301)" fill="#745390"/>
<rect width="61.6568" height="65.3204" rx="10" transform="matrix(-0.987842 0.155462 0.155462 0.987842 75.907 9)" fill="#745390"/>
<rect width="51.3774" height="27.319" rx="10" transform="matrix(-0.987842 0.155462 0.155462 0.987842 72.7527 26.0137)" fill="#C09ECC"/>
<rect width="5.72841" height="5.71742" transform="matrix(-0.987842 0.155462 0.155462 0.987842 58.6584 27)" fill="#745390"/>
<rect width="5.72841" height="5.83301" transform="matrix(-0.987842 0.155462 0.155462 0.987842 41.6584 30)" fill="#745390"/>
<ellipse rx="4.53907" ry="4.54781" transform="matrix(-0.988686 0.150002 0.161111 0.986936 54.7792 43.1693)" fill="#604899"/>
<ellipse rx="4.53907" ry="4.54781" transform="matrix(-0.988686 0.150002 0.161111 0.986936 38.2201 46.1693)" fill="#604899"/>
<rect width="13.8272" height="5.12321" rx="2.5616" transform="matrix(-0.987842 0.155462 0.155462 0.987842 41.6589 22)" fill="#F014C0"/>
<rect width="13.8272" height="5.12321" rx="2.5616" transform="matrix(-0.987842 0.155462 0.155462 0.987842 65.6589 18)" fill="#F014C0"/>
<rect width="107" height="35.8233" rx="17.9117" transform="matrix(-0.987842 0.155462 0.155462 0.987842 105.703 51.6602)" fill="#D4C8EF"/>
<mask id="mask4_315_325" style="mask-type:alpha" maskUnits="userSpaceOnUse" x="78" y="62" width="21" height="21">
<rect x="78.821" y="64.627" width="16.7902" height="18.0337" transform="rotate(-8.9436 78.821 64.627)" fill="#D9D9D9"/>
</mask>
<g mask="url(#mask4_315_325)">
<path d="M84.9977 79.6868C84.6061 79.7484 84.209 79.738 83.8065 79.6556C83.404 79.5731 83.0335 79.3937 82.6949 79.1174C83.0747 78.9055 83.3286 78.6437 83.4566 78.3319C83.5846 78.0202 83.6106 77.6231 83.5347 77.1406C83.449 76.5963 83.5521 76.1078 83.8441 75.6752C84.136 75.2426 84.5353 74.9865 85.0421 74.9067C85.5489 74.8269 86.0077 74.9481 86.4184 75.2701C86.829 75.5921 87.0772 76.0253 87.1629 76.5697C87.2875 77.3614 87.1392 78.0503 86.718 78.6364C86.2967 79.2225 85.7233 79.5726 84.9977 79.6868ZM88.2793 74.6635L86.4469 73.1453L91.8451 65.1456C91.9791 64.9471 92.1435 64.8293 92.3383 64.7923C92.5331 64.7553 92.7315 64.816 92.9335 64.9743L93.5192 65.4336C93.7212 65.592 93.8364 65.7799 93.8647 65.9973C93.893 66.2147 93.8401 66.4227 93.7061 66.6213L88.2793 74.6635Z" fill="#C09ECC"/>
</g>
</svg>
