<svg width="60" height="26" viewBox="0 0 60 26" fill="none" xmlns="http://www.w3.org/2000/svg">
<rect width="60" height="19" rx="9.5" fill="#91C2D2"/>
<path d="M23 23.2657C23 22.0936 24.0723 21.2145 25.2217 21.4443L29.4435 22.2887C30.1409 22.4282 30.8591 22.4282 31.5565 22.2887L35.7349 21.453C36.9067 21.2187 38 22.1149 38 23.31V23.31C38 24.1063 37.5026 24.8161 36.7375 25.037C35.3437 25.4393 33.0007 26 30.7679 26C27.8449 26 26.4318 25.6797 24.3106 25.0391C23.5305 24.8036 23 24.0805 23 23.2657V23.2657Z" fill="#91C2D2"/>
<circle cx="15" cy="9" r="5" fill="#131B25"/>
<circle cx="46" cy="9" r="5" fill="#131B25"/>
</svg>
