<svg width="1200" height="1127" viewBox="0 0 1200 1127" fill="none" xmlns="http://www.w3.org/2000/svg">
<ellipse cx="600" cy="585.5" rx="600" ry="541.5" fill="#91C2D2"/>
<ellipse cx="600" cy="541.5" rx="600" ry="541.5" fill="#CEDEE5"/>
<circle cx="975" cy="489" r="50" fill="#001A45"/>
<circle cx="727" cy="691" r="90" fill="#001A45"/>
<circle cx="767" cy="954" r="50" fill="#001A45"/>
<circle cx="1043" cy="716" r="25" fill="#001A45"/>
<g clip-path="url(#clip0_49_443)">
<path d="M1009.68 147.178C1013.6 151.048 1019.56 151.36 1023.01 147.876C1026.45 144.391 1026.07 138.429 1022.15 134.56C1018.24 130.69 1012.27 130.377 1008.83 133.862C1005.38 137.346 1005.77 143.308 1009.68 147.178Z" fill="#91C2D2"/>
<path d="M1042.03 176.985C1045.94 180.854 1051.91 181.167 1055.35 177.682C1058.79 174.198 1058.41 168.236 1054.5 164.366C1050.58 160.496 1044.62 160.184 1041.17 163.669C1037.73 167.153 1038.11 173.115 1042.03 176.985Z" fill="#91C2D2"/>
<path d="M1107.36 62.9275C1110.64 59.6151 1110.51 54.185 1107.09 50.7989C1103.66 47.4129 1098.23 47.3532 1094.96 50.6656L1077.4 68.4247C1074.13 71.7371 1074.25 77.1673 1077.67 80.5533C1081.1 83.9393 1086.53 83.999 1089.81 80.6866L1107.36 62.9275Z" fill="#0185B7"/>
<path d="M1131.9 86.1052C1135.17 82.7928 1135.05 77.3627 1131.62 73.9767C1128.2 70.5906 1122.77 70.5309 1119.49 73.8433L1101.94 91.6025C1098.66 94.9149 1098.78 100.345 1102.21 103.731C1105.63 107.117 1111.07 107.177 1114.34 103.864L1131.9 86.1052Z" fill="#0185B7"/>
<path d="M1117.61 94.2337L1088.46 65.4102C1080.45 57.4948 1067.75 57.3553 1060.1 65.0985L1034.53 90.9583C1026.88 98.7016 1027.17 111.395 1035.17 119.311L1064.33 148.134C1072.34 156.05 1085.04 156.189 1092.69 148.446L1118.25 122.586C1125.91 114.843 1125.62 102.149 1117.61 94.2337Z" fill="#0185B7"/>
<path d="M1099.52 118.239L1064.89 84.0013C1063.11 82.2423 1060.29 82.2113 1058.59 83.932L1044.11 98.5756C1042.41 100.296 1042.47 103.117 1044.25 104.876L1078.89 139.114C1080.67 140.873 1083.49 140.904 1085.19 139.183L1099.67 124.54C1101.37 122.819 1101.3 119.998 1099.52 118.239Z" fill="#91C2D2"/>
<path d="M1079.32 96.9853L1074.65 92.3672L1070.8 96.2617L1075.47 100.88L1079.32 96.9853Z" fill="#0185B7"/>
<path d="M1093.65 110.519L1088.98 105.9L1085.13 109.795L1089.8 114.413L1093.65 110.519Z" fill="#0185B7"/>
<path d="M1066.58 110.71C1068.8 112.908 1072.33 112.947 1074.46 110.796C1076.58 108.645 1076.5 105.119 1074.28 102.921C1072.06 100.722 1068.53 100.683 1066.4 102.834C1064.28 104.985 1064.36 108.511 1066.58 110.71Z" fill="#024275"/>
<path d="M1084.07 127.882C1086.29 130.08 1089.82 130.119 1091.94 127.968C1094.07 125.817 1093.99 122.291 1091.77 120.092C1089.54 117.894 1086.02 117.855 1083.89 120.006C1081.76 122.157 1081.84 125.683 1084.07 127.882Z" fill="#024275"/>
<path d="M1084.24 83.0062L1076.99 75.8402C1075.88 74.7408 1074.12 74.7214 1073.05 75.7969C1071.99 76.8723 1072.03 78.6354 1073.14 79.7347L1080.39 86.9008C1081.5 88.0001 1083.27 88.0195 1084.33 86.9441C1085.39 85.8686 1085.35 84.1056 1084.24 83.0062Z" fill="#14F0F0"/>
<path d="M1108.28 105.717L1101.03 98.5511C1099.92 97.4518 1098.16 97.4324 1097.09 98.5078C1096.03 99.5833 1096.07 101.346 1097.18 102.446L1104.43 109.612C1105.54 110.711 1107.31 110.73 1108.37 109.655C1109.43 108.58 1109.39 106.817 1108.28 105.717Z" fill="#14F0F0"/>
<path d="M1085.45 156.139L1026.35 97.7157C1018.57 90.0285 1006.24 89.893 998.807 97.4129C991.373 104.933 991.651 117.261 999.428 124.948L1058.53 183.371C1066.31 191.058 1078.64 191.194 1086.07 183.674C1093.5 176.154 1093.23 163.826 1085.45 156.139Z" fill="#CEDEE5"/>
<path d="M1058.08 161.877L1053.72 151.932L1055.7 149.93L1065.71 154.158L1063.36 156.533L1057.64 153.857L1060.41 159.517L1058.08 161.877ZM1073.79 158.85L1076 161.04L1058.62 168.006L1056.41 165.817L1073.79 158.85ZM1067.82 171.508L1070.15 169.147L1075.84 171.84L1073.1 166.164L1075.45 163.789L1079.78 173.741L1077.81 175.743L1067.82 171.508Z" fill="#91C2D2"/>
</g>
<defs>
<clipPath id="clip0_49_443">
<rect width="123" height="138" fill="white" transform="translate(1076.02 19) rotate(44.6691)"/>
</clipPath>
</defs>
</svg>
