<svg width="582" height="285" viewBox="0 0 582 285" fill="none" xmlns="http://www.w3.org/2000/svg">
<rect width="582" height="285" rx="20" fill="#ECC073"/>
<path d="M145.652 169.72C145.652 167.64 146.02 165.608 146.756 163.624C147.524 161.608 148.628 159.784 150.068 158.152C151.508 156.488 153.268 155.176 155.348 154.216C157.428 153.224 159.796 152.728 162.452 152.728C165.588 152.728 168.292 153.416 170.564 154.792C172.868 156.168 174.58 157.96 175.7 160.168L170.612 163.672C170.036 162.392 169.284 161.384 168.356 160.648C167.428 159.88 166.436 159.352 165.38 159.064C164.324 158.744 163.284 158.584 162.26 158.584C160.596 158.584 159.14 158.92 157.892 159.592C156.676 160.264 155.652 161.144 154.82 162.232C153.988 163.32 153.364 164.536 152.948 165.88C152.564 167.224 152.372 168.568 152.372 169.912C152.372 171.416 152.612 172.872 153.092 174.28C153.572 175.656 154.244 176.888 155.108 177.976C156.004 179.032 157.06 179.88 158.276 180.52C159.524 181.128 160.884 181.432 162.356 181.432C163.412 181.432 164.484 181.256 165.572 180.904C166.66 180.552 167.668 179.992 168.596 179.224C169.524 178.456 170.244 177.464 170.756 176.248L176.18 179.368C175.508 181.064 174.404 182.504 172.868 183.688C171.364 184.872 169.668 185.768 167.78 186.376C165.892 186.984 164.02 187.288 162.164 187.288C159.732 187.288 157.508 186.792 155.492 185.8C153.476 184.776 151.732 183.432 150.26 181.768C148.82 180.072 147.684 178.184 146.852 176.104C146.052 173.992 145.652 171.864 145.652 169.72ZM179.95 151.96H186.382V178.936C186.382 180.088 186.574 180.872 186.958 181.288C187.342 181.672 187.87 181.864 188.542 181.864C189.054 181.864 189.582 181.8 190.126 181.672C190.67 181.544 191.15 181.384 191.566 181.192L192.43 186.088C191.566 186.504 190.558 186.824 189.406 187.048C188.254 187.272 187.214 187.384 186.286 187.384C184.27 187.384 182.702 186.856 181.582 185.8C180.494 184.712 179.95 183.176 179.95 181.192V151.96ZM206.849 187.48C204.801 187.48 202.961 187.144 201.329 186.472C199.697 185.768 198.305 184.808 197.153 183.592C196.033 182.376 195.169 180.984 194.561 179.416C193.953 177.848 193.649 176.2 193.649 174.472C193.649 172.712 193.953 171.048 194.561 169.48C195.169 167.912 196.033 166.52 197.153 165.304C198.305 164.088 199.697 163.144 201.329 162.472C202.961 161.768 204.801 161.416 206.849 161.416C208.897 161.416 210.721 161.768 212.321 162.472C213.953 163.144 215.345 164.088 216.497 165.304C217.649 166.52 218.513 167.912 219.089 169.48C219.697 171.048 220.001 172.712 220.001 174.472C220.001 176.2 219.697 177.848 219.089 179.416C218.513 180.984 217.649 182.376 216.497 183.592C215.377 184.808 214.001 185.768 212.369 186.472C210.737 187.144 208.897 187.48 206.849 187.48ZM200.273 174.472C200.273 175.944 200.561 177.256 201.137 178.408C201.713 179.528 202.497 180.408 203.489 181.048C204.481 181.688 205.601 182.008 206.849 182.008C208.065 182.008 209.169 181.688 210.161 181.048C211.153 180.376 211.937 179.48 212.513 178.36C213.121 177.208 213.425 175.896 213.425 174.424C213.425 172.984 213.121 171.688 212.513 170.536C211.937 169.384 211.153 168.488 210.161 167.848C209.169 167.208 208.065 166.888 206.849 166.888C205.601 166.888 204.481 167.224 203.489 167.896C202.497 168.536 201.713 169.432 201.137 170.584C200.561 171.704 200.273 173 200.273 174.472ZM233.606 187.48C231.462 187.48 229.414 187.128 227.462 186.424C225.51 185.72 223.83 184.68 222.422 183.304L224.726 179.128C226.23 180.344 227.702 181.24 229.142 181.816C230.614 182.392 232.022 182.68 233.366 182.68C234.614 182.68 235.606 182.456 236.342 182.008C237.11 181.56 237.494 180.888 237.494 179.992C237.494 179.384 237.286 178.92 236.87 178.6C236.454 178.248 235.846 177.944 235.046 177.688C234.278 177.432 233.334 177.144 232.214 176.824C230.358 176.216 228.806 175.624 227.558 175.048C226.31 174.472 225.366 173.752 224.726 172.888C224.118 171.992 223.814 170.856 223.814 169.48C223.814 167.816 224.23 166.392 225.062 165.208C225.926 163.992 227.11 163.048 228.614 162.376C230.15 161.704 231.942 161.368 233.99 161.368C235.782 161.368 237.478 161.656 239.078 162.232C240.678 162.776 242.134 163.672 243.446 164.92L240.854 169C239.574 168.008 238.358 167.288 237.206 166.84C236.054 166.36 234.886 166.12 233.702 166.12C233.03 166.12 232.39 166.2 231.782 166.36C231.206 166.52 230.726 166.792 230.342 167.176C229.99 167.528 229.814 168.04 229.814 168.712C229.814 169.32 229.974 169.8 230.294 170.152C230.646 170.472 231.158 170.76 231.83 171.016C232.534 171.272 233.382 171.56 234.374 171.88C236.39 172.456 238.086 173.048 239.462 173.656C240.87 174.264 241.926 175.016 242.63 175.912C243.334 176.776 243.686 177.976 243.686 179.512C243.686 182.008 242.774 183.96 240.95 185.368C239.126 186.776 236.678 187.48 233.606 187.48ZM259.725 187.48C257.709 187.48 255.885 187.144 254.253 186.472C252.621 185.768 251.229 184.824 250.077 183.64C248.925 182.424 248.029 181.048 247.389 179.512C246.781 177.944 246.477 176.296 246.477 174.568C246.477 172.168 247.005 169.976 248.061 167.992C249.149 166.008 250.685 164.424 252.669 163.24C254.685 162.024 257.053 161.416 259.773 161.416C262.525 161.416 264.877 162.024 266.829 163.24C268.781 164.424 270.269 166.008 271.293 167.992C272.349 169.944 272.877 172.056 272.877 174.328C272.877 174.712 272.861 175.112 272.829 175.528C272.797 175.912 272.765 176.232 272.733 176.488H253.293C253.421 177.768 253.789 178.888 254.397 179.848C255.037 180.808 255.837 181.544 256.797 182.056C257.789 182.536 258.845 182.776 259.965 182.776C261.245 182.776 262.445 182.472 263.565 181.864C264.717 181.224 265.501 180.392 265.917 179.368L271.437 180.904C270.829 182.184 269.949 183.32 268.797 184.312C267.677 185.304 266.349 186.088 264.813 186.664C263.277 187.208 261.581 187.48 259.725 187.48ZM253.149 172.408H266.301C266.173 171.128 265.805 170.024 265.197 169.096C264.621 168.136 263.853 167.4 262.893 166.888C261.933 166.344 260.861 166.072 259.677 166.072C258.525 166.072 257.469 166.344 256.509 166.888C255.581 167.4 254.813 168.136 254.205 169.096C253.629 170.024 253.277 171.128 253.149 172.408ZM291.633 185.704C291.089 185.928 290.433 186.184 289.665 186.472C288.897 186.76 288.065 186.984 287.169 187.144C286.305 187.336 285.425 187.432 284.529 187.432C283.345 187.432 282.257 187.224 281.265 186.808C280.273 186.392 279.473 185.736 278.865 184.84C278.289 183.912 278.001 182.712 278.001 181.24V166.792H274.689V161.848H278.001V153.688H284.433V161.848H289.713V166.792H284.433V179.08C284.465 179.944 284.705 180.568 285.153 180.952C285.601 181.336 286.161 181.528 286.833 181.528C287.505 181.528 288.161 181.416 288.801 181.192C289.441 180.968 289.953 180.776 290.337 180.616L291.633 185.704ZM295.607 187V152.92H302.231V181.192H319.607V187H295.607ZM334.442 187.48C332.394 187.48 330.554 187.144 328.922 186.472C327.29 185.768 325.898 184.808 324.746 183.592C323.626 182.376 322.762 180.984 322.154 179.416C321.546 177.848 321.242 176.2 321.242 174.472C321.242 172.712 321.546 171.048 322.154 169.48C322.762 167.912 323.626 166.52 324.746 165.304C325.898 164.088 327.29 163.144 328.922 162.472C330.554 161.768 332.394 161.416 334.442 161.416C336.49 161.416 338.314 161.768 339.914 162.472C341.546 163.144 342.938 164.088 344.09 165.304C345.242 166.52 346.106 167.912 346.682 169.48C347.29 171.048 347.594 172.712 347.594 174.472C347.594 176.2 347.29 177.848 346.682 179.416C346.106 180.984 345.242 182.376 344.09 183.592C342.97 184.808 341.594 185.768 339.962 186.472C338.33 187.144 336.49 187.48 334.442 187.48ZM327.866 174.472C327.866 175.944 328.154 177.256 328.73 178.408C329.306 179.528 330.09 180.408 331.082 181.048C332.074 181.688 333.194 182.008 334.442 182.008C335.658 182.008 336.762 181.688 337.754 181.048C338.746 180.376 339.53 179.48 340.106 178.36C340.714 177.208 341.018 175.896 341.018 174.424C341.018 172.984 340.714 171.688 340.106 170.536C339.53 169.384 338.746 168.488 337.754 167.848C336.762 167.208 335.658 166.888 334.442 166.888C333.194 166.888 332.074 167.224 331.082 167.896C330.09 168.536 329.306 169.432 328.73 170.584C328.154 171.704 327.866 173 327.866 174.472ZM361.776 187.144C360.112 187.144 358.576 186.824 357.168 186.184C355.792 185.512 354.592 184.584 353.568 183.4C352.576 182.216 351.808 180.856 351.264 179.32C350.72 177.784 350.448 176.152 350.448 174.424C350.448 172.6 350.736 170.904 351.312 169.336C351.888 167.768 352.688 166.392 353.712 165.208C354.768 163.992 356 163.064 357.408 162.424C358.848 161.752 360.432 161.416 362.16 161.416C364.112 161.416 365.824 161.864 367.296 162.76C368.768 163.624 369.984 164.792 370.944 166.264V161.848H376.56V185.8C376.56 188.296 375.952 190.424 374.736 192.184C373.552 193.976 371.904 195.336 369.792 196.264C367.68 197.224 365.28 197.704 362.592 197.704C359.872 197.704 357.568 197.24 355.68 196.312C353.792 195.416 352.176 194.136 350.832 192.472L354.336 189.064C355.296 190.248 356.496 191.176 357.936 191.848C359.408 192.52 360.96 192.856 362.592 192.856C363.968 192.856 365.216 192.6 366.336 192.088C367.488 191.608 368.4 190.84 369.072 189.784C369.776 188.76 370.128 187.432 370.128 185.8V182.632C369.296 184.072 368.112 185.192 366.576 185.992C365.072 186.76 363.472 187.144 361.776 187.144ZM363.936 182.008C364.64 182.008 365.312 181.896 365.952 181.672C366.592 181.448 367.184 181.144 367.728 180.76C368.272 180.376 368.752 179.928 369.168 179.416C369.584 178.872 369.904 178.328 370.128 177.784V171.784C369.744 170.792 369.2 169.928 368.496 169.192C367.824 168.456 367.056 167.896 366.192 167.512C365.36 167.096 364.48 166.888 363.552 166.888C362.56 166.888 361.664 167.096 360.864 167.512C360.064 167.928 359.376 168.52 358.8 169.288C358.224 170.024 357.776 170.856 357.456 171.784C357.168 172.68 357.024 173.624 357.024 174.616C357.024 175.64 357.2 176.6 357.552 177.496C357.904 178.392 358.384 179.176 358.992 179.848C359.632 180.52 360.368 181.048 361.2 181.432C362.064 181.816 362.976 182.008 363.936 182.008ZM382.118 177.592V161.848H388.55V176.2C388.55 178.12 388.902 179.576 389.606 180.568C390.31 181.528 391.35 182.008 392.726 182.008C393.558 182.008 394.374 181.848 395.174 181.528C396.006 181.176 396.758 180.664 397.43 179.992C398.134 179.32 398.726 178.472 399.206 177.448V161.848H405.638V179.8C405.638 180.472 405.75 180.952 405.974 181.24C406.23 181.528 406.63 181.704 407.174 181.768V187C406.534 187.096 405.99 187.16 405.542 187.192C405.126 187.256 404.742 187.288 404.39 187.288C403.238 187.288 402.294 187.032 401.558 186.52C400.854 185.976 400.438 185.24 400.31 184.312L400.166 182.296C399.046 183.992 397.606 185.288 395.846 186.184C394.086 187.048 392.15 187.48 390.038 187.48C387.446 187.48 385.478 186.648 384.134 184.984C382.79 183.288 382.118 180.824 382.118 177.592ZM423.694 187.48C421.678 187.48 419.854 187.144 418.222 186.472C416.59 185.768 415.198 184.824 414.046 183.64C412.894 182.424 411.998 181.048 411.358 179.512C410.75 177.944 410.446 176.296 410.446 174.568C410.446 172.168 410.974 169.976 412.03 167.992C413.118 166.008 414.654 164.424 416.638 163.24C418.654 162.024 421.022 161.416 423.742 161.416C426.494 161.416 428.846 162.024 430.798 163.24C432.75 164.424 434.238 166.008 435.262 167.992C436.318 169.944 436.846 172.056 436.846 174.328C436.846 174.712 436.83 175.112 436.798 175.528C436.766 175.912 436.734 176.232 436.702 176.488H417.262C417.39 177.768 417.758 178.888 418.366 179.848C419.006 180.808 419.806 181.544 420.766 182.056C421.758 182.536 422.814 182.776 423.934 182.776C425.214 182.776 426.414 182.472 427.534 181.864C428.686 181.224 429.47 180.392 429.886 179.368L435.406 180.904C434.798 182.184 433.918 183.32 432.766 184.312C431.646 185.304 430.318 186.088 428.782 186.664C427.246 187.208 425.55 187.48 423.694 187.48ZM417.118 172.408H430.27C430.142 171.128 429.774 170.024 429.166 169.096C428.59 168.136 427.822 167.4 426.862 166.888C425.902 166.344 424.83 166.072 423.646 166.072C422.494 166.072 421.438 166.344 420.478 166.888C419.55 167.4 418.782 168.136 418.174 169.096C417.598 170.024 417.246 171.128 417.118 172.408Z" fill="#FAF6E7"/>
<rect x="273.357" y="134.908" width="4.28571" height="7.09211" fill="#FAF6E7"/>
<rect x="305.5" y="134.908" width="4.28571" height="7.09211" fill="#FAF6E7"/>
<rect x="253" y="65" width="75" height="70.9211" rx="10" fill="#F0E0B0"/>
<rect x="289.428" y="65" width="3.21429" height="70.9211" fill="#FAF6E7"/>
<rect x="278.178" y="94.3809" width="4.28571" height="12.1579" fill="#ECC073"/>
<rect x="299.607" y="94.3809" width="4.28571" height="12.1579" fill="#ECC073"/>
<path d="M281.393 114.176C287.774 119.305 294.012 119.53 300.767 113.996" stroke="#ECC073" stroke-width="4"/>
<circle cx="42" cy="252" r="25" fill="#415A77"/>
<mask id="mask0_134_303" style="mask-type:alpha" maskUnits="userSpaceOnUse" x="343" y="181" width="40" height="40">
<rect x="343" y="181" width="40" height="39.6034" fill="#D9D9D9"/>
</mask>
<g mask="url(#mask0_134_303)">
<path d="M348 214.002C347.195 214.002 346.667 213.623 346.417 212.867C346.167 212.111 346.361 211.499 347 211.032L361.333 200.388V197.5C361.333 197.033 361.486 196.641 361.792 196.324C362.097 196.008 362.486 195.85 362.958 195.85C363.681 195.878 364.285 195.651 364.77 195.169C365.257 194.688 365.5 194.09 365.5 193.375C365.5 192.688 365.264 192.103 364.792 191.623C364.32 191.141 363.736 190.9 363.042 190.9C362.542 190.9 362.077 191.044 361.647 191.332C361.216 191.622 360.903 192 360.708 192.468C360.57 192.77 360.368 192.997 360.103 193.147C359.84 193.299 359.542 193.375 359.208 193.375C358.597 193.375 358.132 193.12 357.812 192.611C357.493 192.103 357.458 191.574 357.708 191.024C358.181 189.979 358.889 189.146 359.833 188.527C360.778 187.909 361.833 187.6 363 187.6C364.611 187.6 365.986 188.15 367.125 189.25C368.264 190.35 368.833 191.697 368.833 193.293C368.833 194.613 368.445 195.782 367.667 196.799C366.889 197.817 365.889 198.518 364.667 198.903V200.388L379 211.032C379.639 211.499 379.833 212.111 379.583 212.867C379.333 213.623 378.806 214.002 378 214.002H348ZM353 210.702H373L363 203.276L353 210.702Z" fill="#9C736E"/>
</g>
<mask id="mask1_134_303" style="mask-type:alpha" maskUnits="userSpaceOnUse" x="27" y="236" width="31" height="33">
<rect x="27" y="236" width="30.6712" height="32.8379" fill="#D9D9D9"/>
</mask>
<g mask="url(#mask1_134_303)">
<path d="M34.6678 264.734C33.7093 264.734 32.7615 264.483 31.8243 263.981C30.8871 263.479 30.131 262.818 29.5559 261.997C30.1097 261.997 30.6741 261.764 31.2492 261.297C31.8243 260.829 32.1118 260.15 32.1118 259.261C32.1118 258.121 32.4846 257.151 33.2301 256.353C33.9755 255.555 34.8808 255.156 35.9457 255.156C37.0107 255.156 37.9159 255.555 38.6614 256.353C39.4069 257.151 39.7797 258.121 39.7797 259.261C39.7797 260.766 39.2791 262.054 38.278 263.126C37.277 264.198 36.0735 264.734 34.6678 264.734ZM34.6678 261.997C35.3707 261.997 35.9722 261.73 36.4723 261.194C36.9732 260.658 37.2237 260.013 37.2237 259.261C37.2237 258.873 37.1015 258.548 36.8569 258.287C36.6116 258.024 36.3078 257.892 35.9457 257.892C35.5837 257.892 35.2799 258.024 35.0346 258.287C34.79 258.548 34.6678 258.873 34.6678 259.261C34.6678 259.785 34.6094 260.264 34.4927 260.697C34.3751 261.131 34.2205 261.541 34.0288 261.929C34.1353 261.974 34.2418 261.997 34.3483 261.997H34.6678ZM42.0161 256.524L38.5017 252.762L49.9395 240.516C50.1738 240.265 50.4669 240.134 50.8187 240.122C51.1698 240.111 51.4731 240.242 51.7287 240.516L53.4539 242.363C53.7095 242.637 53.8373 242.956 53.8373 243.321C53.8373 243.686 53.7095 244.005 53.4539 244.278L42.0161 256.524Z" fill="white"/>
</g>
</svg>
