<svg width="582" height="285" viewBox="0 0 582 285" fill="none" xmlns="http://www.w3.org/2000/svg">
<rect width="582" height="285" rx="20" fill="#E8E9EE"/>
<path d="M145.881 156.03C146.301 163.73 153.091 168.42 163.101 168.42C172.761 168.42 179.481 163.87 179.481 156.73C179.481 148.61 172.621 146.72 164.361 145.88C159.181 145.25 156.101 144.97 156.101 142.24C156.101 139.93 158.621 138.53 162.471 138.53C166.461 138.53 169.191 140.28 169.471 143.15H178.921C178.431 135.8 171.781 131.53 162.121 131.53C152.881 131.46 146.651 136.15 146.651 143.29C146.651 150.71 153.161 152.6 161.561 153.58C167.371 154.35 169.821 154.56 169.821 157.5C169.821 160.02 167.301 161.35 163.171 161.35C158.341 161.35 155.611 159.18 155.261 156.03H145.881ZM205.19 131.6C200.08 131.6 196.86 133.63 194.55 136.43V119H184.68V168H194.55V149.52C194.55 143.36 197.56 139.72 202.6 139.72C207.5 139.72 209.88 143.01 209.88 148.89V168H219.75V148.05C219.75 135.87 213.17 131.6 205.19 131.6ZM260.269 159.67C258.729 159.67 257.959 159.32 257.959 157.43V144.69C257.959 136.08 252.149 131.6 242.069 131.6C232.549 131.6 226.109 136.22 225.409 143.22H234.929C235.349 140.56 237.939 138.81 241.789 138.81C245.919 138.81 248.229 140.91 248.229 144.13V145.88H241.089C230.309 145.88 224.569 150.22 224.569 157.85C224.569 164.71 230.169 168.42 237.939 168.42C243.539 168.42 247.179 166.11 249.699 162.12C249.629 165.55 251.239 168 256.349 168H261.389V159.67H260.269ZM248.229 153.16C248.159 158.06 245.009 161.28 239.829 161.28C236.539 161.28 234.509 159.67 234.509 157.15C234.509 154.14 236.889 152.46 241.019 152.46H248.229V153.16ZM285.437 132.02C279.837 132.02 277.037 134.19 275.077 137.41L274.167 132.02H265.207V168H275.077V150.36C275.077 144.9 277.317 140.98 283.197 140.98H287.117V132.02H285.437ZM308.144 168.42C317.734 168.42 323.964 162.82 325.084 155.82H315.354C314.514 159.18 311.714 160.93 307.724 160.93C302.754 160.93 299.464 157.85 299.254 152.74V152.25H325.364C325.574 151.13 325.644 149.94 325.644 148.89C325.504 138.32 318.224 131.6 307.444 131.6C296.314 131.6 288.964 138.88 288.964 150.08C288.964 161.21 296.174 168.42 308.144 168.42ZM299.464 145.81C300.024 141.54 303.244 138.95 307.514 138.95C311.994 138.95 315.004 141.4 315.704 145.81H299.464ZM347.977 168.42C357.777 168.42 364.287 163.03 365.687 154.42H355.327C354.627 158.06 352.037 160.37 348.187 160.37C343.007 160.37 339.717 156.17 339.717 150.01C339.717 143.92 343.007 139.65 348.187 139.65C352.037 139.65 354.487 141.89 355.327 145.46H365.617C364.217 136.92 358.127 131.6 348.327 131.6C336.917 131.6 329.637 138.88 329.637 150.01C329.637 161.35 336.567 168.42 347.977 168.42ZM443.211 132.02C437.611 132.02 434.811 134.19 432.851 137.41L431.941 132.02H422.981V168H432.851V150.36C432.851 144.9 435.091 140.98 440.971 140.98H444.891V132.02H443.211Z" fill="#1C2135"/>
<rect x="370" y="145.875" width="46" height="19.75" rx="9.875" stroke="#1C2135" stroke-width="4"/>
<path d="M380.591 170C383.862 170 386.409 167.283 386.409 164.062C386.409 160.842 383.862 158.125 380.591 158.125C377.32 158.125 374.773 160.842 374.773 164.062C374.773 167.283 377.32 170 380.591 170Z" stroke="#1C2135" stroke-width="4"/>
<ellipse cx="380.591" cy="164.062" rx="3.81818" ry="3.9375" fill="#EDF4FA"/>
<ellipse cx="405.409" cy="164.062" rx="3.81818" ry="3.9375" fill="#EDF4FA"/>
<path d="M405.409 170C408.68 170 411.227 167.283 411.227 164.062C411.227 160.842 408.68 158.125 405.409 158.125C402.138 158.125 399.591 160.842 399.591 164.062C399.591 167.283 402.138 170 405.409 170Z" stroke="#1C2135" stroke-width="4"/>
<path d="M384.72 132.459L383.908 132.721L383.536 133.49L377.836 145.253L376.445 148.125H379.636H406.364H409.603L408.151 145.229L402.256 133.466L401.977 132.91L401.432 132.61C398.693 131.102 395.243 130.867 392.286 131.056C389.275 131.247 386.448 131.9 384.72 132.459Z" stroke="#1C2135" stroke-width="4"/>
<circle cx="44" cy="250" r="25" fill="#415A77"/>
<mask id="mask0_134_305" style="mask-type:alpha" maskUnits="userSpaceOnUse" x="29" y="234" width="31" height="33">
<rect x="29" y="234" width="30.6712" height="32.8379" fill="#D9D9D9"/>
</mask>
<g mask="url(#mask0_134_305)">
<path d="M36.6678 262.734C35.7093 262.734 34.7615 262.483 33.8243 261.981C32.8871 261.479 32.131 260.818 31.5559 259.997C32.1097 259.997 32.6741 259.764 33.2492 259.297C33.8243 258.829 34.1118 258.15 34.1118 257.261C34.1118 256.121 34.4846 255.151 35.2301 254.353C35.9755 253.555 36.8808 253.156 37.9457 253.156C39.0107 253.156 39.9159 253.555 40.6614 254.353C41.4069 255.151 41.7797 256.121 41.7797 257.261C41.7797 258.766 41.2791 260.054 40.278 261.126C39.277 262.198 38.0735 262.734 36.6678 262.734ZM36.6678 259.997C37.3707 259.997 37.9722 259.73 38.4723 259.194C38.9732 258.658 39.2237 258.013 39.2237 257.261C39.2237 256.873 39.1015 256.548 38.8569 256.287C38.6116 256.024 38.3078 255.892 37.9457 255.892C37.5837 255.892 37.2799 256.024 37.0346 256.287C36.79 256.548 36.6678 256.873 36.6678 257.261C36.6678 257.785 36.6094 258.264 36.4927 258.697C36.3751 259.131 36.2205 259.541 36.0288 259.929C36.1353 259.974 36.2418 259.997 36.3483 259.997H36.6678ZM44.0161 254.524L40.5017 250.762L51.9395 238.516C52.1738 238.265 52.4669 238.134 52.8187 238.122C53.1698 238.111 53.4731 238.242 53.7287 238.516L55.4539 240.363C55.7095 240.637 55.8373 240.956 55.8373 241.321C55.8373 241.686 55.7095 242.005 55.4539 242.278L44.0161 254.524Z" fill="white"/>
</g>
</svg>
