<svg width="5161" height="2926" xmlns="http://www.w3.org/2000/svg" xmlns:xlink="http://www.w3.org/1999/xlink" xml:space="preserve" overflow="hidden"><defs><clipPath id="clip0"><rect x="697" y="455" width="5161" height="2926"/></clipPath></defs><g clip-path="url(#clip0)" transform="translate(-697 -455)"><path d="M1017 1564 5368 1564 5368 1319 5858 1809 5368 2299 5368 2054 1017 2054 1262 1809Z" fill="#111837" fill-rule="evenodd"/><path d="M1244.5 1809C1244.5 1741.34 1299.34 1686.5 1367 1686.5 1434.65 1686.5 1489.5 1741.34 1489.5 1809 1489.5 1876.65 1434.65 1931.5 1367 1931.5 1299.34 1931.5 1244.5 1876.65 1244.5 1809Z" stroke="#FFFFFF" stroke-width="9.16667" stroke-miterlimit="8" fill="#8064A2" fill-rule="evenodd"/><path d="M1975.5 1809C1975.5 1741.34 2030.35 1686.5 2098 1686.5 2165.66 1686.5 2220.5 1741.34 2220.5 1809 2220.5 1876.65 2165.66 1931.5 2098 1931.5 2030.35 1931.5 1975.5 1876.65 1975.5 1809Z" stroke="#FFFFFF" stroke-width="9.16667" stroke-miterlimit="8" fill="#6E5FA9" fill-rule="evenodd"/><path d="M2707.5 1809C2707.5 1741.34 2762.34 1686.5 2830 1686.5 2897.65 1686.5 2952.5 1741.34 2952.5 1809 2952.5 1876.65 2897.65 1931.5 2830 1931.5 2762.34 1931.5 2707.5 1876.65 2707.5 1809Z" stroke="#FFFFFF" stroke-width="9.16667" stroke-miterlimit="8" fill="#5A5EB1" fill-rule="evenodd"/><path d="M3439.5 1809C3439.5 1741.34 3494.35 1686.5 3562 1686.5 3629.66 1686.5 3684.5 1741.34 3684.5 1809 3684.5 1876.65 3629.66 1931.5 3562 1931.5 3494.35 1931.5 3439.5 1876.65 3439.5 1809Z" stroke="#FFFFFF" stroke-width="9.16667" stroke-miterlimit="8" fill="#5572B8" fill-rule="evenodd"/><path d="M4170.5 1809C4170.5 1741.34 4225.35 1686.5 4293 1686.5 4360.65 1686.5 4415.5 1741.34 4415.5 1809 4415.5 1876.65 4360.65 1931.5 4293 1931.5 4225.35 1931.5 4170.5 1876.65 4170.5 1809Z" stroke="#FFFFFF" stroke-width="9.16667" stroke-miterlimit="8" fill="#508CBF" fill-rule="evenodd"/><path d="M4902.5 1809C4902.5 1741.34 4957.35 1686.5 5025 1686.5 5092.65 1686.5 5147.5 1741.34 5147.5 1809 5147.5 1876.65 5092.65 1931.5 5025 1931.5 4957.35 1931.5 4902.5 1876.65 4902.5 1809Z" stroke="#FFFFFF" stroke-width="9.16667" stroke-miterlimit="8" fill="#4BACC6" fill-rule="evenodd"/><text font-family="Franklin Gothic Demi,Franklin Gothic Demi_MSFontService,sans-serif" font-weight="600" font-size="110" transform="matrix(1 0 0 1 2393.29 1123)">-</text><text font-family="Franklin Gothic Demi,Franklin Gothic Demi_MSFontService,sans-serif" font-weight="600" font-size="110" transform="matrix(1 0 0 1 2547.98 1123)">Levels 2 to 3</text><text font-family="Franklin Gothic Demi,Franklin Gothic Demi_MSFontService,sans-serif" font-weight="600" font-size="110" transform="matrix(1 0 0 1 2393.29 1319)">-</text><text font-family="Franklin Gothic Demi,Franklin Gothic Demi_MSFontService,sans-serif" font-weight="600" font-size="110" transform="matrix(1 0 0 1 2547.98 1319)">Pause Menu</text><text fill="#5A5EB1" font-family="Franklin Gothic Demi,Franklin Gothic Demi_MSFontService,sans-serif" font-weight="600" font-size="124" transform="matrix(1 0 0 1 2641.22 721)">Sprint 3</text><text fill="#5A5EB1" font-family="Franklin Gothic Demi,Franklin Gothic Demi_MSFontService,sans-serif" font-weight="600" font-size="124" transform="matrix(1 0 0 1 2366.82 935)">28/5/22 </text><text fill="#5A5EB1" font-family="Franklin Gothic Demi,Franklin Gothic Demi_MSFontService,sans-serif" font-weight="600" font-size="124" transform="matrix(1 0 0 1 2894.47 935)">–</text><text fill="#5A5EB1" font-family="Franklin Gothic Demi,Franklin Gothic Demi_MSFontService,sans-serif" font-weight="600" font-size="124" transform="matrix(1 0 0 1 2998.17 935)">12/6/22</text><text fill="#5572B8" font-family="Franklin Gothic Demi,Franklin Gothic Demi_MSFontService,sans-serif" font-weight="600" font-size="124" transform="matrix(1 0 0 1 3381.44 2246)">Sprint 4</text><text fill="#5572B8" font-family="Franklin Gothic Demi,Franklin Gothic Demi_MSFontService,sans-serif" font-weight="600" font-size="124" transform="matrix(1 0 0 1 3103.58 2469)">13/6/22 </text><text fill="#5572B8" font-family="Franklin Gothic Demi,Franklin Gothic Demi_MSFontService,sans-serif" font-weight="600" font-size="124" transform="matrix(1 0 0 1 3632.98 2469)">–</text><text fill="#5572B8" font-family="Franklin Gothic Demi,Franklin Gothic Demi_MSFontService,sans-serif" font-weight="600" font-size="124" transform="matrix(1 0 0 1 3736.67 2469)">26/7/22</text><text font-family="Franklin Gothic Demi,Franklin Gothic Demi_MSFontService,sans-serif" font-weight="600" font-size="110" transform="matrix(1 0 0 1 3138.68 2693)">-</text><text font-family="Franklin Gothic Demi,Franklin Gothic Demi_MSFontService,sans-serif" font-weight="600" font-size="110" transform="matrix(1 0 0 1 3293.37 2693)">Levels 4 to 7</text><text font-family="Franklin Gothic Demi,Franklin Gothic Demi_MSFontService,sans-serif" font-weight="600" font-size="110" transform="matrix(1 0 0 1 3702.19 1129)">-</text><text font-family="Franklin Gothic Demi,Franklin Gothic Demi_MSFontService,sans-serif" font-weight="600" font-size="110" transform="matrix(1 0 0 1 3856.88 1129)">Levels 8 to 10</text><text font-family="Franklin Gothic Demi,Franklin Gothic Demi_MSFontService,sans-serif" font-weight="600" font-size="110" transform="matrix(1 0 0 1 3702.19 1327)">-</text><text font-family="Franklin Gothic Demi,Franklin Gothic Demi_MSFontService,sans-serif" font-weight="600" font-size="110" transform="matrix(1 0 0 1 3856.88 1327)">Functionality Testing</text><text fill="#508CBF" font-family="Franklin Gothic Demi,Franklin Gothic Demi_MSFontService,sans-serif" font-weight="600" font-size="124" transform="matrix(1 0 0 1 3985.7 694)">Sprint 5</text><text fill="#508CBF" font-family="Franklin Gothic Demi,Franklin Gothic Demi_MSFontService,sans-serif" font-weight="600" font-size="124" transform="matrix(1 0 0 1 3694.31 924)">27/7/22 </text><text fill="#508CBF" font-family="Franklin Gothic Demi,Franklin Gothic Demi_MSFontService,sans-serif" font-weight="600" font-size="124" transform="matrix(1 0 0 1 4219.12 924)">–</text><text fill="#508CBF" font-family="Franklin Gothic Demi,Franklin Gothic Demi_MSFontService,sans-serif" font-weight="600" font-size="124" transform="matrix(1 0 0 1 4322.82 924)">17/7/22</text><text fill="#4BACC6" font-family="Franklin Gothic Demi,Franklin Gothic Demi_MSFontService,sans-serif" font-weight="600" font-size="124" transform="matrix(1 0 0 1 4822.27 2254)">Sprint 6</text><text fill="#4BACC6" font-family="Franklin Gothic Demi,Franklin Gothic Demi_MSFontService,sans-serif" font-weight="600" font-size="110" transform="matrix(1 0 0 1 4544.17 2460)">18/7/22 </text><text fill="#4BACC6" font-family="Franklin Gothic Demi,Franklin Gothic Demi_MSFontService,sans-serif" font-weight="600" font-size="110" transform="matrix(1 0 0 1 5014.95 2460)">–</text><text fill="#4BACC6" font-family="Franklin Gothic Demi,Franklin Gothic Demi_MSFontService,sans-serif" font-weight="600" font-size="110" transform="matrix(1 0 0 1 5107.19 2460)">31/7/22</text><text font-family="Franklin Gothic Demi,Franklin Gothic Demi_MSFontService,sans-serif" font-weight="600" font-size="110" transform="matrix(1 0 0 1 4448.85 2694)">-</text><text font-family="Franklin Gothic Demi,Franklin Gothic Demi_MSFontService,sans-serif" font-weight="600" font-size="110" transform="matrix(1 0 0 1 4603.54 2694)">Usability testing</text><text fill="#8064A2" font-family="Franklin Gothic Demi,Franklin Gothic Demi_MSFontService,sans-serif" font-weight="600" font-size="124" transform="matrix(1 0 0 1 1159.34 720)">Sprint 1</text><text fill="#8064A2" font-family="Franklin Gothic Demi,Franklin Gothic Demi_MSFontService,sans-serif" font-weight="600" font-size="124" transform="matrix(1 0 0 1 815.636 952)">30/4/22 </text><text fill="#8064A2" font-family="Franklin Gothic Demi,Franklin Gothic Demi_MSFontService,sans-serif" font-weight="600" font-size="124" transform="matrix(1 0 0 1 1343.29 952)">–</text><text fill="#8064A2" font-family="Franklin Gothic Demi,Franklin Gothic Demi_MSFontService,sans-serif" font-weight="600" font-size="124" transform="matrix(1 0 0 1 1446.99 952)">10/5/22</text><text font-family="Franklin Gothic Demi,Franklin Gothic Demi_MSFontService,sans-serif" font-weight="600" font-size="110" transform="matrix(1 0 0 1 760.273 1170)">-</text><text font-family="Franklin Gothic Demi,Franklin Gothic Demi_MSFontService,sans-serif" font-weight="600" font-size="110" transform="matrix(1 0 0 1 914.96 1170)">Technical knowledge</text><text font-family="Franklin Gothic Demi,Franklin Gothic Demi_MSFontService,sans-serif" font-weight="600" font-size="110" transform="matrix(1 0 0 1 760.273 1366)">-</text><text font-family="Franklin Gothic Demi,Franklin Gothic Demi_MSFontService,sans-serif" font-weight="600" font-size="110" transform="matrix(1 0 0 1 914.96 1366)">Concept planning</text><text fill="#6E5FA9" font-family="Franklin Gothic Demi,Franklin Gothic Demi_MSFontService,sans-serif" font-weight="600" font-size="124" transform="matrix(1 0 0 1 1865.28 2251)">Sprint 2</text><text fill="#6E5FA9" font-family="Franklin Gothic Demi,Franklin Gothic Demi_MSFontService,sans-serif" font-weight="600" font-size="124" transform="matrix(1 0 0 1 1506.2 2464)">11/5/22 </text><text fill="#6E5FA9" font-family="Franklin Gothic Demi,Franklin Gothic Demi_MSFontService,sans-serif" font-weight="600" font-size="124" transform="matrix(1 0 0 1 2035.25 2464)">–</text><text fill="#6E5FA9" font-family="Franklin Gothic Demi,Franklin Gothic Demi_MSFontService,sans-serif" font-weight="600" font-size="124" transform="matrix(1 0 0 1 2138.95 2464)">27/5/22</text><text font-family="Franklin Gothic Demi,Franklin Gothic Demi_MSFontService,sans-serif" font-weight="600" font-size="110" transform="matrix(1 0 0 1 1466.21 2701)">-</text><text font-family="Franklin Gothic Demi,Franklin Gothic Demi_MSFontService,sans-serif" font-weight="600" font-size="110" transform="matrix(1 0 0 1 1620.89 2701)">Login interface</text><text font-family="Franklin Gothic Demi,Franklin Gothic Demi_MSFontService,sans-serif" font-weight="600" font-size="110" transform="matrix(1 0 0 1 1466.21 2897)">-</text><text font-family="Franklin Gothic Demi,Franklin Gothic Demi_MSFontService,sans-serif" font-weight="600" font-size="110" transform="matrix(1 0 0 1 1620.89 2897)">Start Screen</text><text font-family="Franklin Gothic Demi,Franklin Gothic Demi_MSFontService,sans-serif" font-weight="600" font-size="110" transform="matrix(1 0 0 1 1466.21 3093)">-</text><text font-family="Franklin Gothic Demi,Franklin Gothic Demi_MSFontService,sans-serif" font-weight="600" font-size="110" transform="matrix(1 0 0 1 1620.89 3093)">Level Selection</text><text font-family="Franklin Gothic Demi,Franklin Gothic Demi_MSFontService,sans-serif" font-weight="600" font-size="110" transform="matrix(1 0 0 1 1466.21 3290)">-</text><text font-family="Franklin Gothic Demi,Franklin Gothic Demi_MSFontService,sans-serif" font-weight="600" font-size="110" transform="matrix(1 0 0 1 1620.89 3290)">Level 1</text></g></svg>