<svg width="543" height="630" viewBox="0 0 543 630" fill="none" xmlns="http://www.w3.org/2000/svg">
<ellipse cx="189.54" cy="588.549" rx="44" ry="40.5" fill="#91C2D2"/>
<ellipse cx="383.593" cy="581.511" rx="44" ry="40.5" fill="#91C2D2"/>
<rect x="157.744" y="3.52075" width="77" height="191" rx="38.5" fill="#0185B7"/>
<rect x="306.703" y="0.0298462" width="77" height="191" rx="38.5" fill="#0185B7"/>
<rect x="93.0935" y="110.759" width="361" height="346" rx="90" fill="#0185B7"/>
<rect x="146.796" y="246.751" width="255" height="134" rx="20" fill="#91C2D2"/>
<rect x="223.412" y="242.587" width="29" height="25" fill="#0185B7"/>
<rect x="310.388" y="240.549" width="29" height="25" fill="#0185B7"/>
<circle cx="255.003" cy="303.037" r="25" fill="#024275"/>
<circle cx="363.192" cy="302.664" r="25" fill="#024275"/>
<rect x="166.969" y="181.413" width="70" height="25" rx="12.5" fill="#14F0F0"/>
<rect x="312.928" y="177.992" width="70" height="25" rx="12.5" fill="#14F0F0"/>
<rect x="0.953125" y="414.971" width="541.686" height="174.809" rx="87.4045" fill="#CEDEE5"/>
<path d="M387.101 521.45L342.551 503.15V490.3L387.101 471.9V487.15L360.851 496.8L387.101 506.3V521.45ZM427.036 461.2H440.786L407.836 539.6H394.086L427.036 461.2ZM447.579 521.45V506.3L473.779 496.8L447.579 487.15V471.9L492.079 490.3V503.15L447.579 521.45Z" fill="#91C2D2"/>
</svg>
