<svg width="374" height="638" viewBox="0 0 374 638" fill="none" xmlns="http://www.w3.org/2000/svg">
<path d="M177.854 373.309C197.451 383.801 204.832 408.192 194.34 427.788C183.849 447.384 159.458 454.765 139.862 444.274L111.256 428.959C91.6593 418.467 84.2783 394.077 94.7697 374.48C105.261 354.884 129.652 347.503 149.248 357.994L177.854 373.309Z" fill="#91C2D2"/>
<rect x="364.192" y="463.86" width="80.4945" height="112.942" rx="40.2473" transform="rotate(58.2866 364.192 463.86)" fill="#91C2D2"/>
<rect width="65.5556" height="159.121" rx="32.7778" transform="matrix(-0.962837 0.270082 0.270082 0.962837 345.368 31.3533)" fill="#0185B7"/>
<rect width="65.5556" height="159.121" rx="32.7778" transform="matrix(-0.962837 0.270082 0.270082 0.962837 202.501 69.9982)" fill="#0185B7"/>
<rect width="361" height="346" rx="90" transform="matrix(-0.967006 0.254754 0.254754 0.967006 446.508 114.698)" fill="#0185B7"/>
<rect width="255" height="134" rx="20" transform="matrix(-0.967006 0.254754 0.254754 0.967006 429.222 259.884)" fill="#91C2D2"/>
<rect width="29" height="25" transform="matrix(-0.967006 0.254754 0.254754 0.967006 354.074 275.376)" fill="#0185B7"/>
<rect width="29" height="25" transform="matrix(-0.967006 0.254754 0.254754 0.967006 269.448 295.562)" fill="#0185B7"/>
<circle r="25" transform="matrix(-0.967006 0.254754 0.254754 0.967006 348.595 339.331)" fill="#024275"/>
<circle r="25" transform="matrix(-0.967006 0.254754 0.254754 0.967006 243.88 366.532)" fill="#024275"/>
<rect width="70" height="25" rx="12.5" transform="matrix(-0.967006 0.254754 0.254754 0.967006 393.07 201.84)" fill="#14F0F0"/>
<rect width="70" height="25" rx="12.5" transform="matrix(-0.967006 0.254754 0.254754 0.967006 251.055 235.717)" fill="#14F0F0"/>
</svg>
