<svg width="4958" height="3948" viewBox="0 0 4958 3948" fill="none" xmlns="http://www.w3.org/2000/svg">
<rect width="4958" height="3948" fill="#DBDBDB"/>
<path d="M2444 3386C3111.8 3386 3653 2839.7 3653 2166C3653 1492.3 3111.8 946 2444 946C1776.2 946 1235 1492.3 1235 2166C1235 2839.7 1776.2 3386 2444 3386Z" stroke="#131B25" stroke-width="20"/>
<rect x="3349" y="1500" width="418" height="416" fill="#DBDBDB"/>
<rect x="3222" y="2721" width="418" height="416" fill="#DBDBDB"/>
<rect x="3477" y="1649" width="163" height="118" fill="#DBDBDB"/>
<rect x="1330" y="2739" width="418" height="416" fill="#DBDBDB"/>
<rect x="1121" y="1492" width="418" height="416" fill="#DBDBDB"/>
<rect x="2277" y="709" width="418" height="416" fill="#DBDBDB"/>
<path d="M2200.59 282H2249.91V266.88H2217.03V246.6H2243.79V231.72H2217.03V211.92H2248.83V196.8H2200.59V282ZM2299.96 282H2316.04V246.48C2316.04 237.6 2321.08 232.8 2328.16 232.8C2335.12 232.8 2339.68 237.6 2339.68 246.48V282H2355.88V245.76C2355.88 226.68 2346.28 218.4 2333.08 218.4C2322.88 218.4 2316.04 223.08 2312.44 228.84C2308.6 221.64 2301.88 218.4 2294.2 218.4C2285.44 218.4 2279.68 222.36 2276.32 227.64V219.6H2260.24V282H2276.32V246.48C2276.32 237.6 2281.36 232.8 2288.44 232.8C2295.28 232.8 2299.96 237.6 2299.96 246.48V282ZM2368.05 304.8H2384.13V273.6H2384.49C2386.05 277.08 2393.25 283.2 2404.41 283.2C2418.93 283.2 2434.41 272.4 2434.41 250.8C2434.41 229.2 2418.93 218.4 2404.41 218.4C2393.25 218.4 2386.05 224.52 2384.49 228H2384.13V219.6H2368.05V304.8ZM2383.77 250.8C2383.77 239.04 2392.17 232.8 2401.17 232.8C2410.17 232.8 2418.57 239.16 2418.57 250.8C2418.57 262.44 2410.17 268.8 2401.17 268.8C2392.17 268.8 2383.77 262.56 2383.77 250.8ZM2443.64 282H2459.72V247.92C2459.72 238.8 2464.76 232.8 2473.04 232.8C2481.44 232.8 2486.36 238.8 2486.36 247.92V282H2502.44V245.28C2502.44 226.32 2491.64 218.4 2478.8 218.4C2469.44 218.4 2463.2 222.6 2459.72 228.12V196.8H2443.64V282ZM2541.65 283.2C2552.81 283.2 2560.01 277.08 2561.57 273.6H2561.93V282H2578.01V219.6H2561.93V228H2561.57C2560.01 224.52 2552.81 218.4 2541.65 218.4C2527.13 218.4 2511.65 229.2 2511.65 250.8C2511.65 272.4 2527.13 283.2 2541.65 283.2ZM2527.49 250.8C2527.49 239.16 2535.89 232.8 2544.89 232.8C2553.89 232.8 2562.29 239.04 2562.29 250.8C2562.29 262.56 2553.89 268.8 2544.89 268.8C2535.89 268.8 2527.49 262.44 2527.49 250.8ZM2614.36 282.72C2618.32 282.72 2622.88 282 2625.28 279.84V267.48C2623 268.2 2620.84 268.44 2619.4 268.44C2614.12 268.44 2612.32 265.32 2612.32 262.08V232.44H2625.16V219.6H2612.32V203.64H2596.12V219.6H2587.24V232.44H2596.12V264.72C2596.12 277.56 2603.8 282.72 2614.36 282.72ZM2635 282H2651.08V219.6H2635V282ZM2635 210.96H2651.08V196.8H2635V210.96ZM2683.16 283.2C2696.24 283.2 2706.92 276.48 2706.92 264C2706.92 252.96 2698.52 248.4 2690.84 245.64L2683.88 243C2678.96 241.32 2677.4 239.04 2677.4 236.4C2677.4 233.4 2679.92 231 2684.12 231C2687.48 231 2690.72 232.56 2692.4 237.6L2705 234.36C2702.96 224.76 2694.68 218.4 2683.4 218.4C2671.64 218.4 2661.8 225.12 2661.8 236.28C2661.8 243.84 2666.12 250.44 2676.44 254.16L2684.12 257.04C2689.04 258.84 2690.96 261 2690.96 264C2690.96 268.44 2687 270.48 2682.92 270.48C2676.8 270.48 2673.8 266.28 2672.6 262.2L2659.76 265.68C2661.68 277.2 2670.8 283.2 2683.16 283.2ZM2745.62 283.2C2756.66 283.2 2765.66 278.64 2770.82 272.16L2763.5 264.36C2758.94 268.32 2753.54 270 2747.42 270C2738.06 270 2730.62 265.56 2728.34 257.04H2775.02C2778.5 229.56 2760.5 218.4 2744.66 218.4C2728.7 218.4 2713.1 229.8 2713.1 250.8C2713.1 271.56 2728.46 283.2 2745.62 283.2ZM2728.1 245.28C2730.14 236.28 2737.34 231.96 2744.78 231.96C2752.34 231.96 2759.78 236.4 2760.74 245.28H2728.1Z" fill="black"/>
<path d="M2030.12 469.8C2030.12 467.4 2030.49 465.48 2031.24 464.04C2032.04 462.547 2033.11 461.48 2034.44 460.84C2035.83 460.2 2037.35 459.88 2039 459.88C2040.65 459.88 2042.15 460.2 2043.48 460.84C2044.81 461.48 2045.88 462.547 2046.68 464.04C2047.48 465.48 2047.88 467.4 2047.88 469.8C2047.88 472.147 2047.48 474.067 2046.68 475.56C2045.88 477 2044.81 478.067 2043.48 478.76C2042.15 479.4 2040.65 479.72 2039 479.72C2037.35 479.72 2035.83 479.4 2034.44 478.76C2033.11 478.067 2032.04 477 2031.24 475.56C2030.49 474.067 2030.12 472.147 2030.12 469.8ZM2120.68 499.8C2130.12 499.8 2138.28 494.28 2138.28 484.2C2138.28 475.24 2131.96 471.24 2123 467.64L2119.16 466.12C2112.12 463.4 2109.4 459.88 2109.4 455.32C2109.4 449.56 2114.12 446.04 2120.28 446.04C2126.68 446.04 2130.68 449.64 2132.84 455.08L2136.76 453.16C2134.68 447 2129.32 441.4 2120.12 441.4C2111.24 441.4 2104.44 446.92 2104.44 455.32C2104.44 462.12 2108.84 466.92 2117.4 470.28L2121.24 471.8C2128.28 474.6 2133.16 477.48 2133.16 484.2C2133.16 491.32 2127.48 495.08 2120.68 495.08C2113.4 495.08 2107.8 490.76 2106.2 484.2L2102.04 486.04C2103.88 494.2 2111.16 499.8 2120.68 499.8ZM2182.14 457.4H2177.26V481.32C2177.26 490.84 2171.26 495.32 2164.14 495.32C2156.94 495.32 2151.26 490.84 2151.26 481.32V457.4H2146.38V481.88C2146.38 494.28 2153.98 499.8 2162.86 499.8C2170.54 499.8 2175.18 495.8 2177.26 491.72V499H2182.14V457.4ZM2192.24 499H2197.12V476.92C2197.12 467.16 2203.12 461.16 2210.72 461.16C2211.6 461.16 2212.16 461.24 2212.8 461.4V456.84C2212.24 456.68 2211.6 456.6 2210.64 456.6C2202.96 456.6 2198.8 461.48 2197.12 467.08V457.4H2192.24V499ZM2235.88 499H2240.36L2258.11 457.4H2253L2238.12 492.76L2223.24 457.4H2218.12L2235.88 499ZM2282.07 499.8C2288.55 499.8 2294.63 497.16 2298.39 492.52L2295.83 489.88C2292.79 493.48 2287.91 495.48 2282.63 495.48C2273.91 495.48 2266.39 490.04 2265.59 479.96H2301.35C2302.71 464.28 2292.07 456.6 2281.51 456.6C2271.11 456.6 2260.95 464.2 2260.95 478.12C2260.95 492.12 2271.03 499.8 2282.07 499.8ZM2265.59 476.04C2266.47 466.12 2273.83 460.92 2281.51 460.92C2289.43 460.92 2296.71 466.28 2296.95 476.04H2265.59ZM2315.01 514.2H2319.81L2326.53 499L2344.29 457.4H2339.17L2324.29 492.76L2309.41 457.4H2304.29L2321.89 498.68L2315.01 514.2ZM2030.12 594.8C2030.12 592.4 2030.49 590.48 2031.24 589.04C2032.04 587.547 2033.11 586.48 2034.44 585.84C2035.83 585.2 2037.35 584.88 2039 584.88C2040.65 584.88 2042.15 585.2 2043.48 585.84C2044.81 586.48 2045.88 587.547 2046.68 589.04C2047.48 590.48 2047.88 592.4 2047.88 594.8C2047.88 597.147 2047.48 599.067 2046.68 600.56C2045.88 602 2044.81 603.067 2043.48 603.76C2042.15 604.4 2040.65 604.72 2039 604.72C2037.35 604.72 2035.83 604.4 2034.44 603.76C2033.11 603.067 2032.04 602 2031.24 600.56C2030.49 599.067 2030.12 597.147 2030.12 594.8ZM2132.04 624.8C2138.68 624.8 2147.48 622.72 2153.8 614.24L2150.12 611.44C2144.92 618.32 2137.64 620 2132.2 620C2119 620 2108.28 610.24 2108.28 595.6C2108.28 580.96 2119 571.2 2132.12 571.2C2137.64 571.2 2144.92 572.88 2150.12 579.76L2153.8 576.96C2147.48 568.48 2138.6 566.4 2131.96 566.4C2116.12 566.4 2103.24 578.32 2103.24 595.6C2103.24 612.88 2116.2 624.8 2132.04 624.8ZM2180.12 624.8C2190.84 624.8 2201.56 617.04 2201.56 603.2C2201.56 589.36 2190.84 581.6 2180.12 581.6C2169.4 581.6 2158.68 589.36 2158.68 603.2C2158.68 617.04 2169.4 624.8 2180.12 624.8ZM2163.56 603.2C2163.56 592.16 2171.72 586.08 2180.12 586.08C2188.52 586.08 2196.68 592.16 2196.68 603.2C2196.68 614.24 2188.52 620.32 2180.12 620.32C2171.72 620.32 2163.56 614.24 2163.56 603.2ZM2209.67 624H2214.55V600.08C2214.55 590.56 2220.55 586.08 2227.67 586.08C2234.87 586.08 2240.55 590.56 2240.55 600.08V624H2245.43V599.52C2245.43 587.12 2237.83 581.6 2228.95 581.6C2221.27 581.6 2216.63 585.6 2214.55 589.68V582.4H2209.67V624ZM2265.71 624.48C2267.31 624.48 2269.07 624.24 2270.51 623.28V619.28C2268.99 619.92 2267.71 620.08 2266.75 620.08C2263.95 620.08 2262.59 618.64 2262.59 615.92V586.48H2270.67V582.4H2262.59V571.76H2257.71V582.4H2252.35V586.48H2257.71V616.96C2257.71 622.16 2260.91 624.48 2265.71 624.48ZM2297.85 624.8C2304.33 624.8 2310.41 622.16 2314.17 617.52L2311.61 614.88C2308.57 618.48 2303.69 620.48 2298.41 620.48C2289.69 620.48 2282.17 615.04 2281.37 604.96H2317.13C2318.49 589.28 2307.85 581.6 2297.29 581.6C2286.89 581.6 2276.73 589.2 2276.73 603.12C2276.73 617.12 2286.81 624.8 2297.85 624.8ZM2281.37 601.04C2282.25 591.12 2289.61 585.92 2297.29 585.92C2305.21 585.92 2312.49 591.28 2312.73 601.04H2281.37ZM2318.81 624H2324.65L2337.77 606.4L2350.89 624H2356.73L2340.57 602.8L2355.93 582.4H2350.25L2337.77 599.12L2325.29 582.4H2319.61L2334.97 602.8L2318.81 624ZM2374.07 624.48C2375.67 624.48 2377.43 624.24 2378.87 623.28V619.28C2377.35 619.92 2376.07 620.08 2375.11 620.08C2372.31 620.08 2370.95 618.64 2370.95 615.92V586.48H2379.03V582.4H2370.95V571.76H2366.07V582.4H2360.71V586.48H2366.07V616.96C2366.07 622.16 2369.27 624.48 2374.07 624.48ZM2423.24 582.4H2418.36V606.32C2418.36 615.84 2412.36 620.32 2405.24 620.32C2398.04 620.32 2392.36 615.84 2392.36 606.32V582.4H2387.48V606.88C2387.48 619.28 2395.08 624.8 2403.96 624.8C2411.64 624.8 2416.28 620.8 2418.36 616.72V624H2423.24V582.4ZM2451.98 624.8C2459.82 624.8 2466.22 620.48 2468.62 615.12H2468.86V624H2473.74V582.4H2468.86V591.28H2468.62C2466.22 585.92 2459.82 581.6 2451.98 581.6C2441.58 581.6 2431.34 589.04 2431.34 603.2C2431.34 617.36 2441.58 624.8 2451.98 624.8ZM2436.22 603.2C2436.22 591.68 2444.46 586.08 2452.62 586.08C2460.78 586.08 2469.02 591.76 2469.02 603.2C2469.02 614.64 2460.78 620.32 2452.62 620.32C2444.46 620.32 2436.22 614.72 2436.22 603.2ZM2483.81 624H2488.69V567.2H2483.81V624ZM2516.15 624H2521.11V567.2H2516.15V624ZM2531.23 624H2536.11V600.08C2536.11 590.56 2542.11 586.08 2549.23 586.08C2556.43 586.08 2562.11 590.56 2562.11 600.08V624H2566.99V599.52C2566.99 587.12 2559.39 581.6 2550.51 581.6C2542.83 581.6 2538.19 585.6 2536.11 589.68V582.4H2531.23V624ZM2617.49 639.2V582.4H2612.61V591.28H2612.37C2609.97 585.92 2603.57 581.6 2595.73 581.6C2585.33 581.6 2575.09 589.04 2575.09 603.2C2575.09 617.36 2585.33 624.8 2595.73 624.8C2603.57 624.8 2609.97 620.48 2612.37 615.12H2612.61V639.2H2617.49ZM2579.97 603.2C2579.97 591.68 2588.21 586.08 2596.37 586.08C2604.53 586.08 2612.77 591.76 2612.77 603.2C2612.77 614.64 2604.53 620.32 2596.37 620.32C2588.21 620.32 2579.97 614.72 2579.97 603.2ZM2663.32 582.4H2658.44V606.32C2658.44 615.84 2652.44 620.32 2645.32 620.32C2638.12 620.32 2632.44 615.84 2632.44 606.32V582.4H2627.56V606.88C2627.56 619.28 2635.16 624.8 2644.04 624.8C2651.72 624.8 2656.36 620.8 2658.44 616.72V624H2663.32V582.4ZM2673.42 624H2678.3V582.4H2673.42V624ZM2673.42 571.92H2678.3V567.2H2673.42V571.92ZM2688.34 624H2693.22V601.92C2693.22 592.16 2699.22 586.16 2706.82 586.16C2707.7 586.16 2708.26 586.24 2708.9 586.4V581.84C2708.34 581.68 2707.7 581.6 2706.74 581.6C2699.06 581.6 2694.9 586.48 2693.22 592.08V582.4H2688.34V624ZM2717.01 624H2721.89V582.4H2717.01V624ZM2717.01 571.92H2721.89V567.2H2717.01V571.92ZM2751.05 624.8C2757.53 624.8 2763.61 622.16 2767.37 617.52L2764.81 614.88C2761.77 618.48 2756.89 620.48 2751.61 620.48C2742.89 620.48 2735.37 615.04 2734.57 604.96H2770.33C2771.69 589.28 2761.05 581.6 2750.49 581.6C2740.09 581.6 2729.93 589.2 2729.93 603.12C2729.93 617.12 2740.01 624.8 2751.05 624.8ZM2734.57 601.04C2735.45 591.12 2742.81 585.92 2750.49 585.92C2758.41 585.92 2765.69 591.28 2765.93 601.04H2734.57ZM2789.16 624.8C2796.04 624.8 2803 621.2 2803 613.12C2803 606.4 2798.52 603.6 2791.32 600.64L2788.52 599.52C2783.64 597.52 2781.72 595.12 2781.72 592C2781.72 587.84 2785.16 585.76 2789.16 585.76C2793.56 585.76 2796.12 588.08 2797.48 591.6L2801.4 590.32C2799.96 585.04 2795.24 581.6 2789 581.6C2782.12 581.6 2776.92 585.84 2776.92 592C2776.92 596.56 2779.72 600.56 2786.6 603.36L2789.8 604.64C2795.24 606.96 2798.12 608.88 2798.12 613.12C2798.12 618.32 2793.64 620.56 2789.16 620.56C2784.28 620.56 2780.44 617.76 2779.16 612.56L2774.92 613.76C2776.2 620.56 2781.56 624.8 2789.16 624.8Z" fill="black"/>
<path d="M637.738 1502H654.178V1431.92H674.698V1416.8H617.218V1431.92H637.738V1502ZM701.417 1503.2C712.457 1503.2 721.457 1498.64 726.617 1492.16L719.297 1484.36C714.737 1488.32 709.337 1490 703.217 1490C693.857 1490 686.417 1485.56 684.137 1477.04H730.817C734.297 1449.56 716.297 1438.4 700.457 1438.4C684.497 1438.4 668.897 1449.8 668.897 1470.8C668.897 1491.56 684.257 1503.2 701.417 1503.2ZM683.897 1465.28C685.937 1456.28 693.137 1451.96 700.577 1451.96C708.137 1451.96 715.577 1456.4 716.537 1465.28H683.897ZM758.494 1503.2C771.574 1503.2 782.254 1496.48 782.254 1484C782.254 1472.96 773.854 1468.4 766.174 1465.64L759.214 1463C754.294 1461.32 752.734 1459.04 752.734 1456.4C752.734 1453.4 755.254 1451 759.454 1451C762.814 1451 766.054 1452.56 767.734 1457.6L780.334 1454.36C778.294 1444.76 770.014 1438.4 758.734 1438.4C746.974 1438.4 737.134 1445.12 737.134 1456.28C737.134 1463.84 741.454 1470.44 751.774 1474.16L759.454 1477.04C764.374 1478.84 766.294 1481 766.294 1484C766.294 1488.44 762.334 1490.48 758.254 1490.48C752.134 1490.48 749.134 1486.28 747.934 1482.2L735.094 1485.68C737.014 1497.2 746.134 1503.2 758.494 1503.2ZM814.377 1502.72C818.337 1502.72 822.897 1502 825.297 1499.84V1487.48C823.017 1488.2 820.857 1488.44 819.417 1488.44C814.137 1488.44 812.337 1485.32 812.337 1482.08V1452.44H825.177V1439.6H812.337V1423.64H796.137V1439.6H787.257V1452.44H796.137V1484.72C796.137 1497.56 803.817 1502.72 814.377 1502.72Z" fill="black"/>
<path d="M265.121 1689.8C265.121 1687.4 265.494 1685.48 266.241 1684.04C267.041 1682.55 268.108 1681.48 269.441 1680.84C270.828 1680.2 272.348 1679.88 274.001 1679.88C275.654 1679.88 277.148 1680.2 278.481 1680.84C279.814 1681.48 280.881 1682.55 281.681 1684.04C282.481 1685.48 282.881 1687.4 282.881 1689.8C282.881 1692.15 282.481 1694.07 281.681 1695.56C280.881 1697 279.814 1698.07 278.481 1698.76C277.148 1699.4 275.654 1699.72 274.001 1699.72C272.348 1699.72 270.828 1699.4 269.441 1698.76C268.108 1698.07 267.041 1697 266.241 1695.56C265.494 1694.07 265.121 1692.15 265.121 1689.8ZM374.4 1719H379.36V1662.2H374.4V1688.84H344V1662.2H339.04V1719H344V1693.48H374.4V1719ZM408.551 1719.8C415.031 1719.8 421.111 1717.16 424.871 1712.52L422.311 1709.88C419.271 1713.48 414.391 1715.48 409.111 1715.48C400.391 1715.48 392.871 1710.04 392.071 1699.96H427.831C429.191 1684.28 418.551 1676.6 407.991 1676.6C397.591 1676.6 387.431 1684.2 387.431 1698.12C387.431 1712.12 397.511 1719.8 408.551 1719.8ZM392.071 1696.04C392.951 1686.12 400.311 1680.92 407.991 1680.92C415.911 1680.92 423.191 1686.28 423.431 1696.04H392.071ZM471.753 1677.4H466.873V1701.32C466.873 1710.84 460.873 1715.32 453.753 1715.32C446.553 1715.32 440.873 1710.84 440.873 1701.32V1677.4H435.993V1701.88C435.993 1714.28 443.593 1719.8 452.473 1719.8C460.153 1719.8 464.793 1715.8 466.873 1711.72V1719H471.753V1677.4ZM481.853 1719H486.733V1696.92C486.733 1687.16 492.733 1681.16 500.332 1681.16C501.213 1681.16 501.773 1681.24 502.413 1681.4V1676.84C501.853 1676.68 501.213 1676.6 500.253 1676.6C492.573 1676.6 488.413 1681.48 486.733 1687.08V1677.4H481.853V1719ZM510.524 1719H515.404V1677.4H510.524V1719ZM510.524 1666.92H515.404V1662.2H510.524V1666.92ZM537.286 1719.8C544.166 1719.8 551.126 1716.2 551.126 1708.12C551.126 1701.4 546.646 1698.6 539.446 1695.64L536.646 1694.52C531.766 1692.52 529.846 1690.12 529.846 1687C529.846 1682.84 533.286 1680.76 537.286 1680.76C541.686 1680.76 544.246 1683.08 545.606 1686.6L549.526 1685.32C548.086 1680.04 543.366 1676.6 537.126 1676.6C530.246 1676.6 525.046 1680.84 525.046 1687C525.046 1691.56 527.846 1695.56 534.726 1698.36L537.926 1699.64C543.366 1701.96 546.246 1703.88 546.246 1708.12C546.246 1713.32 541.766 1715.56 537.286 1715.56C532.406 1715.56 528.566 1712.76 527.286 1707.56L523.046 1708.76C524.326 1715.56 529.686 1719.8 537.286 1719.8ZM569.775 1719.48C571.375 1719.48 573.135 1719.24 574.575 1718.28V1714.28C573.055 1714.92 571.775 1715.08 570.815 1715.08C568.015 1715.08 566.655 1713.64 566.655 1710.92V1681.48H574.735V1677.4H566.655V1666.76H561.775V1677.4H556.415V1681.48H561.775V1711.96C561.775 1717.16 564.975 1719.48 569.775 1719.48ZM583.181 1719H588.061V1677.4H583.181V1719ZM583.181 1666.92H588.061V1662.2H583.181V1666.92ZM617.463 1719.8C624.663 1719.8 631.623 1716.28 635.223 1709.56L631.383 1707.4C628.583 1712.52 623.223 1715.32 617.623 1715.32C609.383 1715.32 600.983 1709.24 600.983 1698.28C600.983 1687.16 609.383 1681.08 617.623 1681.08C623.223 1681.08 628.583 1683.88 631.383 1689L635.223 1686.84C631.623 1680.12 624.663 1676.6 617.463 1676.6C606.823 1676.6 596.103 1684.36 596.103 1698.28C596.103 1712.04 606.823 1719.8 617.463 1719.8ZM660.759 1719H691.159V1714.28H665.719V1692.76H686.839V1688.2H665.719V1666.92H690.439V1662.2H660.759V1719ZM712.984 1719H717.464L735.224 1677.4H730.104L715.224 1712.76L700.344 1677.4H695.224L712.984 1719ZM758.696 1719.8C766.536 1719.8 772.936 1715.48 775.336 1710.12H775.576V1719H780.456V1677.4H775.576V1686.28H775.336C772.936 1680.92 766.536 1676.6 758.696 1676.6C748.296 1676.6 738.056 1684.04 738.056 1698.2C738.056 1712.36 748.296 1719.8 758.696 1719.8ZM742.936 1698.2C742.936 1686.68 751.176 1681.08 759.336 1681.08C767.496 1681.08 775.736 1686.76 775.736 1698.2C775.736 1709.64 767.496 1715.32 759.336 1715.32C751.176 1715.32 742.936 1709.72 742.936 1698.2ZM790.524 1719H795.404V1662.2H790.524V1719ZM841.206 1677.4H836.326V1701.32C836.326 1710.84 830.326 1715.32 823.206 1715.32C816.006 1715.32 810.326 1710.84 810.326 1701.32V1677.4H805.446V1701.88C805.446 1714.28 813.046 1719.8 821.926 1719.8C829.606 1719.8 834.246 1715.8 836.326 1711.72V1719H841.206V1677.4ZM869.946 1719.8C877.786 1719.8 884.186 1715.48 886.586 1710.12H886.826V1719H891.706V1677.4H886.826V1686.28H886.586C884.186 1680.92 877.786 1676.6 869.946 1676.6C859.546 1676.6 849.306 1684.04 849.306 1698.2C849.306 1712.36 859.546 1719.8 869.946 1719.8ZM854.186 1698.2C854.186 1686.68 862.426 1681.08 870.586 1681.08C878.746 1681.08 886.986 1686.76 886.986 1698.2C886.986 1709.64 878.746 1715.32 870.586 1715.32C862.426 1715.32 854.186 1709.72 854.186 1698.2ZM913.134 1719.48C914.734 1719.48 916.494 1719.24 917.934 1718.28V1714.28C916.414 1714.92 915.134 1715.08 914.174 1715.08C911.374 1715.08 910.014 1713.64 910.014 1710.92V1681.48H918.094V1677.4H910.014V1666.76H905.134V1677.4H899.774V1681.48H905.134V1711.96C905.134 1717.16 908.334 1719.48 913.134 1719.48ZM926.54 1719H931.42V1677.4H926.54V1719ZM926.54 1666.92H931.42V1662.2H926.54V1666.92ZM960.902 1719.8C971.622 1719.8 982.342 1712.04 982.342 1698.2C982.342 1684.36 971.622 1676.6 960.902 1676.6C950.182 1676.6 939.462 1684.36 939.462 1698.2C939.462 1712.04 950.182 1719.8 960.902 1719.8ZM944.342 1698.2C944.342 1687.16 952.502 1681.08 960.902 1681.08C969.302 1681.08 977.462 1687.16 977.462 1698.2C977.462 1709.24 969.302 1715.32 960.902 1715.32C952.502 1715.32 944.342 1709.24 944.342 1698.2ZM990.446 1719H995.326V1695.08C995.326 1685.56 1001.33 1681.08 1008.45 1681.08C1015.65 1681.08 1021.33 1685.56 1021.33 1695.08V1719H1026.21V1694.52C1026.21 1682.12 1018.61 1676.6 1009.73 1676.6C1002.05 1676.6 997.406 1680.6 995.326 1684.68V1677.4H990.446V1719ZM265.121 1814.8C265.121 1812.4 265.494 1810.48 266.241 1809.04C267.041 1807.55 268.108 1806.48 269.441 1805.84C270.828 1805.2 272.348 1804.88 274.001 1804.88C275.654 1804.88 277.148 1805.2 278.481 1805.84C279.814 1806.48 280.881 1807.55 281.681 1809.04C282.481 1810.48 282.881 1812.4 282.881 1814.8C282.881 1817.15 282.481 1819.07 281.681 1820.56C280.881 1822 279.814 1823.07 278.481 1823.76C277.148 1824.4 275.654 1824.72 274.001 1824.72C272.348 1824.72 270.828 1824.4 269.441 1823.76C268.108 1823.07 267.041 1822 266.241 1820.56C265.494 1819.07 265.121 1817.15 265.121 1814.8ZM358.88 1844.8C370.16 1844.8 378.72 1837.36 378.72 1824.08V1787.2H373.76V1824C373.76 1834.56 367.28 1840 358.88 1840C350.48 1840 344 1834.56 344 1824V1787.2H339.04V1824.08C339.04 1837.36 347.68 1844.8 358.88 1844.8ZM400.646 1844.8C407.526 1844.8 414.486 1841.2 414.486 1833.12C414.486 1826.4 410.006 1823.6 402.806 1820.64L400.006 1819.52C395.126 1817.52 393.206 1815.12 393.206 1812C393.206 1807.84 396.646 1805.76 400.646 1805.76C405.046 1805.76 407.606 1808.08 408.966 1811.6L412.886 1810.32C411.446 1805.04 406.726 1801.6 400.486 1801.6C393.606 1801.6 388.406 1805.84 388.406 1812C388.406 1816.56 391.206 1820.56 398.086 1823.36L401.286 1824.64C406.726 1826.96 409.606 1828.88 409.606 1833.12C409.606 1838.32 405.126 1840.56 400.646 1840.56C395.766 1840.56 391.926 1837.76 390.646 1832.56L386.406 1833.76C387.686 1840.56 393.046 1844.8 400.646 1844.8ZM441.196 1844.8C449.036 1844.8 455.436 1840.48 457.836 1835.12H458.076V1844H462.956V1802.4H458.076V1811.28H457.836C455.436 1805.92 449.036 1801.6 441.196 1801.6C430.796 1801.6 420.556 1809.04 420.556 1823.2C420.556 1837.36 430.796 1844.8 441.196 1844.8ZM425.436 1823.2C425.436 1811.68 433.676 1806.08 441.836 1806.08C449.996 1806.08 458.236 1811.76 458.236 1823.2C458.236 1834.64 449.996 1840.32 441.836 1840.32C433.676 1840.32 425.436 1834.72 425.436 1823.2ZM473.024 1787.2V1844H477.904V1835.12H478.144C480.544 1840.48 486.944 1844.8 494.784 1844.8C505.184 1844.8 515.424 1837.36 515.424 1823.2C515.424 1809.04 505.184 1801.6 494.784 1801.6C486.944 1801.6 480.544 1805.92 478.144 1811.28H477.904V1787.2H473.024ZM477.744 1823.2C477.744 1811.76 485.984 1806.08 494.144 1806.08C502.304 1806.08 510.544 1811.68 510.544 1823.2C510.544 1834.72 502.304 1840.32 494.144 1840.32C485.984 1840.32 477.744 1834.64 477.744 1823.2ZM523.493 1844H528.373V1802.4H523.493V1844ZM523.493 1791.92H528.373V1787.2H523.493V1791.92ZM538.415 1844H543.295V1787.2H538.415V1844ZM553.337 1844H558.217V1802.4H553.337V1844ZM553.337 1791.92H558.217V1787.2H553.337V1791.92ZM579.619 1844.48C581.219 1844.48 582.979 1844.24 584.419 1843.28V1839.28C582.899 1839.92 581.619 1840.08 580.659 1840.08C577.859 1840.08 576.499 1838.64 576.499 1835.92V1806.48H584.579V1802.4H576.499V1791.76H571.619V1802.4H566.259V1806.48H571.619V1836.96C571.619 1842.16 574.819 1844.48 579.619 1844.48ZM600.944 1859.2H605.744L612.464 1844L630.224 1802.4H625.104L610.224 1837.76L595.344 1802.4H590.224L607.824 1843.68L600.944 1859.2ZM668.579 1844H673.539V1791.92H689.219V1787.2H652.899V1791.92H668.579V1844ZM708.473 1844.8C714.953 1844.8 721.033 1842.16 724.793 1837.52L722.233 1834.88C719.193 1838.48 714.313 1840.48 709.033 1840.48C700.313 1840.48 692.793 1835.04 691.993 1824.96H727.753C729.113 1809.28 718.473 1801.6 707.913 1801.6C697.513 1801.6 687.353 1809.2 687.353 1823.12C687.353 1837.12 697.433 1844.8 708.473 1844.8ZM691.993 1821.04C692.873 1811.12 700.233 1805.92 707.913 1805.92C715.833 1805.92 723.113 1811.28 723.353 1821.04H691.993ZM746.583 1844.8C753.463 1844.8 760.423 1841.2 760.423 1833.12C760.423 1826.4 755.943 1823.6 748.743 1820.64L745.943 1819.52C741.063 1817.52 739.143 1815.12 739.143 1812C739.143 1807.84 742.583 1805.76 746.583 1805.76C750.983 1805.76 753.543 1808.08 754.903 1811.6L758.823 1810.32C757.383 1805.04 752.663 1801.6 746.423 1801.6C739.543 1801.6 734.343 1805.84 734.343 1812C734.343 1816.56 737.143 1820.56 744.023 1823.36L747.223 1824.64C752.663 1826.96 755.543 1828.88 755.543 1833.12C755.543 1838.32 751.063 1840.56 746.583 1840.56C741.703 1840.56 737.863 1837.76 736.583 1832.56L732.343 1833.76C733.623 1840.56 738.983 1844.8 746.583 1844.8ZM779.072 1844.48C780.672 1844.48 782.432 1844.24 783.872 1843.28V1839.28C782.352 1839.92 781.072 1840.08 780.112 1840.08C777.312 1840.08 775.952 1838.64 775.952 1835.92V1806.48H784.032V1802.4H775.952V1791.76H771.072V1802.4H765.712V1806.48H771.072V1836.96C771.072 1842.16 774.272 1844.48 779.072 1844.48ZM792.478 1844H797.358V1802.4H792.478V1844ZM792.478 1791.92H797.358V1787.2H792.478V1791.92ZM807.399 1844H812.279V1820.08C812.279 1810.56 818.279 1806.08 825.399 1806.08C832.599 1806.08 838.279 1810.56 838.279 1820.08V1844H843.159V1819.52C843.159 1807.12 835.559 1801.6 826.679 1801.6C818.999 1801.6 814.359 1805.6 812.279 1809.68V1802.4H807.399V1844ZM873.019 1860.64C882.779 1860.64 893.659 1856.16 893.659 1842.08V1802.4H888.779V1811.28H888.459C886.059 1805.92 879.659 1801.6 871.819 1801.6C861.579 1801.6 851.259 1809.04 851.259 1823.2C851.259 1837.36 861.579 1844.8 871.819 1844.8C879.659 1844.8 886.059 1840.48 888.459 1835.12H888.779V1841.84C888.779 1852.72 880.779 1856.4 872.459 1856.4C866.699 1856.4 862.699 1854.64 860.779 1853.36V1857.68C862.619 1858.96 867.099 1860.64 873.019 1860.64ZM856.139 1823.2C856.139 1811.68 864.379 1806.08 872.459 1806.08C880.619 1806.08 888.939 1811.76 888.939 1823.2C888.939 1834.64 880.619 1840.32 872.459 1840.32C864.379 1840.32 856.139 1834.72 856.139 1823.2Z" fill="black"/>
<path d="M642.429 3081H658.869V3053.64H672.549C691.029 3053.64 703.029 3042.12 703.029 3024.72C703.029 3007.32 691.029 2995.8 672.549 2995.8H642.429V3081ZM658.869 3038.52V3010.92H671.109C679.989 3010.92 686.349 3014.88 686.349 3024.72C686.349 3034.68 679.989 3038.52 671.109 3038.52H658.869ZM712.858 3081H728.938V3053.76C728.938 3041.28 736.498 3032.88 748.618 3032.88C750.058 3032.88 751.258 3033 752.698 3033.24V3017.88C751.258 3017.52 749.938 3017.4 748.498 3017.4C737.218 3017.4 731.098 3025.2 728.938 3034.8V3018.6H712.858V3081ZM789.965 3082.2C806.165 3082.2 822.845 3070.92 822.845 3049.8C822.845 3028.68 806.165 3017.4 789.965 3017.4C773.645 3017.4 757.085 3028.68 757.085 3049.8C757.085 3070.92 773.645 3082.2 789.965 3082.2ZM772.925 3049.8C772.925 3038.64 780.965 3031.92 789.965 3031.92C798.965 3031.92 806.885 3038.64 806.885 3049.8C806.885 3060.96 798.965 3067.68 789.965 3067.68C780.965 3067.68 772.925 3060.96 772.925 3049.8ZM854.4 3081.72C858.36 3081.72 862.92 3081 865.32 3078.84V3066.48C863.04 3067.2 860.88 3067.44 859.44 3067.44C854.16 3067.44 852.36 3064.32 852.36 3061.08V3031.44H865.2V3018.6H852.36V3002.64H836.16V3018.6H827.28V3031.44H836.16V3063.72C836.16 3076.56 843.84 3081.72 854.4 3081.72ZM904.34 3082.2C920.54 3082.2 937.22 3070.92 937.22 3049.8C937.22 3028.68 920.54 3017.4 904.34 3017.4C888.02 3017.4 871.46 3028.68 871.46 3049.8C871.46 3070.92 888.02 3082.2 904.34 3082.2ZM887.3 3049.8C887.3 3038.64 895.34 3031.92 904.34 3031.92C913.34 3031.92 921.26 3038.64 921.26 3049.8C921.26 3060.96 913.34 3067.68 904.34 3067.68C895.34 3067.68 887.3 3060.96 887.3 3049.8ZM968.775 3081.72C972.735 3081.72 977.295 3081 979.695 3078.84V3066.48C977.415 3067.2 975.255 3067.44 973.815 3067.44C968.535 3067.44 966.735 3064.32 966.735 3061.08V3031.44H979.575V3018.6H966.735V3002.64H950.535V3018.6H941.655V3031.44H950.535V3063.72C950.535 3076.56 958.215 3081.72 968.775 3081.72ZM1000.94 3103.8H1016.66L1026.38 3081L1052.66 3018.6H1036.1L1018.94 3061.92L1001.66 3018.6H985.221L1011.14 3080.4L1000.94 3103.8ZM1060.67 3103.8H1076.75V3072.6H1077.11C1078.67 3076.08 1085.87 3082.2 1097.03 3082.2C1111.55 3082.2 1127.03 3071.4 1127.03 3049.8C1127.03 3028.2 1111.55 3017.4 1097.03 3017.4C1085.87 3017.4 1078.67 3023.52 1077.11 3027H1076.75V3018.6H1060.67V3103.8ZM1076.39 3049.8C1076.39 3038.04 1084.79 3031.8 1093.79 3031.8C1102.79 3031.8 1111.19 3038.16 1111.19 3049.8C1111.19 3061.44 1102.79 3067.8 1093.79 3067.8C1084.79 3067.8 1076.39 3061.56 1076.39 3049.8ZM1165.78 3082.2C1176.82 3082.2 1185.82 3077.64 1190.98 3071.16L1183.66 3063.36C1179.1 3067.32 1173.7 3069 1167.58 3069C1158.22 3069 1150.78 3064.56 1148.5 3056.04H1195.18C1198.66 3028.56 1180.66 3017.4 1164.82 3017.4C1148.86 3017.4 1133.26 3028.8 1133.26 3049.8C1133.26 3070.56 1148.62 3082.2 1165.78 3082.2ZM1148.26 3044.28C1150.3 3035.28 1157.5 3030.96 1164.94 3030.96C1172.5 3030.96 1179.94 3035.4 1180.9 3044.28H1148.26Z" fill="black"/>
<path d="M461.121 3268.8C461.121 3266.4 461.494 3264.48 462.241 3263.04C463.041 3261.55 464.108 3260.48 465.441 3259.84C466.828 3259.2 468.348 3258.88 470.001 3258.88C471.654 3258.88 473.148 3259.2 474.481 3259.84C475.814 3260.48 476.881 3261.55 477.681 3263.04C478.481 3264.48 478.881 3266.4 478.881 3268.8C478.881 3271.15 478.481 3273.07 477.681 3274.56C476.881 3276 475.814 3277.07 474.481 3277.76C473.148 3278.4 471.654 3278.72 470.001 3278.72C468.348 3278.72 466.828 3278.4 465.441 3277.76C464.108 3277.07 463.041 3276 462.241 3274.56C461.494 3273.07 461.121 3271.15 461.121 3268.8ZM549.68 3298H553.76L569.44 3250L585.04 3298H589.12L606.24 3241.2H600.96L586.8 3288.96L571.44 3241.2H567.36L552.08 3288.96L537.92 3241.2H532.64L549.68 3298ZM613.946 3298H618.826V3256.4H613.946V3298ZM613.946 3245.92H618.826V3241.2H613.946V3245.92ZM628.868 3298H633.748V3275.92C633.748 3266.16 639.748 3260.16 647.348 3260.16C648.228 3260.16 648.788 3260.24 649.428 3260.4V3255.84C648.868 3255.68 648.228 3255.6 647.268 3255.6C639.588 3255.6 635.428 3260.48 633.748 3266.08V3256.4H628.868V3298ZM675.488 3298.8C681.968 3298.8 688.048 3296.16 691.808 3291.52L689.248 3288.88C686.208 3292.48 681.328 3294.48 676.048 3294.48C667.328 3294.48 659.808 3289.04 659.008 3278.96H694.768C696.128 3263.28 685.488 3255.6 674.928 3255.6C664.528 3255.6 654.368 3263.2 654.368 3277.12C654.368 3291.12 664.448 3298.8 675.488 3298.8ZM659.008 3275.04C659.888 3265.12 667.248 3259.92 674.928 3259.92C682.848 3259.92 690.128 3265.28 690.368 3275.04H659.008ZM704.691 3250.96V3256.4H700.131V3260.48H704.691V3298H709.571V3260.48H721.411V3256.4H709.571V3251.6C709.571 3245.68 712.451 3243.92 716.131 3243.92C718.051 3243.92 719.971 3244.4 721.411 3245.2V3241.28C719.971 3240.4 717.971 3239.68 715.331 3239.68C710.691 3239.68 704.691 3241.84 704.691 3250.96ZM727.853 3298H732.733V3275.92C732.733 3266.16 738.733 3260.16 746.332 3260.16C747.213 3260.16 747.773 3260.24 748.413 3260.4V3255.84C747.853 3255.68 747.213 3255.6 746.253 3255.6C738.573 3255.6 734.413 3260.48 732.733 3266.08V3256.4H727.853V3298ZM773.993 3298.8C781.833 3298.8 788.233 3294.48 790.633 3289.12H790.873V3298H795.753V3256.4H790.873V3265.28H790.633C788.233 3259.92 781.833 3255.6 773.993 3255.6C763.593 3255.6 753.353 3263.04 753.353 3277.2C753.353 3291.36 763.593 3298.8 773.993 3298.8ZM758.233 3277.2C758.233 3265.68 766.473 3260.08 774.633 3260.08C782.793 3260.08 791.033 3265.76 791.033 3277.2C791.033 3288.64 782.793 3294.32 774.633 3294.32C766.473 3294.32 758.233 3288.72 758.233 3277.2ZM833.821 3298H838.701V3273.84C838.701 3265.52 843.021 3260.08 850.541 3260.08C858.141 3260.08 861.821 3265.52 861.821 3273.84V3298H866.701V3273.36C866.701 3261.04 860.301 3255.6 851.661 3255.6C843.581 3255.6 839.101 3260.32 837.341 3264.72C835.021 3258.48 829.901 3255.6 823.741 3255.6C816.701 3255.6 812.621 3259.28 810.701 3263.2V3256.4H805.821V3298H810.701V3273.84C810.701 3265.52 814.941 3260.08 822.541 3260.08C830.141 3260.08 833.821 3265.52 833.821 3273.84V3298ZM876.759 3298H881.639V3256.4H876.759V3298ZM876.759 3245.92H881.639V3241.2H876.759V3245.92ZM891.681 3298H896.561V3274.08C896.561 3264.56 902.561 3260.08 909.681 3260.08C916.881 3260.08 922.561 3264.56 922.561 3274.08V3298H927.441V3273.52C927.441 3261.12 919.841 3255.6 910.961 3255.6C903.281 3255.6 898.641 3259.6 896.561 3263.68V3256.4H891.681V3298ZM957.3 3314.64C967.06 3314.64 977.94 3310.16 977.94 3296.08V3256.4H973.06V3265.28H972.74C970.34 3259.92 963.94 3255.6 956.1 3255.6C945.86 3255.6 935.54 3263.04 935.54 3277.2C935.54 3291.36 945.86 3298.8 956.1 3298.8C963.94 3298.8 970.34 3294.48 972.74 3289.12H973.06V3295.84C973.06 3306.72 965.06 3310.4 956.74 3310.4C950.98 3310.4 946.98 3308.64 945.06 3307.36V3311.68C946.9 3312.96 951.38 3314.64 957.3 3314.64ZM940.42 3277.2C940.42 3265.68 948.66 3260.08 956.74 3260.08C964.9 3260.08 973.22 3265.76 973.22 3277.2C973.22 3288.64 964.9 3294.32 956.74 3294.32C948.66 3294.32 940.42 3288.72 940.42 3277.2ZM461.121 3393.8C461.121 3391.4 461.494 3389.48 462.241 3388.04C463.041 3386.55 464.108 3385.48 465.441 3384.84C466.828 3384.2 468.348 3383.88 470.001 3383.88C471.654 3383.88 473.148 3384.2 474.481 3384.84C475.814 3385.48 476.881 3386.55 477.681 3388.04C478.481 3389.48 478.881 3391.4 478.881 3393.8C478.881 3396.15 478.481 3398.07 477.681 3399.56C476.881 3401 475.814 3402.07 474.481 3402.76C473.148 3403.4 471.654 3403.72 470.001 3403.72C468.348 3403.72 466.828 3403.4 465.441 3402.76C464.108 3402.07 463.041 3401 462.241 3399.56C461.494 3398.07 461.121 3396.15 461.121 3393.8ZM570.4 3423H575.36V3366.2H570.4V3392.84H540V3366.2H535.04V3423H540V3397.48H570.4V3423ZM585.431 3423H590.311V3381.4H585.431V3423ZM585.431 3370.92H590.311V3366.2H585.431V3370.92ZM631.873 3390.6V3396.76H599.953V3390.6H631.873ZM646.175 3375.96V3381.4H641.615V3385.48H646.175V3423H651.055V3385.48H662.895V3381.4H651.055V3376.6C651.055 3370.68 653.935 3368.92 657.615 3368.92C659.535 3368.92 661.455 3369.4 662.895 3370.2V3366.28C661.455 3365.4 659.455 3364.68 656.815 3364.68C652.175 3364.68 646.175 3366.84 646.175 3375.96ZM670.587 3423H675.467V3381.4H670.587V3423ZM670.587 3370.92H675.467V3366.2H670.587V3370.92ZM725.909 3423V3366.2H721.029V3390.28H720.789C718.389 3384.92 711.989 3380.6 704.149 3380.6C693.749 3380.6 683.509 3388.04 683.509 3402.2C683.509 3416.36 693.749 3423.8 704.149 3423.8C711.989 3423.8 718.389 3419.48 720.789 3414.12H721.029V3423H725.909ZM688.389 3402.2C688.389 3390.68 696.629 3385.08 704.789 3385.08C712.949 3385.08 721.189 3390.76 721.189 3402.2C721.189 3413.64 712.949 3419.32 704.789 3419.32C696.629 3419.32 688.389 3413.72 688.389 3402.2ZM755.098 3423.8C761.578 3423.8 767.658 3421.16 771.418 3416.52L768.858 3413.88C765.818 3417.48 760.938 3419.48 755.658 3419.48C746.938 3419.48 739.418 3414.04 738.618 3403.96H774.378C775.738 3388.28 765.098 3380.6 754.538 3380.6C744.138 3380.6 733.978 3388.2 733.978 3402.12C733.978 3416.12 744.058 3423.8 755.098 3423.8ZM738.618 3400.04C739.498 3390.12 746.858 3384.92 754.538 3384.92C762.458 3384.92 769.738 3390.28 769.978 3400.04H738.618ZM782.54 3423H787.42V3366.2H782.54V3423ZM797.462 3423H802.342V3381.4H797.462V3423ZM797.462 3370.92H802.342V3366.2H797.462V3370.92ZM823.744 3423.48C825.344 3423.48 827.104 3423.24 828.544 3422.28V3418.28C827.024 3418.92 825.744 3419.08 824.784 3419.08C821.984 3419.08 820.624 3417.64 820.624 3414.92V3385.48H828.704V3381.4H820.624V3370.76H815.744V3381.4H810.384V3385.48H815.744V3415.96C815.744 3421.16 818.944 3423.48 823.744 3423.48ZM845.069 3438.2H849.869L856.589 3423L874.349 3381.4H869.229L854.349 3416.76L839.469 3381.4H834.349L851.949 3422.68L845.069 3438.2ZM899.024 3423H903.984V3366.2H899.024V3423ZM914.103 3423H918.983V3399.08C918.983 3389.56 924.983 3385.08 932.103 3385.08C939.303 3385.08 944.983 3389.56 944.983 3399.08V3423H949.863V3398.52C949.863 3386.12 942.263 3380.6 933.383 3380.6C925.703 3380.6 921.063 3384.6 918.983 3388.68V3381.4H914.103V3423ZM970.15 3423.48C971.75 3423.48 973.51 3423.24 974.95 3422.28V3418.28C973.43 3418.92 972.15 3419.08 971.19 3419.08C968.39 3419.08 967.03 3417.64 967.03 3414.92V3385.48H975.11V3381.4H967.03V3370.76H962.15V3381.4H956.79V3385.48H962.15V3415.96C962.15 3421.16 965.35 3423.48 970.15 3423.48ZM1002.29 3423.8C1008.77 3423.8 1014.85 3421.16 1018.61 3416.52L1016.05 3413.88C1013.01 3417.48 1008.13 3419.48 1002.85 3419.48C994.125 3419.48 986.605 3414.04 985.805 3403.96H1021.57C1022.93 3388.28 1012.29 3380.6 1001.73 3380.6C991.325 3380.6 981.165 3388.2 981.165 3402.12C981.165 3416.12 991.245 3423.8 1002.29 3423.8ZM985.805 3400.04C986.685 3390.12 994.045 3384.92 1001.73 3384.92C1009.65 3384.92 1016.93 3390.28 1017.17 3400.04H985.805ZM1029.73 3423H1034.61V3400.92C1034.61 3391.16 1040.61 3385.16 1048.21 3385.16C1049.09 3385.16 1049.65 3385.24 1050.29 3385.4V3380.84C1049.73 3380.68 1049.09 3380.6 1048.13 3380.6C1040.45 3380.6 1036.29 3385.48 1034.61 3391.08V3381.4H1029.73V3423ZM1075.87 3423.8C1083.71 3423.8 1090.11 3419.48 1092.51 3414.12H1092.75V3423H1097.63V3381.4H1092.75V3390.28H1092.51C1090.11 3384.92 1083.71 3380.6 1075.87 3380.6C1065.47 3380.6 1055.23 3388.04 1055.23 3402.2C1055.23 3416.36 1065.47 3423.8 1075.87 3423.8ZM1060.11 3402.2C1060.11 3390.68 1068.35 3385.08 1076.51 3385.08C1084.67 3385.08 1092.91 3390.76 1092.91 3402.2C1092.91 3413.64 1084.67 3419.32 1076.51 3419.32C1068.35 3419.32 1060.11 3413.72 1060.11 3402.2ZM1127.06 3423.8C1134.26 3423.8 1141.22 3420.28 1144.82 3413.56L1140.98 3411.4C1138.18 3416.52 1132.82 3419.32 1127.22 3419.32C1118.98 3419.32 1110.58 3413.24 1110.58 3402.28C1110.58 3391.16 1118.98 3385.08 1127.22 3385.08C1132.82 3385.08 1138.18 3387.88 1140.98 3393L1144.82 3390.84C1141.22 3384.12 1134.26 3380.6 1127.06 3380.6C1116.42 3380.6 1105.7 3388.36 1105.7 3402.28C1105.7 3416.04 1116.42 3423.8 1127.06 3423.8ZM1164.29 3423.48C1165.89 3423.48 1167.65 3423.24 1169.09 3422.28V3418.28C1167.57 3418.92 1166.29 3419.08 1165.33 3419.08C1162.53 3419.08 1161.17 3417.64 1161.17 3414.92V3385.48H1169.25V3381.4H1161.17V3370.76H1156.29V3381.4H1150.93V3385.48H1156.29V3415.96C1156.29 3421.16 1159.49 3423.48 1164.29 3423.48ZM1177.7 3423H1182.58V3381.4H1177.7V3423ZM1177.7 3370.92H1182.58V3366.2H1177.7V3370.92ZM1207.58 3423H1212.06L1229.82 3381.4H1224.7L1209.82 3416.76L1194.94 3381.4H1189.82L1207.58 3423ZM1253.77 3423.8C1260.25 3423.8 1266.33 3421.16 1270.09 3416.52L1267.53 3413.88C1264.49 3417.48 1259.61 3419.48 1254.33 3419.48C1245.61 3419.48 1238.09 3414.04 1237.29 3403.96H1273.05C1274.41 3388.28 1263.77 3380.6 1253.21 3380.6C1242.81 3380.6 1232.65 3388.2 1232.65 3402.12C1232.65 3416.12 1242.73 3423.8 1253.77 3423.8ZM1237.29 3400.04C1238.17 3390.12 1245.53 3384.92 1253.21 3384.92C1261.13 3384.92 1268.41 3390.28 1268.65 3400.04H1237.29ZM1298.63 3423H1303.59V3402.52H1316.39C1328.55 3402.52 1335.59 3394.84 1335.59 3384.28C1335.59 3373.96 1328.55 3366.2 1316.39 3366.2H1298.63V3423ZM1303.59 3397.8V3370.92H1315.99C1324.95 3370.92 1330.47 3375.64 1330.47 3384.28C1330.47 3392.92 1324.95 3397.8 1315.99 3397.8H1303.59ZM1344.1 3423H1348.98V3400.92C1348.98 3391.16 1354.98 3385.16 1362.58 3385.16C1363.46 3385.16 1364.02 3385.24 1364.66 3385.4V3380.84C1364.1 3380.68 1363.46 3380.6 1362.5 3380.6C1354.82 3380.6 1350.66 3385.48 1348.98 3391.08V3381.4H1344.1V3423ZM1391.04 3423.8C1401.76 3423.8 1412.48 3416.04 1412.48 3402.2C1412.48 3388.36 1401.76 3380.6 1391.04 3380.6C1380.32 3380.6 1369.6 3388.36 1369.6 3402.2C1369.6 3416.04 1380.32 3423.8 1391.04 3423.8ZM1374.48 3402.2C1374.48 3391.16 1382.64 3385.08 1391.04 3385.08C1399.44 3385.08 1407.6 3391.16 1407.6 3402.2C1407.6 3413.24 1399.44 3419.32 1391.04 3419.32C1382.64 3419.32 1374.48 3413.24 1374.48 3402.2ZM1430.78 3423.48C1432.38 3423.48 1434.14 3423.24 1435.58 3422.28V3418.28C1434.06 3418.92 1432.78 3419.08 1431.82 3419.08C1429.02 3419.08 1427.66 3417.64 1427.66 3414.92V3385.48H1435.74V3381.4H1427.66V3370.76H1422.78V3381.4H1417.42V3385.48H1422.78V3415.96C1422.78 3421.16 1425.98 3423.48 1430.78 3423.48ZM1463.23 3423.8C1473.95 3423.8 1484.67 3416.04 1484.67 3402.2C1484.67 3388.36 1473.95 3380.6 1463.23 3380.6C1452.51 3380.6 1441.79 3388.36 1441.79 3402.2C1441.79 3416.04 1452.51 3423.8 1463.23 3423.8ZM1446.67 3402.2C1446.67 3391.16 1454.83 3385.08 1463.23 3385.08C1471.63 3385.08 1479.79 3391.16 1479.79 3402.2C1479.79 3413.24 1471.63 3419.32 1463.23 3419.32C1454.83 3419.32 1446.67 3413.24 1446.67 3402.2ZM1502.96 3423.48C1504.56 3423.48 1506.32 3423.24 1507.76 3422.28V3418.28C1506.24 3418.92 1504.96 3419.08 1504 3419.08C1501.2 3419.08 1499.84 3417.64 1499.84 3414.92V3385.48H1507.92V3381.4H1499.84V3370.76H1494.96V3381.4H1489.6V3385.48H1494.96V3415.96C1494.96 3421.16 1498.16 3423.48 1502.96 3423.48ZM1524.29 3438.2H1529.09L1535.81 3423L1553.57 3381.4H1548.45L1533.57 3416.76L1518.69 3381.4H1513.57L1531.17 3422.68L1524.29 3438.2ZM1560.82 3438.2H1565.7V3414.12H1565.94C1568.34 3419.48 1574.74 3423.8 1582.58 3423.8C1592.98 3423.8 1603.22 3416.36 1603.22 3402.2C1603.22 3388.04 1592.98 3380.6 1582.58 3380.6C1574.74 3380.6 1568.34 3384.92 1565.94 3390.28H1565.7V3381.4H1560.82V3438.2ZM1565.54 3402.2C1565.54 3390.76 1573.78 3385.08 1581.94 3385.08C1590.1 3385.08 1598.34 3390.68 1598.34 3402.2C1598.34 3413.72 1590.1 3419.32 1581.94 3419.32C1573.78 3419.32 1565.54 3413.64 1565.54 3402.2ZM1630.41 3423.8C1636.89 3423.8 1642.97 3421.16 1646.73 3416.52L1644.17 3413.88C1641.13 3417.48 1636.25 3419.48 1630.97 3419.48C1622.25 3419.48 1614.73 3414.04 1613.93 3403.96H1649.69C1651.05 3388.28 1640.41 3380.6 1629.85 3380.6C1619.45 3380.6 1609.29 3388.2 1609.29 3402.12C1609.29 3416.12 1619.37 3423.8 1630.41 3423.8ZM1613.93 3400.04C1614.81 3390.12 1622.17 3384.92 1629.85 3384.92C1637.77 3384.92 1645.05 3390.28 1645.29 3400.04H1613.93Z" fill="black"/>
<path d="M3850.09 3081H3866.53V2995.8H3850.09V3081ZM3942.05 3081V2995.8H3925.97V3027H3925.61C3924.05 3023.52 3916.85 3017.4 3905.69 3017.4C3891.17 3017.4 3875.69 3028.2 3875.69 3049.8C3875.69 3071.4 3891.17 3082.2 3905.69 3082.2C3916.85 3082.2 3924.05 3076.08 3925.61 3072.6H3925.97V3081H3942.05ZM3891.53 3049.8C3891.53 3038.16 3899.93 3031.8 3908.93 3031.8C3917.93 3031.8 3926.33 3038.04 3926.33 3049.8C3926.33 3061.56 3917.93 3067.8 3908.93 3067.8C3899.93 3067.8 3891.53 3061.44 3891.53 3049.8ZM3983.79 3082.2C3994.83 3082.2 4003.83 3077.64 4008.99 3071.16L4001.67 3063.36C3997.11 3067.32 3991.71 3069 3985.59 3069C3976.23 3069 3968.79 3064.56 3966.51 3056.04H4013.19C4016.67 3028.56 3998.67 3017.4 3982.83 3017.4C3966.87 3017.4 3951.27 3028.8 3951.27 3049.8C3951.27 3070.56 3966.63 3082.2 3983.79 3082.2ZM3966.27 3044.28C3968.31 3035.28 3975.51 3030.96 3982.95 3030.96C3990.51 3030.96 3997.95 3035.4 3998.91 3044.28H3966.27ZM4049.83 3082.2C4060.99 3082.2 4068.19 3076.08 4069.75 3072.6H4070.11V3081H4086.19V3018.6H4070.11V3027H4069.75C4068.19 3023.52 4060.99 3017.4 4049.83 3017.4C4035.31 3017.4 4019.83 3028.2 4019.83 3049.8C4019.83 3071.4 4035.31 3082.2 4049.83 3082.2ZM4035.67 3049.8C4035.67 3038.16 4044.07 3031.8 4053.07 3031.8C4062.07 3031.8 4070.47 3038.04 4070.47 3049.8C4070.47 3061.56 4062.07 3067.8 4053.07 3067.8C4044.07 3067.8 4035.67 3061.44 4035.67 3049.8ZM4122.53 3081.72C4126.49 3081.72 4131.05 3081 4133.45 3078.84V3066.48C4131.17 3067.2 4129.01 3067.44 4127.57 3067.44C4122.29 3067.44 4120.49 3064.32 4120.49 3061.08V3031.44H4133.33V3018.6H4120.49V3002.64H4104.29V3018.6H4095.41V3031.44H4104.29V3063.72C4104.29 3076.56 4111.97 3081.72 4122.53 3081.72ZM4172.11 3082.2C4183.15 3082.2 4192.15 3077.64 4197.31 3071.16L4189.99 3063.36C4185.43 3067.32 4180.03 3069 4173.91 3069C4164.55 3069 4157.11 3064.56 4154.83 3056.04H4201.51C4204.99 3028.56 4186.99 3017.4 4171.15 3017.4C4155.19 3017.4 4139.59 3028.8 4139.59 3049.8C4139.59 3070.56 4154.95 3082.2 4172.11 3082.2ZM4154.59 3044.28C4156.63 3035.28 4163.83 3030.96 4171.27 3030.96C4178.83 3030.96 4186.27 3035.4 4187.23 3044.28H4154.59Z" fill="black"/>
<path d="M3568.12 3268.8C3568.12 3266.4 3568.49 3264.48 3569.24 3263.04C3570.04 3261.55 3571.11 3260.48 3572.44 3259.84C3573.83 3259.2 3575.35 3258.88 3577 3258.88C3578.65 3258.88 3580.15 3259.2 3581.48 3259.84C3582.81 3260.48 3583.88 3261.55 3584.68 3263.04C3585.48 3264.48 3585.88 3266.4 3585.88 3268.8C3585.88 3271.15 3585.48 3273.07 3584.68 3274.56C3583.88 3276 3582.81 3277.07 3581.48 3277.76C3580.15 3278.4 3578.65 3278.72 3577 3278.72C3575.35 3278.72 3573.83 3278.4 3572.44 3277.76C3571.11 3277.07 3570.04 3276 3569.24 3274.56C3568.49 3273.07 3568.12 3271.15 3568.12 3268.8ZM3642.04 3298H3660.04C3673.08 3298 3679.16 3291.2 3679.16 3282C3679.16 3274 3674.68 3268.24 3667.16 3266.56C3673.24 3264.56 3675.96 3259.76 3675.96 3254.48C3675.96 3247.44 3671.24 3241.2 3660.76 3241.2H3642.04V3298ZM3647 3293.52V3269.04H3659.72C3669.4 3269.04 3674.28 3274.08 3674.28 3281.68C3674.28 3289.12 3669.4 3293.52 3659.72 3293.52H3647ZM3647 3265.04V3245.68H3659.96C3667.56 3245.68 3671.16 3249.44 3671.16 3255.04C3671.16 3260.88 3667.16 3265.04 3659.72 3265.04H3647ZM3687.67 3298H3692.55V3275.92C3692.55 3266.16 3698.55 3260.16 3706.14 3260.16C3707.03 3260.16 3707.59 3260.24 3708.23 3260.4V3255.84C3707.67 3255.68 3707.03 3255.6 3706.07 3255.6C3698.39 3255.6 3694.23 3260.48 3692.55 3266.08V3256.4H3687.67V3298ZM3733.81 3298.8C3741.65 3298.8 3748.05 3294.48 3750.45 3289.12H3750.69V3298H3755.57V3256.4H3750.69V3265.28H3750.45C3748.05 3259.92 3741.65 3255.6 3733.81 3255.6C3723.41 3255.6 3713.17 3263.04 3713.17 3277.2C3713.17 3291.36 3723.41 3298.8 3733.81 3298.8ZM3718.05 3277.2C3718.05 3265.68 3726.29 3260.08 3734.45 3260.08C3742.61 3260.08 3750.85 3265.76 3750.85 3277.2C3750.85 3288.64 3742.61 3294.32 3734.45 3294.32C3726.29 3294.32 3718.05 3288.72 3718.05 3277.2ZM3765.63 3298H3770.51V3256.4H3765.63V3298ZM3765.63 3245.92H3770.51V3241.2H3765.63V3245.92ZM3780.56 3298H3785.44V3274.08C3785.44 3264.56 3791.44 3260.08 3798.56 3260.08C3805.76 3260.08 3811.44 3264.56 3811.44 3274.08V3298H3816.32V3273.52C3816.32 3261.12 3808.72 3255.6 3799.84 3255.6C3792.16 3255.6 3787.52 3259.6 3785.44 3263.68V3256.4H3780.56V3298ZM3838.26 3298.8C3845.14 3298.8 3852.1 3295.2 3852.1 3287.12C3852.1 3280.4 3847.62 3277.6 3840.42 3274.64L3837.62 3273.52C3832.74 3271.52 3830.82 3269.12 3830.82 3266C3830.82 3261.84 3834.26 3259.76 3838.26 3259.76C3842.66 3259.76 3845.22 3262.08 3846.58 3265.6L3850.5 3264.32C3849.06 3259.04 3844.34 3255.6 3838.1 3255.6C3831.22 3255.6 3826.02 3259.84 3826.02 3266C3826.02 3270.56 3828.82 3274.56 3835.7 3277.36L3838.9 3278.64C3844.34 3280.96 3847.22 3282.88 3847.22 3287.12C3847.22 3292.32 3842.74 3294.56 3838.26 3294.56C3833.38 3294.56 3829.54 3291.76 3828.26 3286.56L3824.01 3287.76C3825.3 3294.56 3830.66 3298.8 3838.26 3298.8ZM3870.74 3298.48C3872.34 3298.48 3874.1 3298.24 3875.54 3297.28V3293.28C3874.02 3293.92 3872.74 3294.08 3871.78 3294.08C3868.98 3294.08 3867.62 3292.64 3867.62 3289.92V3260.48H3875.7V3256.4H3867.62V3245.76H3862.74V3256.4H3857.38V3260.48H3862.74V3290.96C3862.74 3296.16 3865.94 3298.48 3870.74 3298.48ZM3903.2 3298.8C3913.92 3298.8 3924.64 3291.04 3924.64 3277.2C3924.64 3263.36 3913.92 3255.6 3903.2 3255.6C3892.48 3255.6 3881.76 3263.36 3881.76 3277.2C3881.76 3291.04 3892.48 3298.8 3903.2 3298.8ZM3886.64 3277.2C3886.64 3266.16 3894.8 3260.08 3903.2 3260.08C3911.6 3260.08 3919.76 3266.16 3919.76 3277.2C3919.76 3288.24 3911.6 3294.32 3903.2 3294.32C3894.8 3294.32 3886.64 3288.24 3886.64 3277.2ZM3932.74 3298H3937.62V3275.92C3937.62 3266.16 3943.62 3260.16 3951.22 3260.16C3952.1 3260.16 3952.66 3260.24 3953.3 3260.4V3255.84C3952.74 3255.68 3952.1 3255.6 3951.14 3255.6C3943.46 3255.6 3939.3 3260.48 3937.62 3266.08V3256.4H3932.74V3298ZM3989.42 3298H3994.3V3273.84C3994.3 3265.52 3998.61 3260.08 4006.14 3260.08C4013.74 3260.08 4017.42 3265.52 4017.42 3273.84V3298H4022.3V3273.36C4022.3 3261.04 4015.9 3255.6 4007.26 3255.6C3999.18 3255.6 3994.7 3260.32 3992.94 3264.72C3990.62 3258.48 3985.5 3255.6 3979.34 3255.6C3972.3 3255.6 3968.22 3259.28 3966.3 3263.2V3256.4H3961.42V3298H3966.3V3273.84C3966.3 3265.52 3970.54 3260.08 3978.14 3260.08C3985.74 3260.08 3989.42 3265.52 3989.42 3273.84V3298ZM4032.35 3298H4037.23V3256.4H4032.35V3298ZM4032.35 3245.92H4037.23V3241.2H4032.35V3245.92ZM4047.27 3298H4052.15V3274.08C4052.15 3264.56 4058.15 3260.08 4065.27 3260.08C4072.47 3260.08 4078.15 3264.56 4078.15 3274.08V3298H4083.03V3273.52C4083.03 3261.12 4075.43 3255.6 4066.55 3255.6C4058.87 3255.6 4054.23 3259.6 4052.15 3263.68V3256.4H4047.27V3298ZM4112.89 3314.64C4122.65 3314.64 4133.53 3310.16 4133.53 3296.08V3256.4H4128.65V3265.28H4128.33C4125.93 3259.92 4119.53 3255.6 4111.69 3255.6C4101.45 3255.6 4091.13 3263.04 4091.13 3277.2C4091.13 3291.36 4101.45 3298.8 4111.69 3298.8C4119.53 3298.8 4125.93 3294.48 4128.33 3289.12H4128.65V3295.84C4128.65 3306.72 4120.65 3310.4 4112.33 3310.4C4106.57 3310.4 4102.57 3308.64 4100.65 3307.36V3311.68C4102.49 3312.96 4106.97 3314.64 4112.89 3314.64ZM4096.01 3277.2C4096.01 3265.68 4104.25 3260.08 4112.33 3260.08C4120.49 3260.08 4128.81 3265.76 4128.81 3277.2C4128.81 3288.64 4120.49 3294.32 4112.33 3294.32C4104.25 3294.32 4096.01 3288.72 4096.01 3277.2Z" fill="black"/>
<path d="M4103.27 1502H4134.11C4157.63 1502 4175.27 1484.48 4175.27 1459.4C4175.27 1434.32 4157.63 1416.8 4134.11 1416.8H4103.27V1502ZM4119.71 1486.52V1432.28H4133.51C4149.71 1432.28 4158.11 1443.32 4158.11 1459.4C4158.11 1475.48 4149.71 1486.52 4133.51 1486.52H4119.71ZM4214.47 1503.2C4225.51 1503.2 4234.51 1498.64 4239.67 1492.16L4232.35 1484.36C4227.79 1488.32 4222.39 1490 4216.27 1490C4206.91 1490 4199.47 1485.56 4197.19 1477.04H4243.87C4247.35 1449.56 4229.35 1438.4 4213.51 1438.4C4197.55 1438.4 4181.95 1449.8 4181.95 1470.8C4181.95 1491.56 4197.31 1503.2 4214.47 1503.2ZM4196.95 1465.28C4198.99 1456.28 4206.19 1451.96 4213.63 1451.96C4221.19 1451.96 4228.63 1456.4 4229.59 1465.28H4196.95ZM4257.23 1435.52V1439.6H4249.31V1452.44H4257.23V1502H4273.31V1452.44H4289.39V1439.6H4273.31V1437.32C4273.31 1431.2 4276.31 1427.84 4282.43 1427.84C4283.51 1427.84 4286.39 1427.72 4289.39 1429.16V1416.56C4285.91 1414.52 4281.47 1414.16 4278.23 1414.16C4269.95 1414.16 4257.23 1417.16 4257.23 1435.52ZM4298.04 1502H4314.12V1439.6H4298.04V1502ZM4298.04 1430.96H4314.12V1416.8H4298.04V1430.96ZM4326.4 1502H4342.48V1467.92C4342.48 1458.8 4347.52 1452.8 4355.8 1452.8C4364.2 1452.8 4369.12 1458.8 4369.12 1467.92V1502H4385.2V1465.28C4385.2 1446.32 4374.4 1438.4 4361.56 1438.4C4352.2 1438.4 4345.96 1442.6 4342.48 1448.12V1439.6H4326.4V1502ZM4426.93 1503.2C4437.97 1503.2 4446.97 1498.64 4452.13 1492.16L4444.81 1484.36C4440.25 1488.32 4434.85 1490 4428.73 1490C4419.37 1490 4411.93 1485.56 4409.65 1477.04H4456.33C4459.81 1449.56 4441.81 1438.4 4425.97 1438.4C4410.01 1438.4 4394.41 1449.8 4394.41 1470.8C4394.41 1491.56 4409.77 1503.2 4426.93 1503.2ZM4409.41 1465.28C4411.45 1456.28 4418.65 1451.96 4426.09 1451.96C4433.65 1451.96 4441.09 1456.4 4442.05 1465.28H4409.41Z" fill="black"/>
<path d="M3822.12 1689.8C3822.12 1687.4 3822.49 1685.48 3823.24 1684.04C3824.04 1682.55 3825.11 1681.48 3826.44 1680.84C3827.83 1680.2 3829.35 1679.88 3831 1679.88C3832.65 1679.88 3834.15 1680.2 3835.48 1680.84C3836.81 1681.48 3837.88 1682.55 3838.68 1684.04C3839.48 1685.48 3839.88 1687.4 3839.88 1689.8C3839.88 1692.15 3839.48 1694.07 3838.68 1695.56C3837.88 1697 3836.81 1698.07 3835.48 1698.76C3834.15 1699.4 3832.65 1699.72 3831 1699.72C3829.35 1699.72 3827.83 1699.4 3826.44 1698.76C3825.11 1698.07 3824.04 1697 3823.24 1695.56C3822.49 1694.07 3822.12 1692.15 3822.12 1689.8ZM3896.04 1719H3901V1662.2H3896.04V1719ZM3911.12 1719H3916V1695.08C3916 1685.56 3922 1681.08 3929.12 1681.08C3936.32 1681.08 3942 1685.56 3942 1695.08V1719H3946.88V1694.52C3946.88 1682.12 3939.28 1676.6 3930.4 1676.6C3922.72 1676.6 3918.08 1680.6 3916 1684.68V1677.4H3911.12V1719ZM3967.17 1719.48C3968.77 1719.48 3970.53 1719.24 3971.97 1718.28V1714.28C3970.45 1714.92 3969.17 1715.08 3968.21 1715.08C3965.41 1715.08 3964.05 1713.64 3964.05 1710.92V1681.48H3972.13V1677.4H3964.05V1666.76H3959.17V1677.4H3953.81V1681.48H3959.17V1711.96C3959.17 1717.16 3962.37 1719.48 3967.17 1719.48ZM3999.3 1719.8C4005.78 1719.8 4011.86 1717.16 4015.62 1712.52L4013.06 1709.88C4010.02 1713.48 4005.14 1715.48 3999.86 1715.48C3991.14 1715.48 3983.62 1710.04 3982.82 1699.96H4018.58C4019.94 1684.28 4009.3 1676.6 3998.74 1676.6C3988.34 1676.6 3978.18 1684.2 3978.18 1698.12C3978.18 1712.12 3988.26 1719.8 3999.3 1719.8ZM3982.82 1696.04C3983.7 1686.12 3991.06 1680.92 3998.74 1680.92C4006.66 1680.92 4013.94 1686.28 4014.18 1696.04H3982.82ZM4026.74 1719H4031.62V1696.92C4031.62 1687.16 4037.62 1681.16 4045.22 1681.16C4046.1 1681.16 4046.66 1681.24 4047.3 1681.4V1676.84C4046.74 1676.68 4046.1 1676.6 4045.14 1676.6C4037.46 1676.6 4033.3 1681.48 4031.62 1687.08V1677.4H4026.74V1719ZM4055.42 1734.2H4060.3V1710.12H4060.54C4062.94 1715.48 4069.34 1719.8 4077.18 1719.8C4087.58 1719.8 4097.82 1712.36 4097.82 1698.2C4097.82 1684.04 4087.58 1676.6 4077.18 1676.6C4069.34 1676.6 4062.94 1680.92 4060.54 1686.28H4060.3V1677.4H4055.42V1734.2ZM4060.14 1698.2C4060.14 1686.76 4068.38 1681.08 4076.54 1681.08C4084.7 1681.08 4092.94 1686.68 4092.94 1698.2C4092.94 1709.72 4084.7 1715.32 4076.54 1715.32C4068.38 1715.32 4060.14 1709.64 4060.14 1698.2ZM4105.88 1719H4110.76V1696.92C4110.76 1687.16 4116.76 1681.16 4124.36 1681.16C4125.24 1681.16 4125.8 1681.24 4126.44 1681.4V1676.84C4125.88 1676.68 4125.24 1676.6 4124.28 1676.6C4116.6 1676.6 4112.44 1681.48 4110.76 1687.08V1677.4H4105.88V1719ZM4152.5 1719.8C4158.98 1719.8 4165.06 1717.16 4168.82 1712.52L4166.26 1709.88C4163.22 1713.48 4158.34 1715.48 4153.06 1715.48C4144.34 1715.48 4136.82 1710.04 4136.02 1699.96H4171.78C4173.14 1684.28 4162.5 1676.6 4151.94 1676.6C4141.54 1676.6 4131.38 1684.2 4131.38 1698.12C4131.38 1712.12 4141.46 1719.8 4152.5 1719.8ZM4136.02 1696.04C4136.9 1686.12 4144.26 1680.92 4151.94 1680.92C4159.86 1680.92 4167.14 1686.28 4167.38 1696.04H4136.02ZM4190.13 1719.48C4191.73 1719.48 4193.49 1719.24 4194.93 1718.28V1714.28C4193.41 1714.92 4192.13 1715.08 4191.17 1715.08C4188.37 1715.08 4187.01 1713.64 4187.01 1710.92V1681.48H4195.09V1677.4H4187.01V1666.76H4182.13V1677.4H4176.77V1681.48H4182.13V1711.96C4182.13 1717.16 4185.33 1719.48 4190.13 1719.48ZM4221.79 1719.8C4229.63 1719.8 4236.03 1715.48 4238.43 1710.12H4238.67V1719H4243.55V1677.4H4238.67V1686.28H4238.43C4236.03 1680.92 4229.63 1676.6 4221.79 1676.6C4211.39 1676.6 4201.15 1684.04 4201.15 1698.2C4201.15 1712.36 4211.39 1719.8 4221.79 1719.8ZM4206.03 1698.2C4206.03 1686.68 4214.27 1681.08 4222.43 1681.08C4230.59 1681.08 4238.83 1686.76 4238.83 1698.2C4238.83 1709.64 4230.59 1715.32 4222.43 1715.32C4214.27 1715.32 4206.03 1709.72 4206.03 1698.2ZM4264.98 1719.48C4266.58 1719.48 4268.34 1719.24 4269.78 1718.28V1714.28C4268.26 1714.92 4266.98 1715.08 4266.02 1715.08C4263.22 1715.08 4261.86 1713.64 4261.86 1710.92V1681.48H4269.94V1677.4H4261.86V1666.76H4256.98V1677.4H4251.62V1681.48H4256.98V1711.96C4256.98 1717.16 4260.18 1719.48 4264.98 1719.48ZM4278.38 1719H4283.26V1677.4H4278.38V1719ZM4278.38 1666.92H4283.26V1662.2H4278.38V1666.92ZM4312.75 1719.8C4323.47 1719.8 4334.19 1712.04 4334.19 1698.2C4334.19 1684.36 4323.47 1676.6 4312.75 1676.6C4302.03 1676.6 4291.31 1684.36 4291.31 1698.2C4291.31 1712.04 4302.03 1719.8 4312.75 1719.8ZM4296.19 1698.2C4296.19 1687.16 4304.35 1681.08 4312.75 1681.08C4321.15 1681.08 4329.31 1687.16 4329.31 1698.2C4329.31 1709.24 4321.15 1715.32 4312.75 1715.32C4304.35 1715.32 4296.19 1709.24 4296.19 1698.2ZM4342.29 1719H4347.17V1695.08C4347.17 1685.56 4353.17 1681.08 4360.29 1681.08C4367.49 1681.08 4373.17 1685.56 4373.17 1695.08V1719H4378.05V1694.52C4378.05 1682.12 4370.45 1676.6 4361.57 1676.6C4353.89 1676.6 4349.25 1680.6 4347.17 1684.68V1677.4H4342.29V1719ZM4422.21 1719.8C4431.65 1719.8 4439.81 1714.28 4439.81 1704.2C4439.81 1695.24 4433.49 1691.24 4424.53 1687.64L4420.69 1686.12C4413.65 1683.4 4410.93 1679.88 4410.93 1675.32C4410.93 1669.56 4415.65 1666.04 4421.81 1666.04C4428.21 1666.04 4432.21 1669.64 4434.37 1675.08L4438.29 1673.16C4436.21 1667 4430.85 1661.4 4421.65 1661.4C4412.77 1661.4 4405.97 1666.92 4405.97 1675.32C4405.97 1682.12 4410.37 1686.92 4418.93 1690.28L4422.77 1691.8C4429.81 1694.6 4434.69 1697.48 4434.69 1704.2C4434.69 1711.32 4429.01 1715.08 4422.21 1715.08C4414.93 1715.08 4409.33 1710.76 4407.73 1704.2L4403.57 1706.04C4405.41 1714.2 4412.69 1719.8 4422.21 1719.8ZM4467.04 1719.8C4473.52 1719.8 4479.6 1717.16 4483.36 1712.52L4480.8 1709.88C4477.76 1713.48 4472.88 1715.48 4467.6 1715.48C4458.88 1715.48 4451.36 1710.04 4450.56 1699.96H4486.32C4487.68 1684.28 4477.04 1676.6 4466.48 1676.6C4456.08 1676.6 4445.92 1684.2 4445.92 1698.12C4445.92 1712.12 4456 1719.8 4467.04 1719.8ZM4450.56 1696.04C4451.44 1686.12 4458.8 1680.92 4466.48 1680.92C4474.4 1680.92 4481.68 1686.28 4481.92 1696.04H4450.56ZM4505.15 1719.8C4512.03 1719.8 4518.99 1716.2 4518.99 1708.12C4518.99 1701.4 4514.51 1698.6 4507.31 1695.64L4504.51 1694.52C4499.63 1692.52 4497.71 1690.12 4497.71 1687C4497.71 1682.84 4501.15 1680.76 4505.15 1680.76C4509.55 1680.76 4512.11 1683.08 4513.47 1686.6L4517.39 1685.32C4515.95 1680.04 4511.23 1676.6 4504.99 1676.6C4498.11 1676.6 4492.91 1680.84 4492.91 1687C4492.91 1691.56 4495.71 1695.56 4502.59 1698.36L4505.79 1699.64C4511.23 1701.96 4514.11 1703.88 4514.11 1708.12C4514.11 1713.32 4509.63 1715.56 4505.15 1715.56C4500.27 1715.56 4496.43 1712.76 4495.15 1707.56L4490.91 1708.76C4492.19 1715.56 4497.55 1719.8 4505.15 1719.8ZM4538.9 1719.8C4545.78 1719.8 4552.74 1716.2 4552.74 1708.12C4552.74 1701.4 4548.26 1698.6 4541.06 1695.64L4538.26 1694.52C4533.38 1692.52 4531.46 1690.12 4531.46 1687C4531.46 1682.84 4534.9 1680.76 4538.9 1680.76C4543.3 1680.76 4545.86 1683.08 4547.22 1686.6L4551.14 1685.32C4549.7 1680.04 4544.98 1676.6 4538.74 1676.6C4531.86 1676.6 4526.66 1680.84 4526.66 1687C4526.66 1691.56 4529.46 1695.56 4536.34 1698.36L4539.54 1699.64C4544.98 1701.96 4547.86 1703.88 4547.86 1708.12C4547.86 1713.32 4543.38 1715.56 4538.9 1715.56C4534.02 1715.56 4530.18 1712.76 4528.9 1707.56L4524.66 1708.76C4525.94 1715.56 4531.3 1719.8 4538.9 1719.8ZM4560.81 1719H4565.69V1677.4H4560.81V1719ZM4560.81 1666.92H4565.69V1662.2H4560.81V1666.92ZM4595.17 1719.8C4605.89 1719.8 4616.61 1712.04 4616.61 1698.2C4616.61 1684.36 4605.89 1676.6 4595.17 1676.6C4584.45 1676.6 4573.73 1684.36 4573.73 1698.2C4573.73 1712.04 4584.45 1719.8 4595.17 1719.8ZM4578.61 1698.2C4578.61 1687.16 4586.77 1681.08 4595.17 1681.08C4603.57 1681.08 4611.73 1687.16 4611.73 1698.2C4611.73 1709.24 4603.57 1715.32 4595.17 1715.32C4586.77 1715.32 4578.61 1709.24 4578.61 1698.2ZM4624.71 1719H4629.59V1695.08C4629.59 1685.56 4635.59 1681.08 4642.71 1681.08C4649.91 1681.08 4655.59 1685.56 4655.59 1695.08V1719H4660.47V1694.52C4660.47 1682.12 4652.87 1676.6 4643.99 1676.6C4636.31 1676.6 4631.67 1680.6 4629.59 1684.68V1677.4H4624.71V1719ZM4682.41 1719.8C4689.29 1719.8 4696.25 1716.2 4696.25 1708.12C4696.25 1701.4 4691.77 1698.6 4684.57 1695.64L4681.77 1694.52C4676.89 1692.52 4674.97 1690.12 4674.97 1687C4674.97 1682.84 4678.41 1680.76 4682.41 1680.76C4686.81 1680.76 4689.37 1683.08 4690.73 1686.6L4694.65 1685.32C4693.21 1680.04 4688.49 1676.6 4682.25 1676.6C4675.37 1676.6 4670.17 1680.84 4670.17 1687C4670.17 1691.56 4672.97 1695.56 4679.85 1698.36L4683.05 1699.64C4688.49 1701.96 4691.37 1703.88 4691.37 1708.12C4691.37 1713.32 4686.89 1715.56 4682.41 1715.56C4677.53 1715.56 4673.69 1712.76 4672.41 1707.56L4668.17 1708.76C4669.45 1715.56 4674.81 1719.8 4682.41 1719.8ZM3822.12 1814.8C3822.12 1812.4 3822.49 1810.48 3823.24 1809.04C3824.04 1807.55 3825.11 1806.48 3826.44 1805.84C3827.83 1805.2 3829.35 1804.88 3831 1804.88C3832.65 1804.88 3834.15 1805.2 3835.48 1805.84C3836.81 1806.48 3837.88 1807.55 3838.68 1809.04C3839.48 1810.48 3839.88 1812.4 3839.88 1814.8C3839.88 1817.15 3839.48 1819.07 3838.68 1820.56C3837.88 1822 3836.81 1823.07 3835.48 1823.76C3834.15 1824.4 3832.65 1824.72 3831 1824.72C3829.35 1824.72 3827.83 1824.4 3826.44 1823.76C3825.11 1823.07 3824.04 1822 3823.24 1820.56C3822.49 1819.07 3822.12 1817.15 3822.12 1814.8ZM3915.64 1787.2L3892.84 1844H3898.2L3903.96 1829.52H3932.12L3937.88 1844H3943.24L3920.44 1787.2H3915.64ZM3905.8 1824.88L3918.04 1793.84L3930.28 1824.88H3905.8ZM3951.86 1796.96V1802.4H3947.3V1806.48H3951.86V1844H3956.74V1806.48H3968.58V1802.4H3956.74V1797.6C3956.74 1791.68 3959.62 1789.92 3963.3 1789.92C3965.22 1789.92 3967.14 1790.4 3968.58 1791.2V1787.28C3967.14 1786.4 3965.14 1785.68 3962.5 1785.68C3957.86 1785.68 3951.86 1787.84 3951.86 1796.96ZM3978.5 1796.96V1802.4H3973.94V1806.48H3978.5V1844H3983.38V1806.48H3995.22V1802.4H3983.38V1797.6C3983.38 1791.68 3986.26 1789.92 3989.94 1789.92C3991.86 1789.92 3993.78 1790.4 3995.22 1791.2V1787.28C3993.78 1786.4 3991.78 1785.68 3989.14 1785.68C3984.5 1785.68 3978.5 1787.84 3978.5 1796.96ZM4002.92 1844H4007.8V1802.4H4002.92V1844ZM4002.92 1791.92H4007.8V1787.2H4002.92V1791.92ZM4017.84 1844H4022.72V1820.08C4022.72 1810.56 4028.72 1806.08 4035.84 1806.08C4043.04 1806.08 4048.72 1810.56 4048.72 1820.08V1844H4053.6V1819.52C4053.6 1807.12 4046 1801.6 4037.12 1801.6C4029.44 1801.6 4024.8 1805.6 4022.72 1809.68V1802.4H4017.84V1844ZM4063.7 1844H4068.58V1802.4H4063.7V1844ZM4063.7 1791.92H4068.58V1787.2H4063.7V1791.92ZM4089.98 1844.48C4091.58 1844.48 4093.34 1844.24 4094.78 1843.28V1839.28C4093.26 1839.92 4091.98 1840.08 4091.02 1840.08C4088.22 1840.08 4086.86 1838.64 4086.86 1835.92V1806.48H4094.94V1802.4H4086.86V1791.76H4081.98V1802.4H4076.62V1806.48H4081.98V1836.96C4081.98 1842.16 4085.18 1844.48 4089.98 1844.48ZM4111.3 1859.2H4116.1L4122.82 1844L4140.58 1802.4H4135.46L4120.58 1837.76L4105.7 1802.4H4100.58L4118.18 1843.68L4111.3 1859.2ZM4165.26 1844H4180.62C4197.9 1844 4208.78 1832.56 4208.78 1815.6C4208.78 1798.64 4197.9 1787.2 4180.62 1787.2H4165.26V1844ZM4170.22 1839.28V1791.92H4180.46C4195.34 1791.92 4203.66 1801.28 4203.66 1815.6C4203.66 1829.92 4195.34 1839.28 4180.46 1839.28H4170.22ZM4217.29 1844H4222.17V1802.4H4217.29V1844ZM4217.29 1791.92H4222.17V1787.2H4217.29V1791.92ZM4250.85 1844.8C4258.69 1844.8 4265.09 1840.48 4267.49 1835.12H4267.73V1844H4272.61V1802.4H4267.73V1811.28H4267.49C4265.09 1805.92 4258.69 1801.6 4250.85 1801.6C4240.45 1801.6 4230.21 1809.04 4230.21 1823.2C4230.21 1837.36 4240.45 1844.8 4250.85 1844.8ZM4235.09 1823.2C4235.09 1811.68 4243.33 1806.08 4251.49 1806.08C4259.65 1806.08 4267.89 1811.76 4267.89 1823.2C4267.89 1834.64 4259.65 1840.32 4251.49 1840.32C4243.33 1840.32 4235.09 1834.72 4235.09 1823.2ZM4302.44 1860.64C4312.2 1860.64 4323.08 1856.16 4323.08 1842.08V1802.4H4318.2V1811.28H4317.88C4315.48 1805.92 4309.08 1801.6 4301.24 1801.6C4291 1801.6 4280.68 1809.04 4280.68 1823.2C4280.68 1837.36 4291 1844.8 4301.24 1844.8C4309.08 1844.8 4315.48 1840.48 4317.88 1835.12H4318.2V1841.84C4318.2 1852.72 4310.2 1856.4 4301.88 1856.4C4296.12 1856.4 4292.12 1854.64 4290.2 1853.36V1857.68C4292.04 1858.96 4296.52 1860.64 4302.44 1860.64ZM4285.56 1823.2C4285.56 1811.68 4293.8 1806.08 4301.88 1806.08C4310.04 1806.08 4318.36 1811.76 4318.36 1823.2C4318.36 1834.64 4310.04 1840.32 4301.88 1840.32C4293.8 1840.32 4285.56 1834.72 4285.56 1823.2ZM4333.15 1844H4338.03V1821.92C4338.03 1812.16 4344.03 1806.16 4351.63 1806.16C4352.51 1806.16 4353.07 1806.24 4353.71 1806.4V1801.84C4353.15 1801.68 4352.51 1801.6 4351.55 1801.6C4343.87 1801.6 4339.71 1806.48 4338.03 1812.08V1802.4H4333.15V1844ZM4379.29 1844.8C4387.13 1844.8 4393.53 1840.48 4395.93 1835.12H4396.17V1844H4401.05V1802.4H4396.17V1811.28H4395.93C4393.53 1805.92 4387.13 1801.6 4379.29 1801.6C4368.89 1801.6 4358.65 1809.04 4358.65 1823.2C4358.65 1837.36 4368.89 1844.8 4379.29 1844.8ZM4363.53 1823.2C4363.53 1811.68 4371.77 1806.08 4379.93 1806.08C4388.09 1806.08 4396.33 1811.76 4396.33 1823.2C4396.33 1834.64 4388.09 1840.32 4379.93 1840.32C4371.77 1840.32 4363.53 1834.72 4363.53 1823.2ZM4439.12 1844H4444V1819.84C4444 1811.52 4448.32 1806.08 4455.84 1806.08C4463.44 1806.08 4467.12 1811.52 4467.12 1819.84V1844H4472V1819.36C4472 1807.04 4465.6 1801.6 4456.96 1801.6C4448.88 1801.6 4444.4 1806.32 4442.64 1810.72C4440.32 1804.48 4435.2 1801.6 4429.04 1801.6C4422 1801.6 4417.92 1805.28 4416 1809.2V1802.4H4411.12V1844H4416V1819.84C4416 1811.52 4420.24 1806.08 4427.84 1806.08C4435.44 1806.08 4439.12 1811.52 4439.12 1819.84V1844ZM3822.12 1939.8C3822.12 1937.4 3822.49 1935.48 3823.24 1934.04C3824.04 1932.55 3825.11 1931.48 3826.44 1930.84C3827.83 1930.2 3829.35 1929.88 3831 1929.88C3832.65 1929.88 3834.15 1930.2 3835.48 1930.84C3836.81 1931.48 3837.88 1932.55 3838.68 1934.04C3839.48 1935.48 3839.88 1937.4 3839.88 1939.8C3839.88 1942.15 3839.48 1944.07 3838.68 1945.56C3837.88 1947 3836.81 1948.07 3835.48 1948.76C3834.15 1949.4 3832.65 1949.72 3831 1949.72C3829.35 1949.72 3827.83 1949.4 3826.44 1948.76C3825.11 1948.07 3824.04 1947 3823.24 1945.56C3822.49 1944.07 3822.12 1942.15 3822.12 1939.8ZM3896.04 1969H3901V1948.52H3913.8C3925.96 1948.52 3933 1940.84 3933 1930.28C3933 1919.96 3925.96 1912.2 3913.8 1912.2H3896.04V1969ZM3901 1943.8V1916.92H3913.4C3922.36 1916.92 3927.88 1921.64 3927.88 1930.28C3927.88 1938.92 3922.36 1943.8 3913.4 1943.8H3901ZM3959.07 1969.8C3965.55 1969.8 3971.63 1967.16 3975.39 1962.52L3972.83 1959.88C3969.79 1963.48 3964.91 1965.48 3959.63 1965.48C3950.91 1965.48 3943.39 1960.04 3942.59 1949.96H3978.35C3979.71 1934.28 3969.07 1926.6 3958.51 1926.6C3948.11 1926.6 3937.95 1934.2 3937.95 1948.12C3937.95 1962.12 3948.03 1969.8 3959.07 1969.8ZM3942.59 1946.04C3943.47 1936.12 3950.83 1930.92 3958.51 1930.92C3966.43 1930.92 3973.71 1936.28 3973.95 1946.04H3942.59ZM3986.51 1969H3991.39V1946.92C3991.39 1937.16 3997.39 1931.16 4004.99 1931.16C4005.87 1931.16 4006.43 1931.24 4007.07 1931.4V1926.84C4006.51 1926.68 4005.87 1926.6 4004.91 1926.6C3997.23 1926.6 3993.07 1931.48 3991.39 1937.08V1927.4H3986.51V1969ZM4026.24 1969.8C4033.12 1969.8 4040.08 1966.2 4040.08 1958.12C4040.08 1951.4 4035.6 1948.6 4028.4 1945.64L4025.6 1944.52C4020.72 1942.52 4018.8 1940.12 4018.8 1937C4018.8 1932.84 4022.24 1930.76 4026.24 1930.76C4030.64 1930.76 4033.2 1933.08 4034.56 1936.6L4038.48 1935.32C4037.04 1930.04 4032.32 1926.6 4026.08 1926.6C4019.2 1926.6 4014 1930.84 4014 1937C4014 1941.56 4016.8 1945.56 4023.68 1948.36L4026.88 1949.64C4032.32 1951.96 4035.2 1953.88 4035.2 1958.12C4035.2 1963.32 4030.72 1965.56 4026.24 1965.56C4021.36 1965.56 4017.52 1962.76 4016.24 1957.56L4012 1958.76C4013.28 1965.56 4018.64 1969.8 4026.24 1969.8ZM4067.59 1969.8C4078.31 1969.8 4089.03 1962.04 4089.03 1948.2C4089.03 1934.36 4078.31 1926.6 4067.59 1926.6C4056.87 1926.6 4046.15 1934.36 4046.15 1948.2C4046.15 1962.04 4056.87 1969.8 4067.59 1969.8ZM4051.03 1948.2C4051.03 1937.16 4059.19 1931.08 4067.59 1931.08C4075.99 1931.08 4084.15 1937.16 4084.15 1948.2C4084.15 1959.24 4075.99 1965.32 4067.59 1965.32C4059.19 1965.32 4051.03 1959.24 4051.03 1948.2ZM4097.13 1969H4102.01V1945.08C4102.01 1935.56 4108.01 1931.08 4115.13 1931.08C4122.33 1931.08 4128.01 1935.56 4128.01 1945.08V1969H4132.89V1944.52C4132.89 1932.12 4125.29 1926.6 4116.41 1926.6C4108.73 1926.6 4104.09 1930.6 4102.01 1934.68V1927.4H4097.13V1969ZM4161.63 1969.8C4169.47 1969.8 4175.87 1965.48 4178.27 1960.12H4178.51V1969H4183.39V1927.4H4178.51V1936.28H4178.27C4175.87 1930.92 4169.47 1926.6 4161.63 1926.6C4151.23 1926.6 4140.99 1934.04 4140.99 1948.2C4140.99 1962.36 4151.23 1969.8 4161.63 1969.8ZM4145.87 1948.2C4145.87 1936.68 4154.11 1931.08 4162.27 1931.08C4170.43 1931.08 4178.67 1936.76 4178.67 1948.2C4178.67 1959.64 4170.43 1965.32 4162.27 1965.32C4154.11 1965.32 4145.87 1959.72 4145.87 1948.2ZM4205.3 1969.8C4212.18 1969.8 4219.14 1966.2 4219.14 1958.12C4219.14 1951.4 4214.66 1948.6 4207.46 1945.64L4204.66 1944.52C4199.78 1942.52 4197.86 1940.12 4197.86 1937C4197.86 1932.84 4201.3 1930.76 4205.3 1930.76C4209.7 1930.76 4212.26 1933.08 4213.62 1936.6L4217.54 1935.32C4216.1 1930.04 4211.38 1926.6 4205.14 1926.6C4198.26 1926.6 4193.06 1930.84 4193.06 1937C4193.06 1941.56 4195.86 1945.56 4202.74 1948.36L4205.94 1949.64C4211.38 1951.96 4214.26 1953.88 4214.26 1958.12C4214.26 1963.32 4209.78 1965.56 4205.3 1965.56C4200.42 1965.56 4196.58 1962.76 4195.3 1957.56L4191.06 1958.76C4192.34 1965.56 4197.7 1969.8 4205.3 1969.8ZM3822.12 2064.8C3822.12 2062.4 3822.49 2060.48 3823.24 2059.04C3824.04 2057.55 3825.11 2056.48 3826.44 2055.84C3827.83 2055.2 3829.35 2054.88 3831 2054.88C3832.65 2054.88 3834.15 2055.2 3835.48 2055.84C3836.81 2056.48 3837.88 2057.55 3838.68 2059.04C3839.48 2060.48 3839.88 2062.4 3839.88 2064.8C3839.88 2067.15 3839.48 2069.07 3838.68 2070.56C3837.88 2072 3836.81 2073.07 3835.48 2073.76C3834.15 2074.4 3832.65 2074.72 3831 2074.72C3829.35 2074.72 3827.83 2074.4 3826.44 2073.76C3825.11 2073.07 3824.04 2072 3823.24 2070.56C3822.49 2069.07 3822.12 2067.15 3822.12 2064.8ZM3912.68 2094.8C3922.12 2094.8 3930.28 2089.28 3930.28 2079.2C3930.28 2070.24 3923.96 2066.24 3915 2062.64L3911.16 2061.12C3904.12 2058.4 3901.4 2054.88 3901.4 2050.32C3901.4 2044.56 3906.12 2041.04 3912.28 2041.04C3918.68 2041.04 3922.68 2044.64 3924.84 2050.08L3928.76 2048.16C3926.68 2042 3921.32 2036.4 3912.12 2036.4C3903.24 2036.4 3896.44 2041.92 3896.44 2050.32C3896.44 2057.12 3900.84 2061.92 3909.4 2065.28L3913.24 2066.8C3920.28 2069.6 3925.16 2072.48 3925.16 2079.2C3925.16 2086.32 3919.48 2090.08 3912.68 2090.08C3905.4 2090.08 3899.8 2085.76 3898.2 2079.2L3894.04 2081.04C3895.88 2089.2 3903.16 2094.8 3912.68 2094.8ZM3957.74 2094.8C3964.94 2094.8 3971.9 2091.28 3975.5 2084.56L3971.66 2082.4C3968.86 2087.52 3963.5 2090.32 3957.9 2090.32C3949.66 2090.32 3941.26 2084.24 3941.26 2073.28C3941.26 2062.16 3949.66 2056.08 3957.9 2056.08C3963.5 2056.08 3968.86 2058.88 3971.66 2064L3975.5 2061.84C3971.9 2055.12 3964.94 2051.6 3957.74 2051.6C3947.1 2051.6 3936.38 2059.36 3936.38 2073.28C3936.38 2087.04 3947.1 2094.8 3957.74 2094.8ZM4001.8 2094.8C4008.28 2094.8 4014.36 2092.16 4018.12 2087.52L4015.56 2084.88C4012.52 2088.48 4007.64 2090.48 4002.36 2090.48C3993.64 2090.48 3986.12 2085.04 3985.32 2074.96H4021.08C4022.44 2059.28 4011.8 2051.6 4001.24 2051.6C3990.84 2051.6 3980.68 2059.2 3980.68 2073.12C3980.68 2087.12 3990.76 2094.8 4001.8 2094.8ZM3985.32 2071.04C3986.2 2061.12 3993.56 2055.92 4001.24 2055.92C4009.16 2055.92 4016.44 2061.28 4016.68 2071.04H3985.32ZM4029.24 2094H4034.12V2070.08C4034.12 2060.56 4040.12 2056.08 4047.24 2056.08C4054.44 2056.08 4060.12 2060.56 4060.12 2070.08V2094H4065V2069.52C4065 2057.12 4057.4 2051.6 4048.52 2051.6C4040.84 2051.6 4036.2 2055.6 4034.12 2059.68V2052.4H4029.24V2094ZM4093.74 2094.8C4101.58 2094.8 4107.98 2090.48 4110.38 2085.12H4110.62V2094H4115.5V2052.4H4110.62V2061.28H4110.38C4107.98 2055.92 4101.58 2051.6 4093.74 2051.6C4083.34 2051.6 4073.1 2059.04 4073.1 2073.2C4073.1 2087.36 4083.34 2094.8 4093.74 2094.8ZM4077.98 2073.2C4077.98 2061.68 4086.22 2056.08 4094.38 2056.08C4102.54 2056.08 4110.78 2061.76 4110.78 2073.2C4110.78 2084.64 4102.54 2090.32 4094.38 2090.32C4086.22 2090.32 4077.98 2084.72 4077.98 2073.2ZM4125.57 2094H4130.45V2071.92C4130.45 2062.16 4136.45 2056.16 4144.05 2056.16C4144.93 2056.16 4145.49 2056.24 4146.13 2056.4V2051.84C4145.57 2051.68 4144.93 2051.6 4143.97 2051.6C4136.29 2051.6 4132.13 2056.48 4130.45 2062.08V2052.4H4125.57V2094ZM4154.24 2094H4159.12V2052.4H4154.24V2094ZM4154.24 2041.92H4159.12V2037.2H4154.24V2041.92ZM4188.61 2094.8C4199.33 2094.8 4210.05 2087.04 4210.05 2073.2C4210.05 2059.36 4199.33 2051.6 4188.61 2051.6C4177.89 2051.6 4167.17 2059.36 4167.17 2073.2C4167.17 2087.04 4177.89 2094.8 4188.61 2094.8ZM4172.05 2073.2C4172.05 2062.16 4180.21 2056.08 4188.61 2056.08C4197.01 2056.08 4205.17 2062.16 4205.17 2073.2C4205.17 2084.24 4197.01 2090.32 4188.61 2090.32C4180.21 2090.32 4172.05 2084.24 4172.05 2073.2ZM4228.82 2094.8C4235.7 2094.8 4242.66 2091.2 4242.66 2083.12C4242.66 2076.4 4238.18 2073.6 4230.98 2070.64L4228.18 2069.52C4223.3 2067.52 4221.38 2065.12 4221.38 2062C4221.38 2057.84 4224.82 2055.76 4228.82 2055.76C4233.22 2055.76 4235.78 2058.08 4237.14 2061.6L4241.06 2060.32C4239.62 2055.04 4234.9 2051.6 4228.66 2051.6C4221.78 2051.6 4216.58 2055.84 4216.58 2062C4216.58 2066.56 4219.38 2070.56 4226.26 2073.36L4229.46 2074.64C4234.9 2076.96 4237.78 2078.88 4237.78 2083.12C4237.78 2088.32 4233.3 2090.56 4228.82 2090.56C4223.94 2090.56 4220.1 2087.76 4218.82 2082.56L4214.58 2083.76C4215.86 2090.56 4221.22 2094.8 4228.82 2094.8ZM3822.12 2189.8C3822.12 2187.4 3822.49 2185.48 3823.24 2184.04C3824.04 2182.55 3825.11 2181.48 3826.44 2180.84C3827.83 2180.2 3829.35 2179.88 3831 2179.88C3832.65 2179.88 3834.15 2180.2 3835.48 2180.84C3836.81 2181.48 3837.88 2182.55 3838.68 2184.04C3839.48 2185.48 3839.88 2187.4 3839.88 2189.8C3839.88 2192.15 3839.48 2194.07 3838.68 2195.56C3837.88 2197 3836.81 2198.07 3835.48 2198.76C3834.15 2199.4 3832.65 2199.72 3831 2199.72C3829.35 2199.72 3827.83 2199.4 3826.44 2198.76C3825.11 2198.07 3824.04 2197 3823.24 2195.56C3822.49 2194.07 3822.12 2192.15 3822.12 2189.8ZM3915.88 2219.8C3927.16 2219.8 3935.72 2212.36 3935.72 2199.08V2162.2H3930.76V2199C3930.76 2209.56 3924.28 2215 3915.88 2215C3907.48 2215 3901 2209.56 3901 2199V2162.2H3896.04V2199.08C3896.04 2212.36 3904.68 2219.8 3915.88 2219.8ZM3957.65 2219.8C3964.53 2219.8 3971.49 2216.2 3971.49 2208.12C3971.49 2201.4 3967.01 2198.6 3959.81 2195.64L3957.01 2194.52C3952.13 2192.52 3950.21 2190.12 3950.21 2187C3950.21 2182.84 3953.65 2180.76 3957.65 2180.76C3962.05 2180.76 3964.61 2183.08 3965.97 2186.6L3969.89 2185.32C3968.45 2180.04 3963.73 2176.6 3957.49 2176.6C3950.61 2176.6 3945.41 2180.84 3945.41 2187C3945.41 2191.56 3948.21 2195.56 3955.09 2198.36L3958.29 2199.64C3963.73 2201.96 3966.61 2203.88 3966.61 2208.12C3966.61 2213.32 3962.13 2215.56 3957.65 2215.56C3952.77 2215.56 3948.93 2212.76 3947.65 2207.56L3943.41 2208.76C3944.69 2215.56 3950.05 2219.8 3957.65 2219.8ZM3998.68 2219.8C4005.16 2219.8 4011.24 2217.16 4015 2212.52L4012.44 2209.88C4009.4 2213.48 4004.52 2215.48 3999.24 2215.48C3990.52 2215.48 3983 2210.04 3982.2 2199.96H4017.96C4019.32 2184.28 4008.68 2176.6 3998.12 2176.6C3987.72 2176.6 3977.56 2184.2 3977.56 2198.12C3977.56 2212.12 3987.64 2219.8 3998.68 2219.8ZM3982.2 2196.04C3983.08 2186.12 3990.44 2180.92 3998.12 2180.92C4006.04 2180.92 4013.32 2186.28 4013.56 2196.04H3982.2ZM4026.12 2219H4031V2196.92C4031 2187.16 4037 2181.16 4044.6 2181.16C4045.48 2181.16 4046.04 2181.24 4046.68 2181.4V2176.84C4046.12 2176.68 4045.48 2176.6 4044.52 2176.6C4036.84 2176.6 4032.68 2181.48 4031 2187.08V2177.4H4026.12V2219ZM4081.15 2219.8C4089.63 2219.8 4097.23 2214.68 4097.23 2202.6V2162.2H4092.27V2202.12C4092.27 2211 4087.47 2215 4080.99 2215C4076.19 2215 4072.99 2212.76 4070.75 2209.4L4067.47 2212.6C4070.03 2217.08 4074.91 2219.8 4081.15 2219.8ZM4126.73 2219.8C4137.45 2219.8 4148.17 2212.04 4148.17 2198.2C4148.17 2184.36 4137.45 2176.6 4126.73 2176.6C4116.01 2176.6 4105.29 2184.36 4105.29 2198.2C4105.29 2212.04 4116.01 2219.8 4126.73 2219.8ZM4110.17 2198.2C4110.17 2187.16 4118.33 2181.08 4126.73 2181.08C4135.13 2181.08 4143.29 2187.16 4143.29 2198.2C4143.29 2209.24 4135.13 2215.32 4126.73 2215.32C4118.33 2215.32 4110.17 2209.24 4110.17 2198.2ZM4192.03 2177.4H4187.15V2201.32C4187.15 2210.84 4181.15 2215.32 4174.03 2215.32C4166.83 2215.32 4161.15 2210.84 4161.15 2201.32V2177.4H4156.27V2201.88C4156.27 2214.28 4163.87 2219.8 4172.75 2219.8C4180.43 2219.8 4185.07 2215.8 4187.15 2211.72V2219H4192.03V2177.4ZM4202.13 2219H4207.01V2196.92C4207.01 2187.16 4213.01 2181.16 4220.61 2181.16C4221.49 2181.16 4222.05 2181.24 4222.69 2181.4V2176.84C4222.13 2176.68 4221.49 2176.6 4220.53 2176.6C4212.85 2176.6 4208.69 2181.48 4207.01 2187.08V2177.4H4202.13V2219ZM4230.81 2219H4235.69V2195.08C4235.69 2185.56 4241.69 2181.08 4248.81 2181.08C4256.01 2181.08 4261.69 2185.56 4261.69 2195.08V2219H4266.57V2194.52C4266.57 2182.12 4258.97 2176.6 4250.09 2176.6C4242.41 2176.6 4237.77 2180.6 4235.69 2184.68V2177.4H4230.81V2219ZM4295.79 2219.8C4302.27 2219.8 4308.35 2217.16 4312.11 2212.52L4309.55 2209.88C4306.51 2213.48 4301.63 2215.48 4296.35 2215.48C4287.63 2215.48 4280.11 2210.04 4279.31 2199.96H4315.07C4316.43 2184.28 4305.79 2176.6 4295.23 2176.6C4284.83 2176.6 4274.67 2184.2 4274.67 2198.12C4274.67 2212.12 4284.75 2219.8 4295.79 2219.8ZM4279.31 2196.04C4280.19 2186.12 4287.55 2180.92 4295.23 2180.92C4303.15 2180.92 4310.43 2186.28 4310.67 2196.04H4279.31ZM4328.73 2234.2H4333.53L4340.25 2219L4358.01 2177.4H4352.89L4338.01 2212.76L4323.13 2177.4H4318.01L4335.61 2218.68L4328.73 2234.2ZM4382.68 2219H4387.64V2172.36H4388.04L4410.04 2219H4413.88L4435.88 2172.36H4436.28V2219H4441.24V2162.2H4435.64L4411.96 2212.52L4388.28 2162.2H4382.68V2219ZM4469.99 2219.8C4477.83 2219.8 4484.23 2215.48 4486.63 2210.12H4486.87V2219H4491.75V2177.4H4486.87V2186.28H4486.63C4484.23 2180.92 4477.83 2176.6 4469.99 2176.6C4459.59 2176.6 4449.35 2184.04 4449.35 2198.2C4449.35 2212.36 4459.59 2219.8 4469.99 2219.8ZM4454.23 2198.2C4454.23 2186.68 4462.47 2181.08 4470.63 2181.08C4478.79 2181.08 4487.03 2186.76 4487.03 2198.2C4487.03 2209.64 4478.79 2215.32 4470.63 2215.32C4462.47 2215.32 4454.23 2209.72 4454.23 2198.2ZM4501.82 2234.2H4506.7V2210.12H4506.94C4509.34 2215.48 4515.74 2219.8 4523.58 2219.8C4533.98 2219.8 4544.22 2212.36 4544.22 2198.2C4544.22 2184.04 4533.98 2176.6 4523.58 2176.6C4515.74 2176.6 4509.34 2180.92 4506.94 2186.28H4506.7V2177.4H4501.82V2234.2ZM4506.54 2198.2C4506.54 2186.76 4514.78 2181.08 4522.94 2181.08C4531.1 2181.08 4539.34 2186.68 4539.34 2198.2C4539.34 2209.72 4531.1 2215.32 4522.94 2215.32C4514.78 2215.32 4506.54 2209.64 4506.54 2198.2ZM4562.96 2219.8C4569.84 2219.8 4576.8 2216.2 4576.8 2208.12C4576.8 2201.4 4572.32 2198.6 4565.12 2195.64L4562.32 2194.52C4557.44 2192.52 4555.52 2190.12 4555.52 2187C4555.52 2182.84 4558.96 2180.76 4562.96 2180.76C4567.36 2180.76 4569.92 2183.08 4571.28 2186.6L4575.2 2185.32C4573.76 2180.04 4569.04 2176.6 4562.8 2176.6C4555.92 2176.6 4550.72 2180.84 4550.72 2187C4550.72 2191.56 4553.52 2195.56 4560.4 2198.36L4563.6 2199.64C4569.04 2201.96 4571.92 2203.88 4571.92 2208.12C4571.92 2213.32 4567.44 2215.56 4562.96 2215.56C4558.08 2215.56 4554.24 2212.76 4552.96 2207.56L4548.72 2208.76C4550 2215.56 4555.36 2219.8 4562.96 2219.8Z" fill="black"/>
<mask id="mask0_217_457" style="mask-type:alpha" maskUnits="userSpaceOnUse" x="3358" y="1508" width="400" height="400">
<rect x="3358" y="1508" width="400" height="400" fill="#D9D9D9"/>
</mask>
<g mask="url(#mask0_217_457)">
<path d="M3504.25 1858C3477.31 1858 3454.53 1848.69 3435.92 1830.08C3417.31 1811.47 3408 1788.69 3408 1761.75V1654.25C3408 1627.31 3417.31 1604.53 3435.92 1585.92C3454.53 1567.31 3477.31 1558 3504.25 1558H3611.75C3638.69 1558 3661.47 1567.31 3680.08 1585.92C3698.69 1604.53 3708 1627.31 3708 1654.25V1761.75C3708 1788.69 3698.69 1811.47 3680.08 1830.08C3661.47 1848.69 3638.69 1858 3611.75 1858H3504.25ZM3540.92 1772.58L3640.92 1672.58L3623 1654.67L3540.92 1736.75L3500.5 1696.33L3482.58 1714.25L3540.92 1772.58Z" fill="#131B25"/>
</g>
<mask id="mask1_217_457" style="mask-type:alpha" maskUnits="userSpaceOnUse" x="2286" y="771" width="400" height="402">
<rect x="2286" y="771" width="400" height="401.31" fill="#D9D9D9"/>
</mask>
<g mask="url(#mask1_217_457)">
<path d="M2486 1121.73L2468.92 1106.26C2439.47 1079.23 2415.17 1055.89 2396 1036.24C2376.83 1016.59 2361.56 999.037 2350.17 983.57C2338.78 968.103 2330.79 954.099 2326.21 941.558C2321.62 929.017 2319.33 916.337 2319.33 903.517C2319.33 878.435 2327.74 857.464 2344.54 840.603C2361.35 823.743 2382.11 815.312 2406.83 815.312C2422.67 815.312 2437.32 819.075 2450.79 826.599C2464.26 834.124 2476 844.993 2486 859.206C2497.67 844.157 2510.03 833.079 2523.08 825.972C2536.14 818.866 2550.17 815.312 2565.17 815.312C2589.89 815.312 2610.65 823.743 2627.46 840.603C2644.26 857.464 2652.67 878.435 2652.67 903.517C2652.67 916.337 2650.37 929.017 2645.79 941.558C2641.21 954.099 2633.22 968.103 2621.83 983.57C2610.44 999.037 2595.17 1016.59 2576 1036.24C2556.83 1055.89 2532.53 1079.23 2503.08 1106.26L2486 1121.73Z" fill="#131B25"/>
</g>
<mask id="mask2_217_457" style="mask-type:alpha" maskUnits="userSpaceOnUse" x="3224" y="2739" width="400" height="400">
<rect x="3224" y="2739" width="400" height="400" fill="#D9D9D9"/>
</mask>
<g mask="url(#mask2_217_457)">
<path d="M3424 3105.65C3414.56 3105.65 3406.57 3102.39 3400.04 3095.86C3393.51 3089.34 3390.25 3081.35 3390.25 3071.9H3457.75C3457.75 3081.35 3454.49 3089.34 3447.96 3095.86C3441.43 3102.39 3433.44 3105.65 3424 3105.65ZM3356.5 3046.07V3021.07H3491.5V3046.07H3356.5ZM3358.58 2995.65C3340.25 2983.71 3325.74 2968.78 3315.04 2950.86C3304.35 2932.95 3299 2912.74 3299 2890.24C3299 2856.35 3311.36 2827.04 3336.08 2802.32C3360.81 2777.6 3390.11 2765.24 3424 2765.24C3457.89 2765.24 3487.19 2777.6 3511.92 2802.32C3536.64 2827.04 3549 2856.35 3549 2890.24C3549 2912.74 3543.72 2932.95 3533.17 2950.86C3522.61 2968.78 3508.03 2983.71 3489.42 2995.65H3358.58Z" fill="#131B25"/>
</g>
<mask id="mask3_217_457" style="mask-type:alpha" maskUnits="userSpaceOnUse" x="1130" y="1455" width="400" height="400">
<rect x="1130" y="1455" width="400" height="400" fill="#D9D9D9"/>
</mask>
<g mask="url(#mask3_217_457)">
<path d="M1227.08 1821.67L1254.17 1704.58L1163.33 1625.83L1283.33 1615.42L1330 1505L1376.67 1615.42L1496.67 1625.83L1405.83 1704.58L1432.92 1821.67L1330 1759.58L1227.08 1821.67Z" fill="#131B25"/>
</g>
<mask id="mask4_217_457" style="mask-type:alpha" maskUnits="userSpaceOnUse" x="1357" y="2722" width="400" height="400">
<rect x="1357" y="2722" width="400" height="400" fill="#D9D9D9"/>
</mask>
<g mask="url(#mask4_217_457)">
<path d="M1423.67 2972C1409.78 2972 1397.97 2967.14 1388.25 2957.42C1378.53 2947.69 1373.67 2935.89 1373.67 2922C1373.67 2908.11 1378.53 2896.3 1388.25 2886.58C1397.97 2876.86 1409.78 2872 1423.67 2872V2838.67C1423.67 2829.5 1426.93 2821.65 1433.47 2815.13C1439.99 2808.6 1447.83 2805.33 1457 2805.33H1507C1507 2791.44 1511.86 2779.64 1521.58 2769.92C1531.31 2760.19 1543.11 2755.33 1557 2755.33C1570.89 2755.33 1582.69 2760.19 1592.42 2769.92C1602.14 2779.64 1607 2791.44 1607 2805.33H1657C1666.17 2805.33 1674.02 2808.6 1680.55 2815.13C1687.07 2821.65 1690.33 2829.5 1690.33 2838.67V2872C1704.22 2872 1716.03 2876.86 1725.75 2886.58C1735.47 2896.3 1740.33 2908.11 1740.33 2922C1740.33 2935.89 1735.47 2947.69 1725.75 2957.42C1716.03 2967.14 1704.22 2972 1690.33 2972V3038.67C1690.33 3047.83 1687.07 3055.68 1680.55 3062.22C1674.02 3068.74 1666.17 3072 1657 3072H1457C1447.83 3072 1439.99 3068.74 1433.47 3062.22C1426.93 3055.68 1423.67 3047.83 1423.67 3038.67V2972ZM1507 2938.67C1513.94 2938.67 1519.84 2936.23 1524.7 2931.37C1529.57 2926.51 1532 2920.61 1532 2913.67C1532 2906.72 1529.57 2900.82 1524.7 2895.97C1519.84 2891.1 1513.94 2888.67 1507 2888.67C1500.06 2888.67 1494.16 2891.1 1489.3 2895.97C1484.43 2900.82 1482 2906.72 1482 2913.67C1482 2920.61 1484.43 2926.51 1489.3 2931.37C1494.16 2936.23 1500.06 2938.67 1507 2938.67ZM1607 2938.67C1613.94 2938.67 1619.84 2936.23 1624.7 2931.37C1629.57 2926.51 1632 2920.61 1632 2913.67C1632 2906.72 1629.57 2900.82 1624.7 2895.97C1619.84 2891.1 1613.94 2888.67 1607 2888.67C1600.06 2888.67 1594.16 2891.1 1589.3 2895.97C1584.43 2900.82 1582 2906.72 1582 2913.67C1582 2920.61 1584.43 2926.51 1589.3 2931.37C1594.16 2936.23 1600.06 2938.67 1607 2938.67ZM1490.33 3005.33H1623.67V2972H1490.33V3005.33Z" fill="#1C1B1F"/>
</g>
</svg>
