<svg width="48" height="49" viewBox="0 0 48 49" fill="none" xmlns="http://www.w3.org/2000/svg">
<mask id="mask0_29_650" style="mask-type:alpha" maskUnits="userSpaceOnUse" x="0" y="0" width="48" height="49">
<rect y="0.0195312" width="48" height="48.9796" fill="#D9D9D9"/>
</mask>
<g mask="url(#mask0_29_650)">
<path d="M24 2.06055L42.55 13.3871C43.1167 13.6932 43.5 14.1099 43.7 14.6371C43.9 15.1643 44 15.683 44 16.1932V39.8156C44 40.632 43.7 41.3463 43.1 41.9585C42.5 42.5707 41.8 42.8769 41 42.8769H7C6.2 42.8769 5.5 42.5707 4.9 41.9585C4.3 41.3463 4 40.632 4 39.8156V16.1932C4 15.683 4.10833 15.1643 4.325 14.6371C4.54167 14.1099 4.91667 13.6932 5.45 13.3871L24 2.06055ZM24 25.8361L40.8 15.785L24 5.47891L7.2 15.785L24 25.8361Z" fill="white"/>
</g>
</svg>
