<svg width="268" height="345" viewBox="0 0 268 345" fill="none" xmlns="http://www.w3.org/2000/svg">
<circle cx="125" cy="219.01" r="125" fill="#91C2D2"/>
<circle cx="143" cy="219.01" r="125" fill="#CEDEE5"/>
<circle cx="136" cy="266.01" r="25" fill="#001A45"/>
<circle cx="53" cy="183.01" r="15" fill="#001A45"/>
<g clip-path="url(#clip0_63_517)">
<path d="M92.5002 99.3816C89.074 100.935 85.0507 99.4461 83.5137 96.0562C81.9768 92.6663 83.5083 88.659 86.9345 87.1056C90.3607 85.5522 94.3841 87.041 95.921 90.431C97.458 93.8209 95.9264 97.8282 92.5002 99.3816Z" fill="#C09ECC"/>
<path d="M64.657 110.719C61.2308 112.273 57.2074 110.784 55.6705 107.394C54.1335 104.004 55.6651 99.9968 59.0913 98.4435C62.5174 96.8901 66.5408 98.3789 68.0778 101.769C69.6147 105.159 68.0832 109.166 64.657 110.719Z" fill="#C09ECC"/>
<path d="M51.9086 18.6598C52.139 15.189 55.0229 12.7246 58.3499 13.1554C61.677 13.5863 64.1872 16.7492 63.9567 20.22L63.862 21.6468C63.6315 25.1176 60.7476 27.5819 57.4206 27.1511C54.0936 26.7203 51.5833 23.5574 51.8138 20.0866L51.9086 18.6598Z" fill="#745390"/>
<path d="M33.7743 26.8545C31.0118 24.7406 27.2578 25.2857 25.3894 28.0721C23.521 30.8584 24.2458 34.8308 27.0082 36.9447L28.1438 37.8136C30.9063 39.9275 34.6603 39.3823 36.5287 36.596C38.3971 33.8097 37.6723 29.8373 34.9099 27.7234L33.7743 26.8545Z" fill="#745390"/>
<path d="M32.2769 31.9912L57.7965 20.4211C64.8046 17.2437 73.2546 20.7748 76.67 28.308L88.0762 53.4662C91.4916 60.9994 88.5792 69.682 81.571 72.8593L56.0515 84.4294C49.0433 87.6068 40.5934 84.0757 37.178 76.5425L25.7718 51.3842C22.3564 43.8511 25.2688 35.1685 32.2769 31.9912Z" fill="#745390"/>
<path d="M39.1251 53.7329L69.4385 39.9894C70.9958 39.2833 72.8736 40.068 73.6325 41.7421L80.0915 55.9883C80.8505 57.6623 80.2033 59.5918 78.6459 60.2979L48.3326 74.0413C46.7752 74.7474 44.8975 73.9627 44.1385 72.2887L37.6795 58.0425C36.9206 56.3684 37.5678 54.439 39.1251 53.7329Z" fill="#C09ECC"/>
<path d="M57.0811 44.8303L61.1699 42.9766L62.8877 46.7655L58.799 48.6192L57.0811 44.8303Z" fill="#745390"/>
<path d="M44.6783 50.0823L48.7671 48.2285L50.4849 52.0174L46.3961 53.8712L44.6783 50.0823Z" fill="#745390"/>
<path d="M62.5871 57.9473C60.6404 58.8299 58.2932 57.8491 57.3445 55.7565C56.3957 53.664 57.2048 51.2522 59.1515 50.3696C61.0982 49.487 63.4454 50.4678 64.3941 52.5604C65.3428 54.6529 64.5338 57.0648 62.5871 57.9473Z" fill="#604899"/>
<path d="M47.3078 64.8067C45.3611 65.6893 43.0139 64.7085 42.0652 62.6159C41.1165 60.5234 41.9255 58.1115 43.8722 57.2289C45.8189 56.3463 48.1661 57.3272 49.1148 59.4198C50.0635 61.5123 49.2545 63.9241 47.3078 64.8067Z" fill="#604899"/>
<path d="M56.8178 33.7732L63.1624 30.8967C64.1358 30.4554 65.3093 30.9458 65.7837 31.9921C66.2581 33.0384 65.8536 34.2443 64.8802 34.6856L58.5356 37.5621C57.5622 38.0034 56.3886 37.513 55.9143 36.4667C55.4399 35.4205 55.8444 34.2145 56.8178 33.7732Z" fill="#F014C0"/>
<path d="M36.0033 42.5857L42.3479 39.7092C43.3213 39.2679 44.4949 39.7583 44.9693 40.8046C45.4436 41.8509 45.0391 43.0568 44.0658 43.4981L37.7211 46.3746C36.7478 46.8159 35.5742 46.3255 35.0998 45.2792C34.6254 44.233 35.03 43.027 36.0033 42.5857Z" fill="#F014C0"/>
<path d="M40.3297 83.9219L92.0565 60.47C98.8625 57.3843 107.069 60.8135 110.386 68.1295C113.703 75.4454 110.874 83.8776 104.068 86.9633L52.3413 110.415C45.5353 113.501 37.3291 110.072 34.0122 102.756C30.6953 95.4398 33.5237 87.0076 40.3297 83.9219Z" fill="#D4C8EF"/>
<mask id="mask0_63_517" style="mask-type:alpha" maskUnits="userSpaceOnUse" x="86" y="65" width="19" height="19">
<path d="M98.8588 65.0646L86.8745 70.498L92.9212 83.8349L104.906 78.4015L98.8588 65.0646Z" fill="#D9D9D9"/>
</mask>
<g mask="url(#mask0_63_517)">
<path d="M94.8681 80.9923C94.5852 81.1205 94.2822 81.1938 93.9593 81.2117C93.6363 81.2297 93.3162 81.1655 92.999 81.0189C93.24 80.7758 93.3745 80.5195 93.4028 80.2498C93.431 79.9801 93.3633 79.6647 93.1995 79.3036C93.0148 78.896 92.9852 78.4934 93.1109 78.0959C93.2368 77.6984 93.4828 77.4166 93.849 77.2506C94.2151 77.0845 94.5892 77.0852 94.971 77.2525C95.353 77.4199 95.6364 77.7075 95.8211 78.115C96.0899 78.7077 96.1293 79.276 95.9394 79.8199C95.7495 80.3637 95.3924 80.7546 94.8681 80.9923ZM96.2466 76.3979L94.5247 75.5876L96.8503 68.2358C96.9079 68.0533 97.0065 67.9276 97.146 67.8589C97.2853 67.7901 97.4489 67.7968 97.6367 67.8792L98.1814 68.1179C98.3692 68.2003 98.4978 68.3235 98.5672 68.4873C98.6365 68.6514 98.6422 68.8246 98.5846 69.0071L96.2466 76.3979Z" fill="#C09ECC"/>
</g>
</g>
<defs>
<clipPath id="clip0_63_517">
<rect width="84.0598" height="96.0155" fill="white" transform="translate(3 34.7109) rotate(-24.3886)"/>
</clipPath>
</defs>
</svg>
