<svg width="515" height="527" viewBox="0 0 515 527" fill="none" xmlns="http://www.w3.org/2000/svg">
<rect width="80.4945" height="112.942" rx="40.2473" transform="matrix(0.726564 0.687099 0.687099 -0.726564 365.182 323.638)" fill="#91C2D2"/>
<rect width="65" height="77" rx="32.5" transform="matrix(0.375397 0.926864 0.926864 -0.375397 24.6904 369.029)" fill="#91C2D2"/>
<rect width="65" height="77" rx="32.5" transform="matrix(-0.997942 0.0641251 0.0641251 0.997942 212.426 436.86)" fill="#91C2D2"/>
<rect width="65" height="77" rx="32.5" transform="matrix(-0.997942 0.0641251 0.0641251 0.997942 335.541 429.708)" fill="#91C2D2"/>
<rect x="125.778" y="22.9631" width="65.5556" height="159.121" rx="32.7778" transform="rotate(-2.7665 125.778 22.9631)" fill="#0185B7"/>
<rect x="273.535" y="14.4445" width="65.5556" height="159.121" rx="32.7778" transform="rotate(-2.7665 273.535 14.4445)" fill="#0185B7"/>
<rect x="56.1855" y="134.015" width="361" height="346" rx="90" transform="rotate(-3.67662 56.1855 134.015)" fill="#0185B7"/>
<rect x="118.498" y="266.283" width="255" height="134" rx="20" transform="rotate(-3.67662 118.498 266.283)" fill="#91C2D2"/>
<rect x="194.689" y="257.215" width="29" height="25" transform="rotate(-3.67662 194.689 257.215)" fill="#0185B7"/>
<rect x="281.355" y="249.604" width="29" height="25" transform="rotate(-3.67662 281.355 249.604)" fill="#0185B7"/>
<circle cx="220.112" cy="316.156" r="25" transform="rotate(-3.67662 220.112 316.156)" fill="#024275"/>
<circle cx="328.056" cy="308.846" r="25" transform="rotate(-3.67662 328.056 308.846)" fill="#024275"/>
<rect x="134.439" y="199.786" width="70" height="25" rx="12.5" transform="rotate(-3.67662 134.439 199.786)" fill="#14F0F0"/>
<rect x="279.88" y="187.013" width="70" height="25" rx="12.5" transform="rotate(-3.67662 279.88 187.013)" fill="#14F0F0"/>
<rect x="32" y="395" width="11" height="54" fill="#84552A"/>
<rect x="75" y="395" width="11" height="54" fill="#84552A"/>
<rect x="86" y="395" width="11" height="54" transform="rotate(90 86 395)" fill="#84552A"/>
<rect y="424" width="118" height="69" rx="5" fill="#84552A"/>
<rect y="424" width="118" height="42" rx="5" fill="#593310"/>
<circle cx="59" cy="467" r="7" fill="#A36E3D"/>
<path d="M260.5 404H250.5L245.5 415L250.5 425.5H260.5L265.5 415L260.5 404Z" fill="#F84D4D"/>
<path d="M243 486.5L250.5 425.5H260.5L271.5 486.5L258.5 499.5L243 486.5Z" fill="#F84D4D"/>
</svg>
